<svg width="24" height="24" viewBox="0 0 24 24" xmlns="http://www.w3.org/2000/svg">
    <title>
        icon_person_unassigned_24px
    </title>
    <g fill="none" fill-rule="evenodd">
        <path d="M12 1c3.333 0 6 2.667 6 6s-2.667 6-6 6-6-2.667-6-6 2.667-6 6-6zm0 22c-3.75 0-7.125-1.678-9-4.362 0-2.684 6-4.138 9-4.138s9 1.454 9 4.138C19.125 21.322 15.75 23 12 23zm-1-12.995v.99c0 .291.226.505.505.505h.99c.291 0 .505-.226.505-.505v-.99a.497.497 0 0 0-.505-.505h-.99a.497.497 0 0 0-.505.505zm.105-1.489H12.8c.008-.3.05-.548.125-.744.075-.195.21-.386.403-.572l.682-.634c.288-.28.497-.555.628-.824.13-.268.195-.567.195-.895 0-.75-.242-1.33-.726-1.736-.484-.407-1.166-.611-2.047-.611-.886 0-1.573.22-2.063.66-.49.441-.74 1.057-.747 1.847h2.003c.008-.296.085-.531.232-.705a.715.715 0 0 1 .575-.26c.513 0 .77.297.77.894 0 .245-.076.47-.228.673a4.217 4.217 0 0 1-.667.673 2.137 2.137 0 0 0-.634.868c-.13.334-.196.79-.196 1.366z" fill="#000"/>
    </g>
</svg>
