<svg width="24" height="24" viewBox="0 0 24 24" xmlns="http://www.w3.org/2000/svg">
    <title>
        icon_orcid_24px.svg
    </title>
    <path d="M12 22C6.477 22 2 17.523 2 12S6.477 2 12 2s10 4.477 10 10-4.477 10-10 10zM7.833 5.125c-.573 0-1.041.469-1.041 1.041 0 .573.468 1.042 1.041 1.042s1.042-.469 1.042-1.042c0-.572-.47-1.041-1.042-1.041zM7 8.25v8.542h1.667V8.25H7zm4.792 1.25v5.833h1.742c2.48 0 3.05-1.948 3.05-2.916 0-1.58-.973-2.917-3.106-2.917h-1.686zm-1.459-1.458v8.75h3.353c2.837 0 4.564-2.13 4.564-4.375 0-2.066-1.4-4.375-4.576-4.375h-3.34z" fill="#000" fill-rule="evenodd"/>
</svg>
