<svg width="24" height="24" viewBox="0 0 24 24" xmlns="http://www.w3.org/2000/svg">
    <title>
        icon_role_reviewer_24px
    </title>
    <g fill="#000" fill-rule="evenodd">
        <path d="M19.445 17.03C20.435 15.209 21 13.13 21 11V5l-9-4-9 4v6c0 5.55 3.84 10.74 9 12 2.525-.617 4.734-2.174 6.331-4.254l-4.435-4.436a4.5 4.5 0 1 1 1.414-1.414l4.135 4.135zM11.5 13a2.5 2.5 0 1 0 0-5 2.5 2.5 0 0 0 0 5z"/>
        <path d="M4.5 5.975V11c0 4.766 3.225 9.211 7.5 10.448 4.275-1.237 7.5-5.682 7.5-10.448V5.975L12 2.64 4.5 5.975zM3 5l9-4 9 4v6c0 5.55-3.84 10.74-9 12-5.16-1.26-9-6.45-9-12V5z" fill-rule="nonzero"/>
    </g>
</svg>
