<svg xmlns="http://www.w3.org/2000/svg" viewBox="0 0 24 24">
    <path d="M9.7 8.1L7.2 5.5 5.5 7.2l2.6 2.5c.4-.7.9-1.2 1.6-1.6zM15.9 9.7l2.5-2.5-1.6-1.6-2.5 2.5c.7.4 1.2.9 1.6 1.6zM12 7.4c.3 0 .8.1 1.1.1V4h-2.3v3.5c.4 0 .9-.1 1.2-.1zM7.4 12c0-.3.1-.8.1-1.1H4v2.3h3.5c0-.4-.1-.9-.1-1.2zM8.1 14.3l-2.5 2.5 1.6 1.6 2.5-2.5c-.7-.4-1.2-.9-1.6-1.6zM16.5 10.9c0 .3.1.8.1 1.1s-.1.8-.1 1.1H20v-2.3h-3.5zM14.3 15.9l2.5 2.5 1.6-1.6-2.5-2.5c-.4.7-.9 1.2-1.6 1.6zM12 16.6c-.3 0-.8-.1-1.1-.1V20h2.3v-3.5c-.4 0-.9.1-1.2.1z"/>
</svg>
