<svg width="24" height="24" viewBox="0 0 24 24" xmlns="http://www.w3.org/2000/svg">
    <title>
        icon_glasses_24px
    </title>
    <g fill="none" fill-rule="evenodd">
        <path d="M0 0h24v24H0z"/>
        <path d="M23 11.1h-1.2c-.3-2-1.8-3.6-4.4-3.6-1.7 0-3.2 1-3.8 2.5-.4-.4-1-.7-1.6-.7-.6 0-1.2.3-1.6.7-.7-1.5-2.2-2.5-3.9-2.5-2.1 0-3.9 1.6-4.2 3.6H1v1.1h1.3c.3 2 2.1 3.6 4.3 3.6 2.3 0 4.2-1.9 4.2-4.2 0-.7.6-1.3 1.3-1.3.7 0 1.3.6 1.3 1.3 0 2.3 1.9 4.2 4.2 4.2 2.1 0 3.9-1.6 4.2-3.6H23v-1.1zM6.5 14.25c-1.508 0-2.75-1.185-2.75-2.625S4.992 9 6.5 9s2.75 1.185 2.75 2.625S8.008 14.25 6.5 14.25zm11 0c-1.508 0-2.75-1.185-2.75-2.625S15.992 9 17.5 9s2.75 1.185 2.75 2.625-1.242 2.625-2.75 2.625z" fill="#000"/>
    </g>
</svg>
