<svg width="24" height="24" viewBox="0 0 24 24" xmlns="http://www.w3.org/2000/svg">
    <title>
        icon_file_reload_24px
    </title>
    <g fill="none" fill-rule="evenodd">
        <path d="M14.949 11.954c.335 1.886-1.005 3.662-2.903 3.995-1.898.333-3.685-.999-4.02-2.885-.223-1.998 1.005-3.774 2.903-3.996 1.117-.221 2.121.111 2.903.777" stroke="#000" stroke-width="1.3"/>
        <path fill="#000" fill-rule="nonzero" d="M12.75 13L15 10l2.25 3z"/>
        <path d="M18 6.5V20H6V4h9.5L18 6.5zM16 2H6C5 2 4 3 4 4v16s0 2 2 2h12s2 0 2-2V5.6l-.3-.3-3-3-.3-.3H16z" fill="#000"/>
    </g>
</svg>
