<svg width="16" height="16" viewBox="0 0 16 16" xmlns="http://www.w3.org/2000/svg">
    <title>
        icon_person_outline_16px
    </title>
    <g fill="none" fill-rule="evenodd">
        <path d="M8 3.4c.9 0 1.6.7 1.6 1.6 0 .9-.7 1.6-1.6 1.6-.9 0-1.6-.7-1.6-1.6 0-.9.7-1.6 1.6-1.6zm0 6.8c2.2 0 4.6 1.1 4.6 1.6v.8H3.5v-.8c-.1-.5 2.3-1.6 4.5-1.6zM8 2C6.3 2 5 3.3 5 5s1.3 3 3 3 3-1.3 3-3-1.3-3-3-3zm0 6.8c-2 0-6 1-6 3V14h12v-2.2c0-2-4-3-6-3z" fill="#000"/>
        <path d="M0 0h16v16H0V0z"/>
    </g>
</svg>
