<svg width="24" height="24" viewBox="0 0 24 24" xmlns="http://www.w3.org/2000/svg">
    <title>
        icon_logo-sci-alt_24px
    </title>
    <g fill-rule="nonzero" fill="#000">
        <path d="M3.478 15.367a.744.744 0 0 0-.243-.521 1.08 1.08 0 0 0-.668-.194 1.087 1.087 0 0 0-.546.123.415.415 0 0 0-.247.37c0 .157.1.297.247.35.203.089.416.153.633.194.246.054.528.106.81.159.28.05.552.14.808.264.244.117.46.285.634.493.173.252.259.554.243.859a1.774 1.774 0 0 1-.07.455c-.059.225-.174.43-.334.598-.212.22-.462.398-.738.527-.42.162-.87.24-1.32.228-.23 0-.458-.025-.683-.07a2.364 2.364 0 0 1-.756-.247 2.115 2.115 0 0 1-.65-.545 1.631 1.631 0 0 1-.317-.968h1.51a.67.67 0 0 0 .3.562c.093.058.193.106.297.143.109.03.222.042.335.035.1.003.199-.003.298-.017.097-.02.191-.049.282-.087a.516.516 0 0 0 .21-.177c.06-.081.091-.18.088-.281a.37.37 0 0 0-.246-.335 3.553 3.553 0 0 0-.597-.175 26.133 26.133 0 0 0-.774-.158 2.713 2.713 0 0 1-.774-.264 1.523 1.523 0 0 1-.593-.511 1.45 1.45 0 0 1-.252-.876 1.61 1.61 0 0 1 .124-.633c.09-.212.221-.403.387-.562.205-.18.445-.318.704-.405a3.01 3.01 0 0 1 1.037-.159c.703 0 1.267.159 1.688.456.431.31.692.805.703 1.336l-1.53.033zM9.054 15.745a1.21 1.21 0 0 0-.088-.475.701.701 0 0 0-.211-.28.838.838 0 0 0-.284-.144.918.918 0 0 0-.298-.035.929.929 0 0 0-.57.159.954.954 0 0 0-.316.421c-.073.174-.12.358-.14.545-.018.194-.036.387-.036.57 0 .183.018.365.053.545.032.172.092.338.176.492.081.136.189.256.316.351a.987.987 0 0 0 1.161-.104c.166-.179.265-.409.281-.652l1.496.053c-.05.286-.14.564-.264.827a2.207 2.207 0 0 1-.475.65c-.2.191-.44.336-.703.423-.31.11-.638.164-.968.158a2.99 2.99 0 0 1-1.16-.21 2.202 2.202 0 0 1-.827-.581 2.568 2.568 0 0 1-.502-.88 3.88 3.88 0 0 1-.177-1.138c-.007-.406.053-.81.177-1.197.112-.336.291-.646.528-.91.232-.254.513-.457.826-.598.35-.148.728-.22 1.108-.212.36-.01.718.05 1.055.177.279.111.535.272.756.474.193.198.347.43.455.683.11.263.176.543.194.828l-1.563.06zM11.235 13.66h1.513v5.418h-1.513v-5.417zm1.65-1.68a.881.881 0 1 1-1.762.003.881.881 0 0 1 1.763-.002zM13.416 18.331a.902.902 0 1 1 1.803-.009.902.902 0 0 1-1.803.01z"/>
        <path d="M12 7.29a4.75 4.75 0 0 0-4.746 4.746v.084h1.594v-.084a3.152 3.152 0 1 1 6.304 0v.084h1.594v-.084A4.75 4.75 0 0 0 12 7.291z"/>
        <path d="M12 3.797a8.248 8.248 0 0 0-8.242 8.24v.083h1.594v-.084a6.646 6.646 0 1 1 13.291 0v.084h1.594v-.084A8.248 8.248 0 0 0 12 3.797z"/>
        <path d="M12 .306C5.527.316.283 5.563.275 12.036v.084H1.87v-.084C1.869 6.438 6.407 1.9 12.006 1.9c5.598 0 10.137 4.538 10.137 10.136v.084h1.593v-.084C23.73 5.56 18.478.31 12 .306z"/>
    </g>
</svg>
