<svg width="24" height="24" viewBox="0 0 24 24" xmlns="http://www.w3.org/2000/svg">
    <title>
        icon_file_audio_24px
    </title>
    <g fill="#000" fill-rule="evenodd">
        <path d="M18 6.5V20H6V4h9.5L18 6.5zM16 2H6C5 2 4 3 4 4v16s0 2 2 2h12s2 0 2-2V5.6l-.3-.3-3-3-.3-.3H16z"/>
        <path d="M7 10.359v3.333h2.222L12 16.47V7.581L9.222 10.36H7zm7.5 1.667a2.5 2.5 0 0 0-1.389-2.24v4.473a2.486 2.486 0 0 0 1.389-2.233zm-1.389-4.873v1.145a3.892 3.892 0 0 1 0 7.455v1.145a4.998 4.998 0 0 0 0-9.745z"/>
    </g>
</svg>
