<svg width="24" height="24" viewBox="0 0 24 24" xmlns="http://www.w3.org/2000/svg">
    <title>
        icon_role_public_group_24px
    </title>
    <g fill="#000" fill-rule="evenodd">
        <path d="M6.5 23C3 20 1 16.62 1 11.544V6.452L3.25 5.5v5.622c0 4.594 1.952 8.334 5.5 10.878L6.5 23z" fill-rule="nonzero"/>
        <path d="M5 5l9-4 9 4v6c0 5.55-3.84 10.74-9 12-5.16-1.26-9-6.45-9-12V5zm9 1c-3.312 0-6 2.688-6 6s2.688 6 6 6 6-2.688 6-6-2.688-6-6-6z"/>
        <path d="M13.4 16.758A4.793 4.793 0 0 1 9.2 12c0-.372.048-.726.126-1.074L12.2 13.8v.6c0 .66.54 1.2 1.2 1.2v1.158zm4.14-1.524a1.19 1.19 0 0 0-1.14-.834h-.6v-1.8c0-.33-.27-.6-.6-.6h-3.6v-1.2h1.2c.33 0 .6-.27.6-.6V9h1.2c.66 0 1.2-.54 1.2-1.2v-.246c1.758.714 3 2.436 3 4.446 0 1.248-.48 2.382-1.26 3.234z" fill-rule="nonzero"/>
    </g>
</svg>
