<svg width="24" height="24" viewBox="0 0 24 24" xmlns="http://www.w3.org/2000/svg">
    <title>
        icon_role_editor_group_24px
    </title>
    <g fill="#000" fill-rule="evenodd">
        <path d="M5 5l9-4 9 4v6c0 5.55-3.84 10.74-9 12-5.16-1.26-9-6.45-9-12V5zm2.999 11.311v2h6.786v-2H8zm2.4-7.313l7.999 8 1.599-1.6L12 7.4l-1.6 1.598zM14.4 5L12.8 6.598 15.998 9.8l1.6-1.6L14.4 5zM9.596 9.799l-1.599 1.6 3.2 3.199 1.599-1.6-3.2-3.2z"/>
        <path d="M6.5 23C3 20 1 16.62 1 11.544V6.452L3.25 5.5v5.622c0 4.594 1.952 8.334 5.5 10.878L6.5 23z" fill-rule="nonzero"/>
        <path d="M6.5 11c0 4.766 3.225 9.211 7.5 10.448 4.275-1.237 7.5-5.682 7.5-10.448V5.975L14 2.64 6.5 5.975V11zM5 5l9-4 9 4v6c0 5.55-3.84 10.74-9 12-5.16-1.26-9-6.45-9-12V5z" fill-rule="nonzero"/>
    </g>
</svg>
