<svg width="24" height="24" viewBox="0 0 24 24" xmlns="http://www.w3.org/2000/svg">
    <title>
        icon_reader_24px
    </title>
    <g fill="none" fill-rule="evenodd">
        <path d="M22.21 18.095c0-.013 0-.013 0 0 .109-.177.204-.34.285-.518 0 0 0-.013.013-.013.095-.178.177-.341.258-.519 0-.013 0-.013.014-.027.081-.177.162-.354.23-.532 0-.013 0-.013.014-.027.068-.177.135-.354.203-.545 0-.014 0-.014.014-.028a8.86 8.86 0 0 0 .176-.559v-.013c.054-.191.108-.382.15-.587.202-.872.311-1.786.311-2.727 0-.94-.109-1.855-.312-2.727a9.288 9.288 0 0 0-.15-.587v-.013c-.053-.191-.108-.382-.175-.56 0-.013 0-.013-.014-.027-.068-.177-.135-.368-.203-.545 0-.014 0-.014-.014-.027-.068-.178-.149-.355-.23-.532 0-.014 0-.014-.014-.027a6.132 6.132 0 0 0-.258-.519s0-.013-.013-.013c-.095-.178-.19-.341-.285-.505v-.013a10.17 10.17 0 0 0-.312-.505C19.756 2.155 16.095 0 11.932 0 7.77 0 4.108 2.155 1.966 5.4c-.108.164-.217.327-.312.505v.013c-.095.164-.19.341-.285.505 0 0 0 .013-.013.013-.095.178-.176.341-.258.519 0 .013 0 .013-.013.027-.082.177-.163.354-.23.532 0 .013 0 .013-.014.027-.068.177-.136.354-.204.545 0 .014 0 .014-.013.028a8.86 8.86 0 0 0-.177.559v.013c-.04.191-.094.382-.135.587A12.009 12.009 0 0 0 0 12c0 .94.108 1.855.312 2.727.04.191.095.396.149.587v.013c.054.191.108.382.176.56 0 .013 0 .013.014.027.068.177.135.368.203.545 0 .014 0 .014.014.027.068.178.149.355.23.532 0 .014 0 .014.014.027.081.178.163.355.257.519 0 0 0 .013.014.013.095.178.19.341.285.505v.013c.095.164.203.341.312.505 2.128 3.245 5.79 5.4 9.952 5.4 4.163 0 7.824-2.155 9.966-5.4.109-.177.217-.34.312-.505zM2.55 9.273c1.179-4.091 4.935-7.091 9.382-7.091 4.448 0 8.204 3 9.383 7.09a6.41 6.41 0 0 1-.176.546c-2.197-2.659-5.505-4.363-9.207-4.363-3.701 0-7.01 1.704-9.193 4.363-.068-.177-.136-.354-.19-.545zM20.04 12c-1.748 2.632-4.732 4.364-8.108 4.364-3.376 0-6.36-1.732-8.108-4.364 1.749-2.632 4.732-4.364 8.108-4.364 3.376 0 6.36 1.732 8.109 4.364zm-8.108 9.818c-4.447 0-8.203-3-9.37-7.09a6.41 6.41 0 0 1 .177-.546c2.183 2.659 5.492 4.363 9.193 4.363 3.702 0 7.01-1.704 9.207-4.377.068.177.122.368.176.546-1.18 4.104-4.935 7.104-9.383 7.104z" fill="#B3B3B3"/>
        <ellipse fill="#B3B3B3" cx="11.932" cy="12" rx="2.169" ry="2.182"/>
        <g opacity=".2" fill="#000">
            <path d="M2.563 14.727c-.258.887-.38 1.8-.38 2.741l.014 1.446c.61.872 1.342 1.663 2.156 2.331v-3.081a9.668 9.668 0 0 1-1.79-3.437zM3.824 12a8.853 8.853 0 0 0-1.085 2.182c.529.64 1.125 1.227 1.763 1.745.149-.763.42-1.5.8-2.182A10.055 10.055 0 0 1 3.824 12z"/>
        </g>
    </g>
</svg>
