<svg width="16" height="16" viewBox="0 0 16 16" xmlns="http://www.w3.org/2000/svg">
    <title>
        icon_money_16px
    </title>
    <g fill="none" fill-rule="evenodd">
        <path d="M8.511 7.144c-1.765-.458-2.333-.933-2.333-1.672 0-.848.785-1.439 2.1-1.439 1.384 0 1.898.661 1.944 1.634h1.72c-.055-1.338-.872-2.567-2.498-2.964V1H7.111v1.68C5.602 3.007 4.39 3.987 4.39 5.488c0 1.796 1.485 2.69 3.655 3.212 1.945.467 2.334 1.151 2.334 1.874 0 .537-.381 1.393-2.1 1.393-1.602 0-2.232-.716-2.318-1.634H4.249c.093 1.704 1.369 2.66 2.862 2.98V15h2.333v-1.672c1.517-.288 2.723-1.167 2.723-2.761 0-2.21-1.89-2.964-3.656-3.423z" fill="#000"/>
        <path d="M0 0h16v16H0z"/>
    </g>
</svg>
