<svg width="24" height="24" viewBox="0 0 24 24" xmlns="http://www.w3.org/2000/svg">
    <title>
        icon_linked-in_24px
    </title>
    <path d="M7.42 20.373H3.693L3.671 9.209h3.728l.022 11.164zM5.464 7.749H5.44c-1.219 0-2.005-.84-2.005-1.886 0-1.07.812-1.882 2.052-1.882s2.001.811 2.026 1.882c0 1.046-.79 1.886-2.051 1.886zm14.884 12.624h-3.76v-6.065c0-1.468-.39-2.467-1.702-2.467-1.003 0-1.544.675-1.803 1.327-.098.235-.123.556-.123.884v6.32H9.18L9.16 9.21h3.778l.022 1.576c.483-.747 1.287-1.803 3.213-1.803 2.387 0 4.172 1.558 4.172 4.907v6.484h.003z" fill-rule="nonzero" fill="#000"/>
</svg>
