<svg width="24" height="24" viewBox="0 0 24 24" xmlns="http://www.w3.org/2000/svg">
    <title>
        icon_role_producer_group_24px
    </title>
    <g fill="#000" fill-rule="evenodd">
        <path d="M6.5 23C3 20 1 16.62 1 11.544V6.452L3.25 5.5v5.622c0 4.594 1.952 8.334 5.5 10.878L6.5 23z" fill-rule="nonzero"/>
        <path d="M5 5l9-4 9 4v6c0 5.55-3.84 10.74-9 12-5.16-1.26-9-6.45-9-12V5zm15.843 10.849l-4.956-4.956c.49-1.253.217-2.723-.817-3.758-1.09-1.09-2.724-1.307-4.03-.708l2.341 2.342-1.634 1.634L9.351 8.06c-.654 1.307-.381 2.94.708 4.03 1.035 1.035 2.505 1.307 3.758.817l4.956 4.956a.526.526 0 0 0 .763 0l1.252-1.253c.273-.217.273-.599.055-.762z"/>
        <path d="M6.5 11c0 4.766 3.225 9.211 7.5 10.448 4.275-1.237 7.5-5.682 7.5-10.448V5.975L14 2.64 6.5 5.975V11zM5 5l9-4 9 4v6c0 5.55-3.84 10.74-9 12-5.16-1.26-9-6.45-9-12V5z" fill-rule="nonzero"/>
    </g>
</svg>
