<svg width="24" height="24" viewBox="0 0 24 24" xmlns="http://www.w3.org/2000/svg">
    <title>
        icon_role_author_group_24px
    </title>
    <g fill="#000" fill-rule="evenodd">
        <path d="M6.5 23C3 20 1 16.62 1 11.544V6.452L3.25 5.5v5.622c0 4.594 1.952 8.334 5.5 10.878L6.5 23z" fill-rule="nonzero"/>
        <path d="M5 5l9-4 9 4v6c0 5.55-3.84 10.74-9 12-5.16-1.26-9-6.45-9-12V5zm4 9.678V17h2.322l6.722-6.783-2.322-2.323L9 14.678zm10.817-6.234a.59.59 0 0 0 0-.855L18.41 6.183a.59.59 0 0 0-.855 0l-1.1 1.1 2.322 2.323 1.039-1.162z"/>
        <path d="M6.5 11c0 4.766 3.225 9.211 7.5 10.448 4.275-1.237 7.5-5.682 7.5-10.448V5.975L14 2.64 6.5 5.975V11zM5 5l9-4 9 4v6c0 5.55-3.84 10.74-9 12-5.16-1.26-9-6.45-9-12V5z" fill-rule="nonzero"/>
    </g>
</svg>
