<svg width="24" height="24" viewBox="0 0 24 24" xmlns="http://www.w3.org/2000/svg">
    <title>
        icon_manuscript-preview_24px
    </title>
    <g fill="#000" fill-rule="evenodd">
        <path d="M19 6.5V20H7V4h9.5L19 6.5zM17 2H7C6 2 5 3 5 4v16s0 2 2 2h12s2 0 2-2V5.6l-.3-.3-3-3-.3-.3H17z"/>
        <path d="M9 4h2v2H9V4zm0 12h2v2H9v-2zm0-4h2v2H9v-2zm0-4h2v2H9V8zm-2 6h2v2H7v-2zm0 4h2v2H7v-2zm0-8h2v2H7v-2zm0-4h2v2H7V6zm4 8h2v2h-2v-2zm0 4h2v2h-2v-2zm0-8h2v2h-2v-2zm0-4h2v2h-2V6z"/>
    </g>
</svg>
