<svg width="24" height="24" viewBox="0 0 24 24" xmlns="http://www.w3.org/2000/svg">
    <title>
        icon_file_link_24px
    </title>
    <g fill="none" fill-rule="evenodd">
        <path d="M18 6.5V20H6V4h9.5L18 6.5zM16 2H6C5 2 4 3 4 4v16s0 2 2 2h12s2 0 2-2V5.6l-.3-.3-3-3-.3-.3H16z" fill="#000"/>
        <g stroke="#000">
            <path d="M10.2 11.2l2.6-2.6c.8-.8 2-.8 2.8 0l.2.2c.8.8.8 2 0 2.8l-2.6 2.6"/>
            <path d="M14.2 13.2l-2.6 2.6c-.8.8-2 .8-2.8 0l-.2-.2c-.8-.8-.8-2 0-2.8l2.6-2.6M14.2 10.2l-4.011 4.011"/>
        </g>
    </g>
</svg>
