<svg width="24" height="24" viewBox="0 0 24 24" xmlns="http://www.w3.org/2000/svg">
    <title>
        icon_isbn_24px.svg
    </title>
    <path d="M12 24C5.373 24 0 18.627 0 12S5.373 0 12 0s12 5.373 12 12-5.373 12-12 12zm-9-7.97h1.16v-8H3v8zm1.788-2.676c.178 1.769 1.052 2.653 2.623 2.653.888 0 1.541-.228 1.959-.685.417-.458.626-1.022.626-1.693 0-.464-.076-.859-.23-1.184a2.006 2.006 0 0 0-.663-.797c-.29-.205-.76-.401-1.41-.588-.615-.172-1.007-.33-1.178-.474a.671.671 0 0 1-.256-.533c0-.214.095-.394.283-.538.188-.144.457-.216.805-.216.348 0 .616.083.805.248.188.165.31.455.367.87l1.296-.068c-.025-.753-.249-1.331-.672-1.735-.423-.405-1.01-.607-1.764-.607-.501 0-.922.086-1.264.258a1.891 1.891 0 0 0-.802.765c-.193.338-.29.717-.29 1.14 0 .361.075.7.226 1.014.151.315.355.57.61.762.256.194.66.373 1.21.538.615.187 1.003.32 1.163.398.16.08.279.18.357.304a.819.819 0 0 1 .117.448c0 .299-.112.55-.336.751-.224.203-.531.304-.922.304-.789 0-1.254-.494-1.396-1.482l-1.264.147zm5.868-5.324v8h1.872c.812 0 1.329-.033 1.552-.098.32-.095.598-.343.833-.745.235-.402.352-.894.352-1.476 0-.48-.092-.888-.277-1.223a1.556 1.556 0 0 0-.766-.709c.228-.15.415-.38.558-.69.143-.311.215-.66.215-1.045 0-.419-.084-.793-.252-1.124-.167-.332-.373-.563-.618-.694-.244-.13-.666-.196-1.267-.196h-2.202zm1.108 1.287h.64c.586 0 .941.017 1.065.053a.556.556 0 0 1 .315.266c.087.142.13.328.13.556 0 .257-.053.46-.16.61a.676.676 0 0 1-.443.276c-.104.018-.376.027-.815.027h-.732V9.317zm0 3.074h.897c.476 0 .79.031.945.093a.74.74 0 0 1 .37.337c.094.164.14.372.14.625 0 .246-.043.45-.13.61a.683.683 0 0 1-.323.32c-.128.055-.418.083-.87.083h-1.03V12.39zm4.247 3.639h1.182v-5.217l2.531 5.217H21v-8h-1.182v5.342L17.245 8.03h-1.234v8z" fill="#000" fill-rule="evenodd"/>
</svg>
