<svg width="24" height="24" viewBox="0 0 24 24" xmlns="http://www.w3.org/2000/svg">
    <title>
        icon_journal_24px
    </title>
    <g fill="none" fill-rule="evenodd">
        <path d="M12.5 1.634l-.5-.289-.5.289-8.227 4.75-.5.289v10.654l.5.289 8.227 4.75.5.289.5-.289 8.227-4.75.5-.289V6.673l-.5-.289-8.227-4.75zm6.727 6.176v8.313L12.5 20.07h-1l-6.727-3.947V7.81L12 3.806l7.227 4.004z" fill="#000"/>
        <path fill="#000" d="M4.917 6.25L12 2l7.083 4.25L12 10.5z"/>
        <path fill="#000" d="M11.5 9.49V21h1V9.49z"/>
        <g stroke="#000">
            <path d="M14 11.89l4.035-2.39M14 14.39L18.035 12M14 16.89l4.035-2.39"/>
        </g>
        <g stroke="#000">
            <path d="M10 11.89L5.965 9.5M10 14.39L5.965 12M10 16.89L5.965 14.5"/>
        </g>
    </g>
</svg>
