<svg width="24" height="24" viewBox="0 0 24 24" xmlns="http://www.w3.org/2000/svg">
    <title>
        icon_person_warning_24px
    </title>
    <path d="M12 23c-3.75 0-7.125-1.678-9-4.362 0-2.684 6-4.138 9-4.138s9 1.454 9 4.138C19.125 21.322 15.75 23 12 23zm0-22c3.333 0 6 2.667 6 6s-2.667 6-6 6-6-2.667-6-6 2.667-6 6-6zm-1 2v5h2V3h-2zm0 6.505c0-.279.214-.505.505-.505h.99c.279 0 .505.214.505.505v.99a.497.497 0 0 1-.505.505h-.99a.497.497 0 0 1-.505-.505v-.99z" fill="#000" fill-rule="evenodd"/>
</svg>
