<svg width="24" height="24" viewBox="0 0 24 24" xmlns="http://www.w3.org/2000/svg">
    <title>
        icon_file_data_24px
    </title>
    <g fill="#000" fill-rule="evenodd">
        <path d="M15.6 18H8.4c-.24 0-.4-.157-.4-.393V7.393C8 7.157 8.16 7 8.4 7h7.2c.24 0 .4.157.4.393v10.214c0 .236-.16.393-.4.393zM9 17h6V9H9v8z"/>
        <path d="M9 8h7v1H9zM8 11h8v1H8zM8 14h8v1H8z"/>
        <path d="M11.5 7h1v11h-1z"/>
        <path d="M18 6.5V20H6V4h9.5L18 6.5zM16 2H6C5 2 4 3 4 4v16s0 2 2 2h12s2 0 2-2V5.6l-.3-.3-3-3-.3-.3H16z"/>
    </g>
</svg>
