<svg width="24" height="24" viewBox="0 0 24 24" xmlns="http://www.w3.org/2000/svg">
    <title>
        icon_role_author_24px
    </title>
    <g fill="#000" fill-rule="evenodd">
        <path d="M3 5l9-4 9 4v6c0 5.55-3.84 10.74-9 12-5.16-1.26-9-6.45-9-12V5zm4 9.678V17h2.322l6.722-6.783-2.322-2.323L7 14.678zm10.817-6.234a.59.59 0 0 0 0-.855L16.41 6.183a.59.59 0 0 0-.855 0l-1.1 1.1 2.322 2.323 1.039-1.162z"/>
        <path d="M4.5 11c0 4.766 3.225 9.211 7.5 10.448 4.275-1.237 7.5-5.682 7.5-10.448V5.975L12 2.64 4.5 5.975V11zM3 5l9-4 9 4v6c0 5.55-3.84 10.74-9 12-5.16-1.26-9-6.45-9-12V5z" fill-rule="nonzero"/>
    </g>
</svg>
