<svg width="24" height="24" viewBox="0 0 24 24" xmlns="http://www.w3.org/2000/svg">
    <title>
        icon_reddit_24px
    </title>
    <path d="M22.596 11.148v.002a2.667 2.667 0 0 1-.445 1.598c-.262.4-.623.736-1.04.963.027.209.043.42.043.63 0 1.129-.39 2.24-1.068 3.13h-.002c-1.254 1.668-3.18 2.651-5.123 3.147h-.001l-.001.002c-1.037.251-2.106.38-3.175.38-1.594 0-3.186-.287-4.671-.883v-.001H7.11c-1.54-.635-3.008-1.645-3.908-3.123a5.089 5.089 0 0 1-.75-2.645c0-.21.014-.42.042-.63a3.018 3.018 0 0 1-1.017-.938 2.764 2.764 0 0 1-.477-1.415v-.008c0-.72.313-1.402.8-1.905.485-.503 1.149-.831 1.861-.831h.03a2.944 2.944 0 0 1 1.282.18l.001.002h.002c.29.123.58.27.837.475.083-.044.174-.093.276-.132 1.56-.924 3.374-1.28 5.14-1.383.016-.875.123-1.792.55-2.594.356-.666.973-1.185 1.708-1.365l.003-.001h.004c.28-.055.562-.08.842-.08.747 0 1.485.177 2.175.453a2.697 2.697 0 0 1 1.254-1.023l.005-.003.005-.002c.3-.093.618-.148.936-.148.336 0 .675.061.992.203v-.001l.001.001.006.002c.455.176.84.5 1.113.902.273.404.434.888.434 1.386 0 .091-.005.183-.016.275v.002l-.001.005c-.054.643-.38 1.208-.84 1.61a2.587 2.587 0 0 1-1.682.648c-.1 0-.2-.005-.299-.018a2.499 2.499 0 0 1-1.6-.783 2.418 2.418 0 0 1-.692-1.662c0-.03.003-.062.004-.092-.575-.256-1.185-.468-1.79-.468-.088 0-.176.005-.264.014a1.37 1.37 0 0 0-1.08.741v.002c-.31.604-.373 1.31-.382 2.012 1.74.113 3.49.53 5.024 1.413h.002l.022.013.132.073a2.92 2.92 0 0 1 .344-.25 2.832 2.832 0 0 1 1.568-.463c.245 0 .49.03.727.092h.001l.01.003.01.001c.56.144 1.069.466 1.451.9.383.436.64.988.69 1.586v.001zm-5.124-5.693c0 .024 0 .048.003.073v.004c.012.302.154.583.371.791.218.208.507.337.8.338H18.656l.063.001c.296 0 .59-.127.81-.334.222-.208.368-.49.38-.796V5.53a1.175 1.175 0 0 0-.374-.903 1.233 1.233 0 0 0-.84-.358.973.973 0 0 0-.29.043H18.4l-.003.001a1.28 1.28 0 0 0-.654.425c-.169.204-.272.456-.272.718zm3.732 5.836a1.16 1.16 0 0 0-.138-.552l-.002-.002-.001-.003a1.351 1.351 0 0 0-.565-.592 1.64 1.64 0 0 0-.801-.203c-.254 0-.507.057-.732.17.714.62 1.34 1.364 1.745 2.24.13-.113.242-.251.325-.405.108-.202.17-.429.17-.653zM4.632 10.118c-.232-.109-.473-.186-.71-.185-.04 0-.08.003-.12.007H3.79c-.342.01-.686.159-.945.397-.258.238-.43.559-.442.912v.004l-.001.003a1.22 1.22 0 0 0 .177.706c.084.142.194.273.319.386.399-.873 1.022-1.614 1.733-2.23zm3.393 4.42l.007.001c.137.05.278.075.419.075.35 0 .69-.143.946-.376.257-.234.433-.566.433-.943v-.032a1.288 1.288 0 0 0-.427-.997 1.41 1.41 0 0 0-.945-.378c-.094 0-.19.01-.283.032H8.17a1.374 1.374 0 0 0-1.023.917v.003c-.044.13-.064.264-.064.396 0 .29.096.574.262.807.164.229.396.409.675.493l.005.001zm7.56 1.56A.77.77 0 0 0 15.21 16a.657.657 0 0 0-.324.084 7.093 7.093 0 0 1-3.191.757 6.25 6.25 0 0 1-2.42-.47h-.004l-.004-.002c-.113-.04-.243-.124-.384-.205a1.483 1.483 0 0 0-.23-.109.788.788 0 0 0-.27-.05.688.688 0 0 0-.262.052.59.59 0 0 0-.3.215.547.547 0 0 0 .23.824c1.077.623 2.344.905 3.616.904a8.99 8.99 0 0 0 3.328-.642l.005-.003.006-.003c.135-.068.315-.13.485-.22.084-.046.166-.099.236-.168a.612.612 0 0 0 .159-.253.446.446 0 0 0-.043-.36.659.659 0 0 0-.26-.252zm.859-3.294c.056.142.081.29.081.436 0 .294-.102.58-.272.813-.169.23-.408.41-.69.489h.001c-.002 0-.005 0-.006.002h-.004a1.237 1.237 0 0 1-.4.067c-.314 0-.623-.114-.87-.307a1.307 1.307 0 0 1-.487-.795h-.001v-.004l-.001-.003a1.19 1.19 0 0 1-.027-.252c0-.284.096-.556.256-.781a1.34 1.34 0 0 1 .645-.493h.002c.001 0 .001-.002.003-.002a1.33 1.33 0 0 1 .46-.082c.282 0 .56.086.794.242.231.154.42.38.514.66l.001.005.002.005h-.001z" fill="#4A4A4A" fill-rule="evenodd"/>
</svg>
