<svg width="16" height="16" viewBox="0 0 16 16" xmlns="http://www.w3.org/2000/svg">
    <title>
        icon_gear_16px
    </title>
    <g fill="none" fill-rule="evenodd">
        <path d="M0 0h16v16H0V0z"/>
        <path d="M13.6 8.7c0-.2.1-.5.1-.7 0-.3 0-.5-.1-.7L15.2 6c.1-.1.2-.3.1-.5L13.7 3c-.1-.2-.3-.2-.5-.2l-1.9.8c-.3-.4-.7-.6-1.1-.8l-.3-2c0-.2-.2-.3-.4-.3h-3c-.2 0-.3.1-.4.3l-.3 2c-.4.2-.8.4-1.2.7l-1.9-.7c-.2-.1-.4 0-.4.2L.8 5.5c-.1.2-.1.4 0 .5l1.6 1.2c0 .2-.1.5-.1.7 0 .2 0 .5.1.7L.8 10c-.1.1-.1.3 0 .5L2.3 13c.1.2.3.2.5.2l1.9-.8c.3.4.7.6 1.1.8l.3 2c0 .2.2.3.4.3h3c.2 0 .3-.1.4-.3l.3-2c.5-.2.9-.4 1.3-.7l1.9.8c.2.1.4 0 .5-.2l1.5-2.6c.1-.2.1-.4-.1-.5l-1.7-1.3zM8 10.6c-1.4 0-2.6-1.2-2.6-2.6 0-1.4 1.2-2.6 2.6-2.6 1.4 0 2.6 1.2 2.6 2.6 0 1.4-1.2 2.6-2.6 2.6z" fill="#000"/>
    </g>
</svg>
