<svg width="24" height="24" viewBox="0 0 24 24" xmlns="http://www.w3.org/2000/svg">
    <title>
        icon_thumb_up_warning_24px
    </title>
    <path d="M1 21h4V9H1v12zm22-11v2c0 .26-.05.5-.14.73l-3.02 7.05C19.54 20.5 18.83 21 18 21H9c-1.1 0-2-.9-2-2V9c0-.55.22-1.05.59-1.41L14.17 1l1.06 1.05c.27.27.44.65.44 1.06l-.03.32-.746 3.59c-.113.542.244.98.796.98H21c1.1 0 2 .9 2 2zm-10 0v5h2v-5h-2zm0 6.505v.99c0 .291.226.505.505.505h.99c.291 0 .505-.226.505-.505v-.99a.497.497 0 0 0-.505-.505h-.99a.497.497 0 0 0-.505.505z" fill-rule="nonzero" fill="#000"/>
</svg>
