<svg width="24" height="24" viewBox="0 0 24 24" xmlns="http://www.w3.org/2000/svg">
    <title>
        icon_feedback_outline_24px
    </title>
    <g fill="none" fill-rule="evenodd">
        <path d="M0 0h24v24H0V0z"/>
        <path d="M4.586 18.586L5.172 18H20c-.005 0 0-14 0-14 0 .005-15.999 0-15.999 0 .01 0 0 15 0 15l.585-.414zM20 2c1.1 0 2 .9 2 2v14c0 1.1-.9 2-2 2H6l-4 4 .01-20c0-1.1.89-2 1.99-2h16z" fill="#000"/>
        <path d="M13 15h-2v-2h2v2zM13 11h-2V7h2v4z" fill="#000"/>
    </g>
</svg>
