<svg width="24" height="24" viewBox="0 0 24 24" xmlns="http://www.w3.org/2000/svg">
    <title>
        icon_role_editor_24px
    </title>
    <g fill="#000" fill-rule="evenodd">
        <path d="M3 5l9-4 9 4v6c0 5.55-3.84 10.74-9 12-5.16-1.26-9-6.45-9-12V5zm2.999 11.311v2h6.786v-2H6zm2.4-7.313l7.999 8 1.599-1.6L10 7.4 8.4 8.998zM12.4 5L10.8 6.598 13.998 9.8l1.6-1.6L12.4 5zM7.596 9.799l-1.599 1.6 3.2 3.199 1.599-1.6-3.2-3.2z"/>
        <path d="M4.5 11c0 4.766 3.225 9.211 7.5 10.448 4.275-1.237 7.5-5.682 7.5-10.448V5.975L12 2.64 4.5 5.975V11zM3 5l9-4 9 4v6c0 5.55-3.84 10.74-9 12-5.16-1.26-9-6.45-9-12V5z" fill-rule="nonzero"/>
    </g>
</svg>
