<svg width="24" height="24" viewBox="0 0 24 24" xmlns="http://www.w3.org/2000/svg">
    <title>
        icon_access_closed_24px
    </title>
    <g fill-rule="nonzero" fill="#000">
        <path d="M8 12l.114-3.687c0-1.775 1.513-3.23 3.399-3.23 1.886 0 3.398 1.455 3.398 3.23L15 12l2 1 .069-4.687c0-2.985-2.497-5.388-5.556-5.388-3.06 0-5.556 2.403-5.556 5.388L6 13l2-1z"/>
        <path d="M10.5 16.042V19h2v-2.958c.74-.327 1.25-1.007 1.25-1.792 0-1.105-1.007-2-2.25-2s-2.25.895-2.25 2c0 .785.51 1.465 1.25 1.792zm1 6.033c-3.613 0-6.56-2.835-6.56-6.353S7.888 9.37 11.5 9.37c3.614 0 6.56 2.835 6.56 6.353s-2.946 6.353-6.56 6.353z"/>
    </g>
</svg>
