<svg width="24" height="24" viewBox="0 0 24 24" xmlns="http://www.w3.org/2000/svg">
    <title>
        icon_top_rated_24px
    </title>
    <g fill="#000" fill-rule="evenodd">
        <path d="M5.212 13.5l-3.066 3.065a.5.5 0 0 0 .283.849l3.589.512a.5.5 0 0 1 .424.425l.513 3.588a.5.5 0 0 0 .848.283l4.354-4.353 4.353 4.353a.5.5 0 0 0 .849-.283l.513-3.588a.5.5 0 0 1 .424-.425l3.588-.512a.5.5 0 0 0 .283-.849L19.102 13.5a8.49 8.49 0 0 1-6.945 3.598A8.49 8.49 0 0 1 5.212 13.5z"/>
        <path d="M12 13a4.5 4.5 0 1 0 0-9 4.5 4.5 0 0 0 0 9zm0 2a6.5 6.5 0 1 1 0-13 6.5 6.5 0 0 1 0 13z" fill-rule="nonzero"/>
    </g>
</svg>
