<svg width="24" height="24" viewBox="0 0 24 24" xmlns="http://www.w3.org/2000/svg">
    <title>
        icon_zoom-reset_24px
    </title>
    <g fill="none" fill-rule="evenodd">
        <path d="M15.5 14h-.8l-.3-.3c1-1.1 1.6-2.6 1.6-4.2C16 5.9 13.1 3 9.5 3S3 5.9 3 9.5 5.9 16 9.5 16c1.6 0 3.1-.6 4.2-1.6l.3.3v.8l5 5 1.5-1.5-5-5zm-6 0C7 14 5 12 5 9.5S7 5 9.5 5 14 7 14 9.5 12 14 9.5 14z" fill="#000"/>
        <path d="M0 0h24v24H0V0z"/>
        <path d="M11.6 8.1l-1.4 1.4 1.4 1.4-.7.7-1.4-1.4-1.4 1.4-.7-.7 1.4-1.4-1.4-1.4.7-.7 1.4 1.4 1.4-1.4.7.7z" fill="#000"/>
    </g>
</svg>
