<?xml version="1.0" encoding="utf-8"?>
<!-- Generator: Adobe Illustrator 18.1.1, SVG Export Plug-In . SVG Version: 6.00 Build 0)  -->
<svg version="1.1" id="Layer_1" xmlns="http://www.w3.org/2000/svg" xmlns:xlink="http://www.w3.org/1999/xlink" x="0px" y="0px"
	 viewBox="2 0 16 16" enable-background="new 2 0 16 16" xml:space="preserve">
<path fill="none" d="M2,0h16v16H2V0z"/>
<path d="M13.4,8c1,0,1.9-0.8,1.9-1.9s-0.8-1.9-1.9-1.9s-1.9,0.8-1.9,1.9S12.3,8,13.4,8z M7.8,7.2C9,7.2,10,6.2,10,5S9,2.8,7.8,2.8
	S5.5,3.8,5.5,5S6.5,7.2,7.8,7.2z M13.4,9.5c-1.4,0-4.1,0.7-4.1,2.1v1.7h8.2v-1.7C17.5,10.2,14.7,9.5,13.4,9.5z M7.8,8.8
	c-1.7,0-5.2,0.9-5.2,2.6v1.9h5.2v-1.7C7.8,10.9,8,9.8,9.5,9C8.9,8.8,8.2,8.8,7.8,8.8z"/>
</svg>
