<?xml version="1.0" encoding="UTF-8"?>
<svg width="24px" height="24px" viewBox="0 0 24 24" version="1.1" xmlns="http://www.w3.org/2000/svg" xmlns:xlink="http://www.w3.org/1999/xlink">
    <!-- Generator: Sketch 42 (36781) - http://www.bohemiancoding.com/sketch -->
    <title>icon_signature_24px</title>
    <desc>Created with Sketch.</desc>
    <defs></defs>
    <g id="Page-1" stroke="none" stroke-width="1" fill="none" fill-rule="evenodd">
        <g transform="translate(2.000000, 1.000000)">
            <path d="M5.5215,18.6765 C5.279,18.7215 5.159,18.6915 5.13733333,18.6606667 C4.909,18.3465 5.24066667,16.879 6.0015,15.409 L7.77483333,15.409 C7.13816667,17.1915 6.39316667,18.5173333 5.5215,18.6765 M8.6665,12.414 C8.47566667,13.1598333 8.27316667,13.8898333 8.05483333,14.5756667 L6.53066667,14.5756667 C7.05066667,13.8981667 7.8165,13.1306667 8.6665,12.414 M12.2256667,3.0865 C12.5698333,2.39816667 13.059,2.084 13.3665,2.084 C13.4923333,2.084 13.5298333,2.1365 13.5581667,2.1915 C13.7106667,2.49733333 13.6323333,3.46316667 12.3706667,5.14566667 C12.1715,5.41066667 11.8231667,5.69733333 11.3823333,5.984 C11.6731667,4.70066667 11.954,3.63233333 12.2256667,3.0865 M19.5831667,14.5756667 L9.36733333,14.5756667 C9.68983333,13.5198333 9.98066667,12.3773333 10.2481667,11.2098333 C10.9648333,10.7215 11.669,10.3223333 12.2731667,10.0823333 C12.7698333,9.88566667 13.0206667,9.8715 13.1156667,9.8715 C13.1456667,9.8715 13.1598333,9.874 13.1615,9.87066667 C13.1798333,9.9165 13.3623333,10.4873333 12.3115,12.5873333 C12.0765,13.0581667 12.1231667,13.404 12.4506667,13.6165 C12.9623333,13.9473333 13.1998333,13.659 14.0865,12.5773333 C14.6865,11.8448333 15.6898333,10.619 16.1881667,10.2823333 C16.7173333,9.92566667 17.0223333,9.91233333 17.0865,9.96566667 C17.2073333,10.0598333 17.3306667,10.6423333 16.9148333,11.754 C16.794,12.0781667 16.9598333,12.4373333 17.2815,12.559 C17.6073333,12.6815 17.9656667,12.514 18.0856667,12.1923333 C18.6415,10.7048333 18.5598333,9.534 17.8606667,8.98316667 C17.5181667,8.714 16.7556667,8.389 15.4873333,9.24733333 C15.189,9.449 14.8331667,9.79483333 14.434,10.2331667 C14.469,9.71233333 14.3531667,9.319 14.0873333,9.02983333 C13.4073333,8.28733333 12.2056667,8.76316667 11.8131667,8.91983333 C11.4548333,9.0615 11.054,9.2615 10.6256667,9.50733333 C10.7231667,9.05566667 10.8181667,8.60566667 10.914,8.15983333 C10.9515,7.98233333 10.9881667,7.8065 11.0248333,7.6315 C12.059,7.089 12.9365,6.47483333 13.3706667,5.89483333 C15.1648333,3.50316667 14.9581667,2.19733333 14.6756667,1.6315 C14.4265,1.1315 13.9373333,0.833166667 13.3673333,0.833166667 C12.4965,0.833166667 11.6306667,1.48233333 11.1081667,2.52733333 C10.699,3.3465 10.3306667,4.90733333 9.92816667,6.77733333 C8.45816667,7.4715 6.744,8.01566667 5.83316667,8.01566667 C5.48816667,8.01566667 5.20816667,8.29566667 5.20816667,8.64066667 C5.20816667,8.98566667 5.48816667,9.26566667 5.83316667,9.26566667 C6.7565,9.26566667 8.20566667,8.8715 9.60566667,8.29316667 C9.45983333,8.98483333 9.30066667,9.7265 9.129,10.4823333 C7.4565,11.6881667 5.764,13.284 5.0315,14.5756667 L0.4165,14.5756667 C0.187333333,14.5756667 -0.000166666667,14.7623333 -0.000166666667,14.9923333 C-0.000166666667,15.2223333 0.187333333,15.409 0.4165,15.409 L4.60983333,15.409 C4.109,16.5106667 3.41816667,18.4231667 4.1265,19.3965 C4.3215,19.664 4.67566667,19.9481667 5.3015,19.9481667 C5.43733333,19.9481667 5.58566667,19.9348333 5.74733333,19.9056667 C7.22483333,19.6331667 8.27316667,17.8265 9.09816667,15.4081667 L19.5831667,15.4081667 C19.8131667,15.4081667 19.9998333,15.2215 19.9998333,14.9915 C19.9998333,14.7615 19.8131667,14.5756667 19.5831667,14.5756667" id="Fill-1" fill="#000000"></path>
            <path d="M0.121916667,12.6860833 C0.203583333,12.7669167 0.31025,12.80775 0.416916667,12.80775 C0.52275,12.80775 0.629416667,12.7669167 0.711916667,12.6860833 L1.66691667,11.73025 L2.62191667,12.68525 C2.70358333,12.7669167 2.81025,12.80775 2.91691667,12.80775 C3.02275,12.80775 3.12941667,12.7669167 3.21191667,12.6860833 C3.37441667,12.5235833 3.37441667,12.2585833 3.21191667,12.0969167 L2.25608333,11.1410833 L3.21108333,10.1860833 C3.37275,10.0235833 3.37275,9.75858333 3.21108333,9.59691667 C3.04858333,9.43441667 2.78441667,9.43441667 2.62191667,9.59691667 L1.66691667,10.5510833 L0.711916667,9.59691667 C0.549416667,9.43441667 0.28525,9.43441667 0.12275,9.59691667 C-0.03975,9.75858333 -0.03975,10.0235833 0.12275,10.1860833 L1.07691667,11.1410833 L0.12275,12.0960833 C-0.0405833333,12.2585833 -0.0405833333,12.52275 0.121916667,12.6860833" id="Fill-4" fill="#000000"></path>
            <path d="M1,15 L19,15" id="Line" stroke="#000000" stroke-width="2" stroke-linecap="round"></path>
        </g>
    </g>
</svg>