<?xml version="1.0" encoding="UTF-8" standalone="no"?>
<svg width="24px" height="24px" viewBox="0 0 24 24" version="1.1" xmlns="http://www.w3.org/2000/svg" xmlns:xlink="http://www.w3.org/1999/xlink">
    <!-- Generator: Sketch 42 (36781) - http://www.bohemiancoding.com/sketch -->
    <title>icon_organization_24px</title>
    <desc>Created with Sketch.</desc>
    <defs></defs>
    <g id="Page-1" stroke="none" stroke-width="1" fill="none" fill-rule="evenodd">
        <path d="M16.4803387,3.93202423 L12,6.49221778 L7.51966128,3.93202423 L8.81184696,3.18598048 L12,5.00778222 L15.188153,3.18598048 L16.4803387,3.93202423 Z M18.2348665,4.94500134 L20.7272413,6.3839746 L21.2272413,6.67264973 L21.2272413,7.25 L21.2272413,16.75 L21.2272413,17.3273503 L20.7272413,17.6160254 L12.5,22.3660254 L12,22.6547005 L11.5,22.3660254 L3.27275866,17.6160254 L2.77275866,17.3273503 L2.77275866,16.75 L2.77275866,7.25 L2.77275866,6.67264973 L3.27275866,6.3839746 L5.76513346,4.94500134 L12,8.50778222 L18.2348665,4.94500134 Z M13.4336252,2.17300337 L12.5,1.6339746 L12,1.34529946 L11.5,1.6339746 L10.5663748,2.17300337 L12,2.99221778 L13.4336252,2.17300337 Z M4.77275866,12.2414209 L12,16.6229363 L19.2272417,12.2414207 L19.2272417,9.99554809 L12,14.3770637 L4.77275866,9.99554831 L4.77275866,12.2414209 Z M4.77275866,13.9955483 L4.77275866,16.1231694 L11.5000002,20.0695796 L12.5000002,20.0695796 L19.2272417,16.1231694 L19.2272417,13.9955481 L12,18.3770637 L4.77275866,13.9955483 Z M4.77275866,8.24142088 L12,12.6229363 L19.2272417,8.24142066 L19.2272417,7.81042476 L17.8002757,7.01983456 L12,10.5 L6.19972445,7.01983467 L4.77275866,7.81042476 L4.77275866,8.24142088 Z" id="Combined-Shape" fill="#000000"></path>
    </g>
</svg>