<?xml version="1.0" encoding="UTF-8"?>
<svg width="24px" height="24px" viewBox="0 0 24 24" version="1.1" xmlns="http://www.w3.org/2000/svg" xmlns:xlink="http://www.w3.org/1999/xlink">
    <!-- Generator: Sketch 42 (36781) - http://www.bohemiancoding.com/sketch -->
    <title>icon_rfa_round_24px</title>
    <desc>Created with Sketch.</desc>
    <defs></defs>
    <g id="Page-1" stroke="none" stroke-width="1" fill="none" fill-rule="evenodd">
        <g id="Group-2" fill="#000000">
            <path d="M12,24 C5.372583,24 0,18.627417 0,12 C0,5.372583 5.372583,0 12,0 C18.627417,0 24,5.372583 24,12 C24,18.627417 18.627417,24 12,24 Z M16.9449,18.50388 L16.9449,19.04288 L18.1699,19.04288 L18.1699,14.88888 C18.1619,14.14688 17.9289,13.62288 17.4719,13.31888 C17.0149,13.02188 16.4039,12.87688 15.6379,12.88488 C14.7319,12.86888 14.0469,13.16588 13.5819,13.77588 L14.5429,14.50788 C14.6479,14.33188 14.7929,14.20688 14.9759,14.13288 C15.1519,14.06988 15.3919,14.03888 15.6969,14.03888 C16.5369,14.02388 16.9529,14.28288 16.9449,14.81888 L16.9449,15.45688 L15.2519,15.45688 C14.6029,15.46488 14.1109,15.64088 13.7749,15.98488 C13.4389,16.31988 13.2709,16.74388 13.2709,17.25588 C13.2709,17.79088 13.4649,18.23088 13.8509,18.57388 C14.2179,18.92588 14.7419,19.10588 15.4219,19.11288 C15.8359,19.11288 16.1599,19.06288 16.3939,18.96088 C16.6329,18.86288 16.8079,18.71088 16.9219,18.50388 L16.9449,18.50388 Z M10.611,13.89258 L10.611,19.04258 L11.836,19.04258 L11.836,13.89258 L13.06,13.89258 L13.06,12.96058 L11.836,12.96058 L11.836,12.15858 C11.82,11.81058 11.996,11.64258 12.363,11.65458 L13.06,11.65458 L13.06,10.49958 L12.269,10.49958 C11.797,10.49958 11.404,10.62658 11.091,10.88058 C10.771,11.15458 10.611,11.57958 10.611,12.15858 L10.611,12.96058 L9.996,12.96058 L9.996,13.89258 L10.611,13.89258 Z M5.4996,12.96098 L5.4996,19.04298 L6.7246,19.04298 L6.7246,15.38098 C6.7316,14.93598 6.8606,14.61298 7.1106,14.41398 C7.3336,14.21098 7.6016,14.10898 7.9136,14.10898 C8.1906,14.10898 8.4586,14.21098 8.7166,14.41398 L9.6066,13.35398 C9.2436,13.04898 8.8176,12.89298 8.3296,12.88498 C7.6776,12.88498 7.1496,13.12498 6.7476,13.60598 L6.7246,13.60598 L6.7246,12.96098 L5.4996,12.96098 Z M12,4.19972649 L12,3.0006553 C11.9697687,3.00035201 11.9395018,3.0002 11.9092,3.0002 C6.9962,3.0002 3.0002,6.9962 3.0002,11.9092 C3.0002,11.9395018 3.00035201,11.9697687 3.0006553,12 L4.19972624,12 C4.19937573,11.9697743 4.1992,11.9395073 4.1992,11.9092 C4.1992,7.6582 7.6582,4.1992 11.9092,4.1992 C11.9395072,4.1992 11.9697742,4.19937582 12,4.19972649 Z M12,6.68991761 L12,5.49082062 C11.9752994,5.49054046 11.9505659,5.4904 11.9258,5.4904 C8.3768,5.4904 5.4898,8.3764 5.4898,11.9264 C5.4898,11.9509653 5.48993832,11.9754989 5.49021422,12 L6.6903094,12 C6.68997017,11.9755063 6.6898,11.9509726 6.6898,11.9264 C6.6898,9.0394 9.0388,6.6894 11.9258,6.6894 C11.9505734,6.6894 11.9753071,6.68957292 12,6.68991761 Z M12,9.20950413 L12,8.01004066 C11.9698157,8.00934815 11.9395478,8.009 11.9092,8.009 C9.7582,8.009 8.0082,9.758 8.0082,11.909 C8.0082,11.9394149 8.00854956,11.9697495 8.00924488,12 L9.20871078,12 C9.20770625,11.9697881 9.2072,11.9394521 9.2072,11.909 C9.2072,10.42 10.4192,9.208 11.9092,9.208 C11.9395849,9.208 11.9698542,9.20850402 12,9.20950413 Z M16.9449,16.46488 L16.9449,16.90388 C16.9449,17.36088 16.8489,17.65388 16.6579,17.78288 C16.4469,17.91188 16.0859,17.97288 15.5739,17.96488 C15.1679,17.96488 14.8769,17.88488 14.7009,17.72488 C14.5169,17.57988 14.4249,17.40388 14.4249,17.19688 C14.4179,16.72488 14.7689,16.48088 15.4799,16.46488 L16.9449,16.46488 Z" id="Combined-Shape"></path>
        </g>
    </g>
</svg>