<?xml version="1.0" encoding="UTF-8" standalone="no"?>
<svg width="24px" height="24px" viewBox="0 0 24 24" version="1.1" xmlns="http://www.w3.org/2000/svg" xmlns:xlink="http://www.w3.org/1999/xlink">
    <!-- Generator: Sketch 42 (36781) - http://www.bohemiancoding.com/sketch -->
    <title>icon_file_link_24px</title>
    <desc>Created with Sketch.</desc>
    <defs></defs>
    <g id="Page-1" stroke="none" stroke-width="1" fill="none" fill-rule="evenodd">
        <g id="icon_file_link_24px" transform="translate(4.000000, 2.000000)">
            <path d="M14,4.5 L14,18 L2,18 L2,2 L11.5,2 L14,4.5 Z M12,0 L2,0 C1,0 4.97518693e-15,1 5.32907052e-15,2 C5.56499291e-15,3 5.32907052e-15,18 5.32907052e-15,18 C5.32907052e-15,18 5.09314813e-15,20 2,20 C4,20 14,20 14,20 C14,20 16,20 16,18 C16,16 16,4 16,4 L16,3.6 L15.7,3.3 L12.7,0.3 L12.4,0 L12,0 Z" id="Shape" fill="#000000"></path>
            <g id="Group" transform="translate(4.000000, 6.000000)" stroke="#000000">
                <path d="M2.2,3.2 L4.8,0.6 C5.6,-0.2 6.8,-0.2 7.6,0.6 L7.8,0.8 C8.6,1.6 8.6,2.8 7.8,3.6 L5.2,6.2" id="Shape"></path>
                <path d="M6.2,5.2 L3.6,7.8 C2.8,8.6 1.6,8.6 0.8,7.8 L0.6,7.6 C-0.2,6.8 -0.2,5.6 0.6,4.8 L3.2,2.2" id="Shape"></path>
                <path d="M6.2,2.2 L2.18876578,6.21123422" id="Shape"></path>
            </g>
        </g>
    </g>
</svg>