<?xml version="1.0" encoding="UTF-8" standalone="no"?>
<svg width="24px" height="24px" viewBox="0 0 24 24" version="1.1" xmlns="http://www.w3.org/2000/svg" xmlns:xlink="http://www.w3.org/1999/xlink">
    <!-- Generator: Sketch 42 (36781) - http://www.bohemiancoding.com/sketch -->
    <title>icon_role_producer_group_24px</title>
    <desc>Created with Sketch.</desc>
    <defs></defs>
    <g id="Page-1" stroke="none" stroke-width="1" fill="none" fill-rule="evenodd">
        <g id="Group" transform="translate(1.000000, 1.000000)" fill="#000000">
            <path d="M5.5,22 C2,19 0,15.6199413 0,10.5437206 L0,5.45192308 L2.25,4.5 L2.25,10.1222455 C2.25,14.7158388 4.20212366,18.4564076 7.75,21 L5.5,22 Z" id="Combined-Shape" fill-rule="nonzero"></path>
            <path d="M4,4 L13,0 L22,4 L22,10 C22,15.55 18.16,20.74 13,22 C7.84,20.74 4,15.55 4,10 L4,4 Z M19.8428476,14.8489775 L14.8866268,9.89275668 C15.3768025,8.64008549 15.1044827,7.16955844 14.0696673,6.13474311 C12.980388,5.04546382 11.3464691,4.82760796 10.0393339,5.42671157 L12.3812844,7.76866205 L10.7473655,9.402581 L8.35095103,7.06063051 C7.69738345,8.36776567 7.96970327,10.0016846 9.05898257,11.0909639 C10.0937979,12.1257792 11.5643249,12.3980991 12.8169961,11.9079234 L17.7732169,16.8641442 C17.9910728,17.082 18.3178566,17.082 18.5357124,16.8641442 L19.7883836,15.611473 C20.0607035,15.3936171 20.0607035,15.0123694 19.8428476,14.8489775 Z" id="Combined-Shape"></path>
            <path d="M5.5,10 C5.5,14.7662497 8.72464787,19.2111911 13,20.4479342 C17.2753521,19.2111911 20.5,14.7662497 20.5,10 L20.5,4.97480963 L13,1.6414763 L5.5,4.97480963 L5.5,10 Z M4,4 L13,0 L22,4 L22,10 C22,15.55 18.16,20.74 13,22 C7.84,20.74 4,15.55 4,10 L4,4 Z" id="Combined-Shape" fill-rule="nonzero"></path>
        </g>
    </g>
</svg>