<?xml version="1.0" encoding="UTF-8"?>
<svg width="24px" height="24px" viewBox="0 0 24 24" version="1.1" xmlns="http://www.w3.org/2000/svg" xmlns:xlink="http://www.w3.org/1999/xlink">
    <!-- Generator: Sketch 42 (36781) - http://www.bohemiancoding.com/sketch -->
    <title>icon_logo-sci_24px</title>
    <desc>Created with Sketch.</desc>
    <defs></defs>
    <g id="Page-1" stroke="none" stroke-width="1" fill="none" fill-rule="evenodd">
        <g id="scienceai-logo-alt-submark-v1" transform="translate(0.000000, 11.000000)" fill-rule="nonzero" fill="#000000">
            <path d="M3.47838735,4.36720949 C3.47035023,4.16779577 3.38258369,3.97995896 3.23478261,3.8458498 C3.0395157,3.70935183 2.80456731,3.64130885 2.56657708,3.65233202 C2.37721344,3.64508744 2.18924528,3.68746857 2.02131225,3.77527273 C1.87469583,3.84024117 1.77855657,3.9837855 1.77429249,4.14409486 C1.77445978,4.30162695 1.87318921,4.44221401 2.02131225,4.4958419 C2.22448097,4.58354966 2.43675104,4.64845238 2.65422925,4.68935968 C2.90011067,4.74286166 3.18241897,4.7952253 3.46358893,4.84758893 C3.7437081,4.89863142 4.01559908,4.98747467 4.27181028,5.11168379 C4.51559385,5.22937206 4.73168719,5.39735845 4.90586561,5.60458498 C5.07926915,5.85653067 5.16487976,6.15856809 5.14947036,6.46403162 C5.14584509,6.61823356 5.12211921,6.77130375 5.07889328,6.91936759 C5.0202294,7.14365213 4.90544905,7.34931659 4.74535968,7.51699605 C4.53325121,7.73620561 4.28288034,7.9148215 4.00657708,8.04404743 C3.58612781,8.20624394 3.13773369,8.28361997 2.68724111,8.27171542 C2.4577875,8.27105736 2.22897699,8.24741361 2.00423715,8.20113834 C1.74021436,8.1624195 1.4846512,8.07928449 1.24837945,7.95525692 C0.996701584,7.8193962 0.775193156,7.63390226 0.597249012,7.40999209 C0.391244749,7.12947944 0.280356691,6.79043322 0.280790514,6.44240316 L1.79022925,6.44240316 C1.78761696,6.55995729 1.81798116,6.67589331 1.87788142,6.7770751 C1.92961084,6.86853105 2.00214446,6.94652419 2.08961265,7.00474308 C2.18382838,7.06238051 2.28378058,7.11006763 2.38785771,7.14703557 C2.49670728,7.1771653 2.60978983,7.18908897 2.72252964,7.18232411 C2.82225022,7.18518459 2.92203219,7.17947189 3.0207747,7.16524901 C3.11763712,7.14580107 3.21223899,7.11642871 3.303083,7.07759684 C3.38794487,7.03890889 3.46072576,6.97793031 3.51367589,6.90115415 C3.57323403,6.81972862 3.6040649,6.72082961 3.60132806,6.61998419 C3.59561426,6.46860831 3.49819491,6.33600975 3.35544664,6.28531225 C3.16175302,6.20949546 2.96177534,6.15083534 2.75781818,6.11000791 C2.51079842,6.05650593 2.264917,6.00414229 1.98374704,5.95177866 C1.71385893,5.90337428 1.45286945,5.81433081 1.20967589,5.68768379 C0.970824845,5.5719012 0.766378551,5.39570852 0.616600791,5.17656917 C0.44091174,4.91936268 0.3527021,4.61242507 0.365027668,4.30118577 C0.363294454,4.08400583 0.405500079,3.86871842 0.489106719,3.66826877 C0.578392164,3.45637448 0.710107563,3.26499975 0.876142292,3.10592885 C1.08137112,2.9254259 1.32053181,2.78765696 1.57963636,2.70067984 C1.91339022,2.58766078 2.26439241,2.53410501 2.61666403,2.54245059 C3.3201581,2.54245059 3.88363636,2.70067984 4.30482213,2.99778656 C4.7364808,3.30779842 4.99708846,3.80286864 5.00831621,4.33419763 L3.47838735,4.36720949 Z" id="Shape"></path>
            <path d="M9.05397628,4.74513834 C9.05693594,4.58262813 9.0271255,4.42118718 8.96632411,4.27045059 C8.92079957,4.16025041 8.84792685,4.06347857 8.75459289,3.98928063 C8.67012213,3.92383182 8.5739108,3.87514657 8.47114625,3.8458498 C8.37434426,3.81778562 8.27357963,3.80586309 8.17290119,3.81056126 C7.97088644,3.80029518 7.77104185,3.85625166 7.60373123,3.96992885 C7.46079993,4.07783488 7.35113107,4.22379703 7.28727273,4.39111462 C7.21388144,4.56501308 7.16632648,4.74871327 7.14611858,4.93637945 C7.12904348,5.12989723 7.11083004,5.32341502 7.11083004,5.50554941 C7.11119863,5.68859644 7.12911457,5.8711866 7.16433202,6.05081423 C7.19647647,6.22295189 7.25564207,6.38892292 7.33963636,6.54257708 C7.42137571,6.6791931 7.5288482,6.79864993 7.65609486,6.89432411 C8.02460087,7.11615943 8.49433745,7.07379103 8.81720158,6.78959684 C8.98308272,6.61138985 9.08239449,6.3814047 9.09837154,6.1384664 L10.5941502,6.19083004 C10.5431257,6.47715842 10.4543185,6.75544669 10.3300553,7.01840316 C10.2130006,7.26232903 10.0520967,7.48265541 9.85536759,7.66839526 C9.65497493,7.85944696 9.4147096,8.00368392 9.15187352,8.09071937 C8.84161256,8.20172057 8.5137422,8.25533702 8.18428458,8.24894862 C7.78710064,8.25660044 7.39237527,8.1850081 7.02317787,8.03835573 C6.70643343,7.91149469 6.42351105,7.71274756 6.19674308,7.45780237 C5.9726401,7.20073259 5.80198422,6.9016011 5.69473518,6.57786561 C5.57961662,6.20930996 5.52014734,5.82563721 5.51829249,5.43952569 C5.51147853,5.03377429 5.57107963,4.62964038 5.69473518,4.24313043 C5.8067087,3.90666458 5.98647267,3.5967267 6.2229249,3.3324585 C6.45519994,3.07946278 6.736336,2.87616191 7.04935968,2.73483004 C7.39951464,2.58698657 7.77696726,2.51483222 8.15696443,2.52309881 C8.5168341,2.51279741 8.87526218,2.57272875 9.21220553,2.6995415 C9.49054949,2.81123395 9.7465673,2.97201622 9.96806324,3.17422925 C10.1610047,3.37159258 10.3154259,3.60322444 10.4233992,3.8572332 C10.5334616,4.12041513 10.5988646,4.40010898 10.616917,4.68480632 L9.05397628,4.74513834 Z" id="Shape"></path>
            <path d="M11.2350356,2.66083794 L12.7478893,2.66083794 L12.7478893,8.07819763 L11.2350356,8.07819763 L11.2350356,2.66083794 Z M12.8856285,0.980648221 C12.8860888,1.33721659 12.6715907,1.65890967 12.3422524,1.79557524 C12.012914,1.9322408 11.633672,1.85693213 11.3815399,1.6048 C11.1294078,1.35266788 11.0540991,0.973425886 11.1907647,0.644087549 C11.3274302,0.314749212 11.6491233,0.100251077 12.0056917,0.100711462 C12.4914073,0.101338598 12.8850013,0.494932574 12.8856285,0.980648221 Z" id="Shape"></path>
            <path d="M13.4160949,7.33144664 C13.4138837,6.90090932 13.7163994,6.52888966 14.1383415,6.44326163 C14.5602835,6.3576336 14.9838886,6.58229583 15.149685,6.97963551 C15.3154814,7.37697518 15.1771957,7.83609547 14.8195322,8.07577047 C14.4618687,8.31544547 13.9846508,8.2687823 13.6801897,7.96436364 C13.5099629,7.79794012 13.4146447,7.56950518 13.4160949,7.33144664 Z" id="Shape"></path>
        </g>
    </g>
</svg>