<?xml version="1.0" encoding="UTF-8" standalone="no"?>
<svg width="24px" height="24px" viewBox="0 0 24 24" version="1.1" xmlns="http://www.w3.org/2000/svg" xmlns:xlink="http://www.w3.org/1999/xlink">
    <!-- Generator: Sketch 3.7 (28169) - http://www.bohemiancoding.com/sketch -->
    <title>icon_sifter_24px</title>
    <desc>Created with Sketch.</desc>
    <defs></defs>
    <g id="Page-1" stroke="none" stroke-width="1" fill="none" fill-rule="evenodd">
        <g id="icon_sifter_24px">
            <g id="Group">
                <path d="M11.4272727,23.8508475 C11.6181818,23.8644068 11.8090909,23.8779661 12,23.8779661 C12.1909091,23.8779661 12.3818182,23.8644068 12.5727273,23.8508475 C18.9272727,23.5525424 24,18.3186441 24,11.9322034 C24,5.3559322 18.6136364,0 12,0 C5.38636364,0 0,5.34237288 0,11.9322034 C0,18.3186441 5.07272727,23.5389831 11.4272727,23.8508475 L11.4272727,23.8508475 Z M19.3227273,18.4135593 C19.5272727,17.7355932 19.6363636,17.0169492 19.6363636,16.2711864 C19.6363636,12.0813559 16.2136364,8.6779661 12,8.6779661 C7.78636364,8.6779661 4.36363636,12.0813559 4.36363636,16.2711864 C4.36363636,17.0169492 4.47272727,17.7355932 4.67727273,18.4135593 C3.12272727,16.6915254 2.18181818,14.4135593 2.18181818,11.9322034 C2.18181818,6.54915254 6.58636364,2.16949153 12,2.16949153 C17.4136364,2.16949153 21.8181818,6.54915254 21.8181818,11.9322034 C21.8181818,14.4135593 20.8772727,16.6915254 19.3227273,18.4135593 L19.3227273,18.4135593 Z M12,21.6813559 C11.4681818,21.6813559 11.0045455,21.2881356 10.9227273,20.7728814 C10.8272727,20.1762712 11.2363636,19.620339 11.8227273,19.5254237 C11.8772727,19.5118644 11.9454545,19.5118644 12,19.5118644 C12.5318182,19.5118644 12.9954545,19.9050847 13.0772727,20.420339 C13.1181818,20.7050847 13.05,20.9898305 12.8863636,21.2338983 C12.7090909,21.4644068 12.4636364,21.6271186 12.1772727,21.6677966 C12.1090909,21.6813559 12.0545455,21.6813559 12,21.6813559 L12,21.6813559 Z M6.54545455,16.2711864 C6.54545455,13.2745763 8.98636364,10.8474576 12,10.8474576 C15.0136364,10.8474576 17.4545455,13.2745763 17.4545455,16.2711864 C17.4545455,18.0474576 16.5954545,19.620339 15.2727273,20.6101695 C15.2727273,20.4338983 15.2590909,20.2576271 15.2318182,20.0813559 C14.9727273,18.4949153 13.6227273,17.3423729 12,17.3423729 C11.8227273,17.3423729 11.6590909,17.3559322 11.4818182,17.3830508 C9.87272727,17.640678 8.71363636,19.0372881 8.72727273,20.6101695 C7.40454545,19.620339 6.54545455,18.0474576 6.54545455,16.2711864 L6.54545455,16.2711864 Z" id="Shape" fill="#B3B3B3"></path>
                <g id="asis" opacity="0.2" transform="translate(4.227273, 12.745763)" fill="#000000">
                    <path d="M0.968181818,0.0813559322 C0.9,0.501694915 0.859090909,0.922033898 0.859090909,1.3559322 C0.859090909,3.98644068 2.19545455,6.30508475 4.24090909,7.66101695 C4.32272727,7.72881356 4.40454545,7.79661017 4.5,7.86440678 C4.5,7.24067797 4.67727273,6.65762712 4.99090909,6.14237288 C5.16818182,7.43050847 6.10909091,8.47457627 7.32272727,8.84067797 C7.45909091,8.89491525 7.59545455,8.93559322 7.74545455,8.93559322 L7.78636364,8.93559322 L7.75909091,8.93559322 C4.85454545,8.93559322 2.23636364,7.67457627 0.436363636,5.66779661 C0.231818182,4.98983051 0.122727273,4.27118644 0.122727273,3.52542373 C0.136363636,2.29152542 0.436363636,1.11186441 0.968181818,0.0813559322 L0.968181818,0.0813559322 Z"></path>
                </g>
            </g>
        </g>
    </g>
</svg>