<?xml version="1.0" encoding="UTF-8" standalone="no"?>
<svg width="24px" height="24px" viewBox="0 0 24 24" version="1.1" xmlns="http://www.w3.org/2000/svg" xmlns:xlink="http://www.w3.org/1999/xlink">
    <!-- Generator: Sketch 42 (36781) - http://www.bohemiancoding.com/sketch -->
    <title>icon_manuscript-preview_24px</title>
    <desc>Created with Sketch.</desc>
    <defs></defs>
    <g id="Page-1" stroke="none" stroke-width="1" fill="none" fill-rule="evenodd">
        <path d="M19,6.5 L19,20 L7,20 L7,4 L16.5,4 L19,6.5 Z M17,2 L7,2 C6,2 5,3 5,4 C5,5 5,20 5,20 C5,20 5,22 7,22 C9,22 19,22 19,22 C19,22 21,22 21,20 C21,18 21,6 21,6 L21,5.6 L20.7,5.3 L17.7,2.3 L17.4,2 L17,2 Z" id="Shape" fill="#000000"></path>
        <g id="Group-3" transform="translate(7.000000, 4.000000)" fill="#000000">
            <path d="M2,0 L4,0 L4,2 L2,2 L2,0 Z M2,12 L4,12 L4,14 L2,14 L2,12 Z M2,8 L4,8 L4,10 L2,10 L2,8 Z M2,4 L4,4 L4,6 L2,6 L2,4 Z M0,10 L2,10 L2,12 L0,12 L0,10 Z M0,14 L2,14 L2,16 L0,16 L0,14 Z M0,6 L2,6 L2,8 L0,8 L0,6 Z M0,2 L2,2 L2,4 L0,4 L0,2 Z M4,10 L6,10 L6,12 L4,12 L4,10 Z M4,14 L6,14 L6,16 L4,16 L4,14 Z M4,6 L6,6 L6,8 L4,8 L4,6 Z M4,2 L6,2 L6,4 L4,4 L4,2 Z" id="Combined-Shape"></path>
        </g>
    </g>
</svg>