<?xml version="1.0" encoding="UTF-8" standalone="no"?>
<svg width="16px" height="16px" viewBox="0 0 16 16" version="1.1" xmlns="http://www.w3.org/2000/svg" xmlns:xlink="http://www.w3.org/1999/xlink">
    <!-- Generator: Sketch 3.7 (28169) - http://www.bohemiancoding.com/sketch -->
    <title>icon_publisher_16px</title>
    <desc>Created with Sketch.</desc>
    <defs></defs>
    <g id="Page-1" stroke="none" stroke-width="1" fill="none" fill-rule="evenodd">
        <g id="icon_publisher_16px">
            <g id="Group">
                <path d="M0,8 C0,12.4090909 3.59090909,16 8,16 C12.4090909,16 16,12.4090909 16,8 C16,3.59090909 12.4090909,0 8,0 C3.59090909,0 0,3.59090909 0,8 L0,8 Z M8,8.72727273 C7.6,8.72727273 7.27272727,8.4 7.27272727,8 C7.27272727,7.6 7.6,7.27272727 8,7.27272727 C8.4,7.27272727 8.72727273,7.6 8.72727273,8 C8.72727273,8.4 8.4,8.72727273 8,8.72727273 L8,8.72727273 Z M7.30909091,11.5636364 C5.67272727,11.2363636 4.36363636,9.76363636 4.36363636,8 C4.36363636,5.99090909 6,4.36363636 8,4.36363636 C10,4.36363636 11.6454545,5.99090909 11.6454545,8 C11.6454545,9.74545455 10.4,11.2090909 8.76363636,11.5545455 L8.76363636,10.0454545 C9.67272727,9.73636364 10.1818182,8.93636364 10.1818182,8 C10.1818182,6.8 9.2,5.81818182 8,5.81818182 C6.8,5.81818182 5.82727273,6.8 5.82727273,8 C5.82727273,8.95454545 6.49090909,9.77272727 7.30909091,10.0636364 L7.30909091,11.5636364 L7.30909091,11.5636364 Z M1.45454545,8 C1.45454545,4.39090909 4.39090909,1.45454545 8,1.45454545 C11.6090909,1.45454545 14.5545455,4.39090909 14.5545455,8 C14.5545455,11.3545455 12.0363636,14.1272727 8.76363636,14.5 L8.76363636,13.0363636 C11.2181818,12.6727273 13.0909091,10.5545455 13.0909091,8 C13.0909091,5.19090909 10.8090909,2.90909091 8,2.90909091 C5.19090909,2.90909091 2.91818182,5.19090909 2.91818182,8 C2.91818182,10.5636364 4.85454545,12.7 7.30909091,13.0454545 L7.30909091,14.5090909 C4.03636364,14.1545455 1.45454545,11.3727273 1.45454545,8 L1.45454545,8 Z" id="Shape" fill="#B3B3B3"></path>
                <path d="M8.76363636,11.5545455 C9.30909091,11.4454545 9.85454545,11.2090909 10.2181818,10.8818182 L10.2181818,12.5818182 C9.76363636,12.8 9.30909091,12.9545455 8.76363636,13.0272727 L8.76363636,11.5545455 L8.76363636,11.5545455 Z M8.76363636,15.9636364 C9.30909091,15.9181818 9.76363636,15.8272727 10.2181818,15.6909091 L10.2181818,14.1636364 C9.76363636,14.3272727 9.30909091,14.4454545 8.76363636,14.5 L8.76363636,15.9636364 L8.76363636,15.9636364 Z" id="Shape" fill="#000000" opacity="0.2"></path>
            </g>
        </g>
    </g>
</svg>