<?xml version="1.0" encoding="UTF-8" standalone="no"?>
<svg width="24px" height="24px" viewBox="0 0 24 24" version="1.1" xmlns="http://www.w3.org/2000/svg" xmlns:xlink="http://www.w3.org/1999/xlink">
    <!-- Generator: Sketch 3.6.1 (26313) - http://www.bohemiancoding.com/sketch -->
    <title>icon_feedback_outline_24px</title>
    <desc>Created with Sketch.</desc>
    <defs></defs>
    <g id="Page-1" stroke="none" stroke-width="1" fill="none" fill-rule="evenodd">
        <g id="icon_feedback_24px">
            <path d="M0,0 L24,0 L24,24 L0,24 L0,0 Z" id="Shape"></path>
            <path d="M4.58578644,18.5857864 L5.17157288,18 L6,18 L20,18 C19.9954305,18 20.0000002,4.00000001 20.0000002,4.00000001 C20.0000002,4.00456951 4.00111195,4.00000001 4.00111195,4.00000001 C4.01068819,4.00000001 4.00111207,19 4.00111207,19 L4.58578644,18.5857864 Z M20,2 C21.1,2 22,2.9 22,4 L22,18 C22,19.1 21.1,20 20,20 L6,20 L2,24 L2.01,4 C2.01,2.9 2.9,2 4,2 L20,2 Z" id="Shape" fill="#000000"></path>
            <path d="M13,15 L11,15 L11,13 L13,13 L13,15 L13,15 Z" id="Path" fill="#000000"></path>
            <path d="M13,11 L11,11 L11,7 L13,7 L13,11 L13,11 Z" id="Path" fill="#000000"></path>
        </g>
    </g>
</svg>