<?xml version="1.0" encoding="UTF-8" standalone="no"?>
<svg width="24px" height="24px" viewBox="0 0 24 24" version="1.1" xmlns="http://www.w3.org/2000/svg" xmlns:xlink="http://www.w3.org/1999/xlink">
    <!-- Generator: Sketch 42 (36781) - http://www.bohemiancoding.com/sketch -->
    <title>icon_role_editor_24px</title>
    <desc>Created with Sketch.</desc>
    <defs></defs>
    <g id="Page-1" stroke="none" stroke-width="1" fill="none" fill-rule="evenodd">
        <g id="icon_role_editor_24px" transform="translate(3.000000, 1.000000)" fill="#000000">
            <path d="M0,4 L9,0 L18,4 L18,10 C18,15.55 14.16,20.74 9,22 C3.84,20.74 0,15.55 0,10 L0,4 Z M2.99869667,15.3111509 L2.99869667,17.3111509 L9.78538722,17.3111509 L9.78538722,15.3111509 L2.99869667,15.3111509 Z M5.39948845,7.99849185 L13.3976033,15.9971722 L14.997,14.3977755 L7.00001631,6.39966067 L5.39948845,7.99849185 Z M9.39911141,4 L7.80028023,5.59826562 L10.9979426,8.79932133 L12.5984704,7.19879348 L9.39911141,4 Z M4.59639674,8.79875577 L2.997,10.3981525 L6.19635903,13.5975115 L7.79575577,11.9981148 L4.59639674,8.79875577 Z" id="Combined-Shape"></path>
            <path d="M1.5,10 C1.5,14.7662497 4.72464787,19.2111911 9,20.4479342 C13.2753521,19.2111911 16.5,14.7662497 16.5,10 L16.5,4.97480963 L9,1.6414763 L1.5,4.97480963 L1.5,10 Z M0,4 L9,0 L18,4 L18,10 C18,15.55 14.16,20.74 9,22 C3.84,20.74 0,15.55 0,10 L0,4 Z" id="Combined-Shape" fill-rule="nonzero"></path>
        </g>
    </g>
</svg>