<?xml version="1.0" encoding="UTF-8" standalone="no"?>
<svg width="24px" height="24px" viewBox="0 0 24 24" version="1.1" xmlns="http://www.w3.org/2000/svg" xmlns:xlink="http://www.w3.org/1999/xlink">
    <!-- Generator: Sketch 42 (36781) - http://www.bohemiancoding.com/sketch -->
    <title>icon_role_producer_24px</title>
    <desc>Created with Sketch.</desc>
    <defs></defs>
    <g id="Page-1" stroke="none" stroke-width="1" fill="none" fill-rule="evenodd">
        <g id="Group" transform="translate(3.000000, 1.000000)" fill="#000000">
            <path d="M0,4 L9,0 L18,4 L18,10 C18,15.55 14.16,20.74 9,22 C3.84,20.74 0,15.55 0,10 L0,4 Z M15.8428476,14.8489775 L10.8866268,9.89275668 C11.3768025,8.64008549 11.1044827,7.16955844 10.0696673,6.13474311 C8.98038803,5.04546382 7.34646909,4.82760796 6.03933394,5.42671157 L8.38128442,7.76866205 L6.74736548,9.402581 L4.35095103,7.06063051 C3.69738345,8.36776567 3.96970327,10.0016846 5.05898257,11.0909639 C6.0937979,12.1257792 7.56432495,12.3980991 8.81699614,11.9079234 L13.7732169,16.8641442 C13.9910728,17.082 14.3178566,17.082 14.5357124,16.8641442 L15.7883836,15.611473 C16.0607035,15.3936171 16.0607035,15.0123694 15.8428476,14.8489775 Z" id="Combined-Shape"></path>
            <path d="M1.5,10 C1.5,14.7662497 4.72464787,19.2111911 9,20.4479342 C13.2753521,19.2111911 16.5,14.7662497 16.5,10 L16.5,4.97480963 L9,1.6414763 L1.5,4.97480963 L1.5,10 Z M0,4 L9,0 L18,4 L18,10 C18,15.55 14.16,20.74 9,22 C3.84,20.74 0,15.55 0,10 L0,4 Z" id="shield" fill-rule="nonzero"></path>
        </g>
    </g>
</svg>