<?xml version="1.0" encoding="UTF-8" standalone="no"?>
<svg width="24px" height="24px" viewBox="0 0 24 24" version="1.1" xmlns="http://www.w3.org/2000/svg" xmlns:xlink="http://www.w3.org/1999/xlink">
    <!-- Generator: Sketch 3.7 (28169) - http://www.bohemiancoding.com/sketch -->
    <title>icon_move-to-top_24px</title>
    <desc>Created with Sketch.</desc>
    <defs></defs>
    <g id="Page-1" stroke="none" stroke-width="1" fill="none" fill-rule="evenodd">
        <g id="icon_move-to-top_24px" transform="translate(12.000000, 12.000000) rotate(-180.000000) translate(-12.000000, -12.000000) ">
            <path d="M14,5 L22,5 L22,7 L14,7 L14,5 Z M14,10.5 L22,10.5 L22,12.5 L14,12.5 L14,10.5 Z M14,16 L22,16 L22,18 L14,18 L14,16 Z M2,11.5 C2,15.08 4.92,18 8.5,18 L9,18 L9,20 L12,17 L9,14 L9,16 L8.5,16 C6.02,16 4,13.98 4,11.5 C4,9.02 6.02,7 8.5,7 L12,7 L12,5 L8.5,5 C4.92,5 2,7.92 2,11.5 L2,11.5 Z" id="Shape" fill="#000000"></path>
            <polygon id="Shape" points="0 0 24 0 24 24 0 24"></polygon>
        </g>
    </g>
</svg>