<?xml version="1.0" encoding="utf-8"?>
<!-- Generator: Adobe Illustrator 18.1.1, SVG Export Plug-In . SVG Version: 6.00 Build 0)  -->
<svg version="1.1" xmlns="http://www.w3.org/2000/svg" xmlns:xlink="http://www.w3.org/1999/xlink" x="0px" y="0px"
	 viewBox="0 0 16 16" enable-background="new 0 0 16 16" xml:space="preserve">
<g id="bg">
	<rect fill="none" width="16" height="16"/>
</g>
<g id="icon">
</g>
<g id="guides">
</g>
<g id="Layer_4">
	<path d="M15,7.6h-0.9c-0.2-1.3-1.3-2.4-2.6-2.4c-1.1,0-2,0.7-2.4,1.6C8.8,6.6,8.4,6.4,8,6.4c-0.4,0-0.8,0.2-1,0.4
		c-0.4-1-1.3-1.6-2.4-1.6c-1.4,0-2.5,1-2.6,2.4H1v0.7h0.9c0.2,1.3,1.3,2.4,2.6,2.4C6,10.8,7.2,9.5,7.2,8c0-0.5,0.4-0.8,0.8-0.8
		c0.4,0,0.8,0.4,0.8,0.8c0,1.5,1.2,2.8,2.7,2.8c1.4,0,2.5-1,2.6-2.4H15V7.6z M4.5,10c-1.1,0-2-0.9-2-2s0.9-2,2-2c1.1,0,2,0.9,2,2
		S5.6,10,4.5,10z M11.5,10c-1.1,0-2-0.9-2-2s0.9-2,2-2s2,0.9,2,2S12.5,10,11.5,10z"/>
</g>
</svg>
