<?xml version="1.0" encoding="UTF-8" standalone="no"?>
<svg width="24px" height="24px" viewBox="0 0 24 24" version="1.1" xmlns="http://www.w3.org/2000/svg" xmlns:xlink="http://www.w3.org/1999/xlink">
    <!-- Generator: Sketch 3.7 (28169) - http://www.bohemiancoding.com/sketch -->
    <title>icon_publisher_24px</title>
    <desc>Created with Sketch.</desc>
    <defs></defs>
    <g id="Page-1" stroke="none" stroke-width="1" fill="none" fill-rule="evenodd">
        <g id="icon_publisher_24px">
            <g id="Group">
                <path d="M0,12 C0,18.6136364 5.38636364,24 12,24 C18.6136364,24 24,18.6136364 24,12 C24,5.38636364 18.6136364,0 12,0 C5.38636364,0 0,5.38636364 0,12 L0,12 Z M12,13.0909091 C11.4,13.0909091 10.9090909,12.6 10.9090909,12 C10.9090909,11.4 11.4,10.9090909 12,10.9090909 C12.6,10.9090909 13.0909091,11.4 13.0909091,12 C13.0909091,12.6 12.6,13.0909091 12,13.0909091 L12,13.0909091 Z M10.9636364,17.3454545 C8.50909091,16.8545455 6.54545455,14.6454545 6.54545455,12 C6.54545455,8.98636364 9,6.54545455 12,6.54545455 C15,6.54545455 17.4681818,8.98636364 17.4681818,12 C17.4681818,14.6181818 15.6,16.8136364 13.1454545,17.3318182 L13.1454545,15.0681818 C14.5090909,14.6045455 15.2727273,13.4045455 15.2727273,12 C15.2727273,10.2 13.8,8.72727273 12,8.72727273 C10.2,8.72727273 8.74090909,10.2 8.74090909,12 C8.74090909,13.4318182 9.73636364,14.6590909 10.9636364,15.0954545 L10.9636364,17.3454545 L10.9636364,17.3454545 Z M2.18181818,12 C2.18181818,6.58636364 6.58636364,2.18181818 12,2.18181818 C17.4136364,2.18181818 21.8318182,6.58636364 21.8318182,12 C21.8318182,17.0318182 18.0545455,21.1909091 13.1454545,21.75 L13.1454545,19.5545455 C16.8272727,19.0090909 19.6363636,15.8318182 19.6363636,12 C19.6363636,7.78636364 16.2136364,4.36363636 12,4.36363636 C7.78636364,4.36363636 4.37727273,7.78636364 4.37727273,12 C4.37727273,15.8454545 7.28181818,19.05 10.9636364,19.5681818 L10.9636364,21.7636364 C6.05454545,21.2318182 2.18181818,17.0590909 2.18181818,12 L2.18181818,12 Z" id="Shape" fill="#B3B3B3"></path>
                <path d="M13.1454545,17.3318182 C13.9636364,17.1681818 14.7818182,16.8136364 15.3272727,16.3227273 L15.3272727,18.8727273 C14.6454545,19.2 13.9636364,19.4318182 13.1454545,19.5409091 L13.1454545,17.3318182 L13.1454545,17.3318182 Z M13.1454545,23.9454545 C13.9636364,23.8772727 14.6454545,23.7409091 15.3272727,23.5363636 L15.3272727,21.2454545 C14.6454545,21.4909091 13.9636364,21.6681818 13.1454545,21.75 L13.1454545,23.9454545 L13.1454545,23.9454545 Z" id="Shape" fill="#000000" opacity="0.2"></path>
            </g>
        </g>
    </g>
</svg>