<?xml version="1.0" encoding="UTF-8" standalone="no"?>
<svg width="16px" height="16px" viewBox="0 0 16 16" version="1.1" xmlns="http://www.w3.org/2000/svg" xmlns:xlink="http://www.w3.org/1999/xlink">
    <!-- Generator: Sketch 39.1 (31720) - http://www.bohemiancoding.com/sketch -->
    <title>icon_file_data_16px</title>
    <desc>Created with Sketch.</desc>
    <defs></defs>
    <g id="Page-1" stroke="none" stroke-width="1" fill="none" fill-rule="evenodd">
        <g id="icon_file_data_16px" transform="translate(2.000000, 0.000000)" fill="#000000">
            <path d="M9.5,1 L11,2.5 L11,14 L1,14 L1,1 L9.5,1 L9.5,1 Z M0,0 L0,15 L11.4,15 L12,15 L12,14.4 L12,2 L10,0 L0,0 L0,0 Z" id="Shape"></path>
            <rect id="Rectangle-1" x="3" y="4" width="6" height="2"></rect>
            <rect id="Rectangle-1-Copy-4" x="3" y="6" width="1" height="5"></rect>
            <rect id="Rectangle-1-Copy-5" x="8" y="6" width="1" height="5"></rect>
            <rect id="Rectangle-1-Copy-6" x="5.5" y="6" width="1" height="5"></rect>
            <rect id="Rectangle-1-Copy" x="3" y="7" width="6" height="1"></rect>
            <rect id="Rectangle-1-Copy-2" x="3" y="9" width="6" height="1"></rect>
            <rect id="Rectangle-1-Copy-3" x="3" y="11" width="6" height="1"></rect>
        </g>
    </g>
</svg>