<?xml version="1.0" encoding="UTF-8" standalone="no"?>
<svg width="16px" height="16px" viewBox="0 0 16 16" version="1.1" xmlns="http://www.w3.org/2000/svg" xmlns:xlink="http://www.w3.org/1999/xlink">
    <!-- Generator: Sketch 3.6.1 (26313) - http://www.bohemiancoding.com/sketch -->
    <title>icon_eye_16px</title>
    <desc>Created with Sketch.</desc>
    <defs></defs>
    <g id="Page-1" stroke="none" stroke-width="1" fill="none" fill-rule="evenodd">
        <g id="icon_eye_16px" transform="translate(0.000000, 2.500000)" fill="#000000">
            <path d="M8,1.2 C11,1.2 13.7,4 14.7,5.3 C13.7,6.5 11,9.4 8,9.4 C5,9.4 2.3,6.6 1.3,5.3 C2.3,4.1 5,1.2 8,1.2 L8,1.2 Z M8,0.2 C3.6,0.2 0,5.3 0,5.3 C0,5.3 3.6,10.4 8,10.4 C12.4,10.4 16,5.3 16,5.3 C16,5.3 12.4,0.2 8,0.2 L8,0.2 L8,0.2 Z" id="Shape"></path>
            <circle id="Oval" cx="8" cy="5" r="2.5"></circle>
        </g>
    </g>
</svg>