<?xml version="1.0" encoding="UTF-8"?>
<svg width="24px" height="24px" viewBox="0 0 24 24" version="1.1" xmlns="http://www.w3.org/2000/svg" xmlns:xlink="http://www.w3.org/1999/xlink">
    <!-- Generator: Sketch 42 (36781) - http://www.bohemiancoding.com/sketch -->
    <title>icon_logo-sci-alt_24px</title>
    <desc>Created with Sketch.</desc>
    <defs></defs>
    <g id="Page-1" stroke="none" stroke-width="1" fill="none" fill-rule="evenodd">
        <g id="scienceai-logo-alt-submark-v1" fill-rule="nonzero" fill="#000000">
            <path d="M3.47838735,15.3672095 C3.47035023,15.1677958 3.38258369,14.979959 3.23478261,14.8458498 C3.0395157,14.7093518 2.80456731,14.6413089 2.56657708,14.652332 C2.37721344,14.6450874 2.18924528,14.6874686 2.02131225,14.7752727 C1.87469583,14.8402412 1.77855657,14.9837855 1.77429249,15.1440949 C1.77445978,15.301627 1.87318921,15.442214 2.02131225,15.4958419 C2.22448097,15.5835497 2.43675104,15.6484524 2.65422925,15.6893597 C2.90011067,15.7428617 3.18241897,15.7952253 3.46358893,15.8475889 C3.7437081,15.8986314 4.01559908,15.9874747 4.27181028,16.1116838 C4.51559385,16.2293721 4.73168719,16.3973584 4.90586561,16.604585 C5.07926915,16.8565307 5.16487976,17.1585681 5.14947036,17.4640316 C5.14584509,17.6182336 5.12211921,17.7713037 5.07889328,17.9193676 C5.0202294,18.1436521 4.90544905,18.3493166 4.74535968,18.516996 C4.53325121,18.7362056 4.28288034,18.9148215 4.00657708,19.0440474 C3.58612781,19.2062439 3.13773369,19.28362 2.68724111,19.2717154 C2.4577875,19.2710574 2.22897699,19.2474136 2.00423715,19.2011383 C1.74021436,19.1624195 1.4846512,19.0792845 1.24837945,18.9552569 C0.996701584,18.8193962 0.775193156,18.6339023 0.597249012,18.4099921 C0.391244749,18.1294794 0.280356691,17.7904332 0.280790514,17.4424032 L1.79022925,17.4424032 C1.78761696,17.5599573 1.81798116,17.6758933 1.87788142,17.7770751 C1.92961084,17.868531 2.00214446,17.9465242 2.08961265,18.0047431 C2.18382838,18.0623805 2.28378058,18.1100676 2.38785771,18.1470356 C2.49670728,18.1771653 2.60978983,18.189089 2.72252964,18.1823241 C2.82225022,18.1851846 2.92203219,18.1794719 3.0207747,18.165249 C3.11763712,18.1458011 3.21223899,18.1164287 3.303083,18.0775968 C3.38794487,18.0389089 3.46072576,17.9779303 3.51367589,17.9011542 C3.57323403,17.8197286 3.6040649,17.7208296 3.60132806,17.6199842 C3.59561426,17.4686083 3.49819491,17.3360097 3.35544664,17.2853123 C3.16175302,17.2094955 2.96177534,17.1508353 2.75781818,17.1100079 C2.51079842,17.0565059 2.264917,17.0041423 1.98374704,16.9517787 C1.71385893,16.9033743 1.45286945,16.8143308 1.20967589,16.6876838 C0.970824845,16.5719012 0.766378551,16.3957085 0.616600791,16.1765692 C0.44091174,15.9193627 0.3527021,15.6124251 0.365027668,15.3011858 C0.363294454,15.0840058 0.405500079,14.8687184 0.489106719,14.6682688 C0.578392164,14.4563745 0.710107563,14.2649998 0.876142292,14.1059289 C1.08137112,13.9254259 1.32053181,13.787657 1.57963636,13.7006798 C1.91339022,13.5876608 2.26439241,13.534105 2.61666403,13.5424506 C3.3201581,13.5424506 3.88363636,13.7006798 4.30482213,13.9977866 C4.7364808,14.3077984 4.99708846,14.8028686 5.00831621,15.3341976 L3.47838735,15.3672095 Z" id="Shape"></path>
            <path d="M9.05397628,15.7451383 C9.05693594,15.5826281 9.0271255,15.4211872 8.96632411,15.2704506 C8.92079957,15.1602504 8.84792685,15.0634786 8.75459289,14.9892806 C8.67012213,14.9238318 8.5739108,14.8751466 8.47114625,14.8458498 C8.37434426,14.8177856 8.27357963,14.8058631 8.17290119,14.8105613 C7.97088644,14.8002952 7.77104185,14.8562517 7.60373123,14.9699289 C7.46079993,15.0778349 7.35113107,15.223797 7.28727273,15.3911146 C7.21388144,15.5650131 7.16632648,15.7487133 7.14611858,15.9363794 C7.12904348,16.1298972 7.11083004,16.323415 7.11083004,16.5055494 C7.11119863,16.6885964 7.12911457,16.8711866 7.16433202,17.0508142 C7.19647647,17.2229519 7.25564207,17.3889229 7.33963636,17.5425771 C7.42137571,17.6791931 7.5288482,17.7986499 7.65609486,17.8943241 C8.02460087,18.1161594 8.49433745,18.073791 8.81720158,17.7895968 C8.98308272,17.6113898 9.08239449,17.3814047 9.09837154,17.1384664 L10.5941502,17.19083 C10.5431257,17.4771584 10.4543185,17.7554467 10.3300553,18.0184032 C10.2130006,18.262329 10.0520967,18.4826554 9.85536759,18.6683953 C9.65497493,18.859447 9.4147096,19.0036839 9.15187352,19.0907194 C8.84161256,19.2017206 8.5137422,19.255337 8.18428458,19.2489486 C7.78710064,19.2566004 7.39237527,19.1850081 7.02317787,19.0383557 C6.70643343,18.9114947 6.42351105,18.7127476 6.19674308,18.4578024 C5.9726401,18.2007326 5.80198422,17.9016011 5.69473518,17.5778656 C5.57961662,17.20931 5.52014734,16.8256372 5.51829249,16.4395257 C5.51147853,16.0337743 5.57107963,15.6296404 5.69473518,15.2431304 C5.8067087,14.9066646 5.98647267,14.5967267 6.2229249,14.3324585 C6.45519994,14.0794628 6.736336,13.8761619 7.04935968,13.73483 C7.39951464,13.5869866 7.77696726,13.5148322 8.15696443,13.5230988 C8.5168341,13.5127974 8.87526218,13.5727288 9.21220553,13.6995415 C9.49054949,13.811234 9.7465673,13.9720162 9.96806324,14.1742292 C10.1610047,14.3715926 10.3154259,14.6032244 10.4233992,14.8572332 C10.5334616,15.1204151 10.5988646,15.400109 10.616917,15.6848063 L9.05397628,15.7451383 Z" id="Shape"></path>
            <path d="M11.2350356,13.6608379 L12.7478893,13.6608379 L12.7478893,19.0781976 L11.2350356,19.0781976 L11.2350356,13.6608379 Z M12.8856285,11.9806482 C12.8860888,12.3372166 12.6715907,12.6589097 12.3422524,12.7955752 C12.012914,12.9322408 11.633672,12.8569321 11.3815399,12.6048 C11.1294078,12.3526679 11.0540991,11.9734259 11.1907647,11.6440875 C11.3274302,11.3147492 11.6491233,11.1002511 12.0056917,11.1007115 C12.4914073,11.1013386 12.8850013,11.4949326 12.8856285,11.9806482 Z" id="Shape"></path>
            <path d="M13.4160949,18.3314466 C13.4138837,17.9009093 13.7163994,17.5288897 14.1383415,17.4432616 C14.5602835,17.3576336 14.9838886,17.5822958 15.149685,17.9796355 C15.3154814,18.3769752 15.1771957,18.8360955 14.8195322,19.0757705 C14.4618687,19.3154455 13.9846508,19.2687823 13.6801897,18.9643636 C13.5099629,18.7979401 13.4146447,18.5695052 13.4160949,18.3314466 Z" id="Shape"></path>
            <path d="M12,7.29068775 C9.38004109,7.29319789 7.25677101,9.41646797 7.25426087,12.0364269 L7.25426087,12.1195257 L8.84793676,12.1195257 L8.84793676,12.0364269 C8.84793676,10.2955904 10.2591635,8.88436364 12,8.88436364 C13.7408365,8.88436364 15.1520632,10.2955904 15.1520632,12.0364269 L15.1520632,12.1195257 L16.7457391,12.1195257 L16.7457391,12.0364269 C16.743229,9.41646797 14.6199589,7.29319789 12,7.29068775 L12,7.29068775 Z" id="Shape"></path>
            <path d="M12,3.79712253 C7.4507493,3.80088674 3.76344005,7.48717739 3.75841897,12.0364269 L3.75841897,12.1195257 L5.35209486,12.1195257 L5.35209486,12.0364269 C5.35209486,8.36614763 8.32744407,5.39079842 11.9977233,5.39079842 C15.6680026,5.39079842 18.6433518,8.36614763 18.6433518,12.0364269 L18.6433518,12.1195257 L20.2370277,12.1195257 L20.2370277,12.0364269 C20.2320113,7.48895281 16.5474725,3.80339561 12,3.79712253 L12,3.79712253 Z" id="Shape"></path>
            <path d="M12,0.305833992 C5.52671585,0.316496094 0.282619307,5.56313831 0.275098814,12.0364269 L0.275098814,12.1195257 L1.8687747,12.1195257 L1.8687747,12.0364269 C1.8687747,6.43796221 6.40722703,1.89950988 12.0056917,1.89950988 C17.6041564,1.89950988 22.1426087,6.43796221 22.1426087,12.0364269 L22.1426087,12.1195257 L23.7362846,12.1195257 L23.7362846,12.0364269 C23.7287516,5.55870012 18.4777296,0.3102247 12,0.305833992 L12,0.305833992 Z" id="Shape"></path>
        </g>
    </g>
</svg>