<?xml version="1.0" encoding="utf-8"?>
<!-- Generator: Adobe Illustrator 18.1.1, SVG Export Plug-In . SVG Version: 6.00 Build 0)  -->
<svg version="1.1" id="Layer_1" xmlns="http://www.w3.org/2000/svg" xmlns:xlink="http://www.w3.org/1999/xlink" x="0px" y="0px"
	 viewBox="2 0 16 16" enable-background="new 2 0 16 16" xml:space="preserve">
<path fill="none" d="M2,0h16v16H2V0z M2,0h16v16H2V0z"/>
<path d="M13.8,9.5h-0.6L13,9.3c0.7-0.9,1.2-2,1.2-3.2c0-2.7-2.2-4.9-4.9-4.9S4.4,3.5,4.4,6.1H2.5l2.9,3l3.1-3H5.9
	c0-1.9,1.5-3.4,3.4-3.4s3.4,1.5,3.4,3.4c0,1.9-1.5,3.4-3.4,3.4c-0.5,0-0.9-0.1-1.4-0.3l-1.1,1.1C7.5,10.8,8.4,11,9.3,11
	c1.2,0,2.3-0.4,3.2-1.2l0.2,0.2v0.6l3.8,3.7l1.1-1.1L13.8,9.5z"/>
</svg>
