<?xml version="1.0" encoding="UTF-8" standalone="no"?>
<svg width="24px" height="24px" viewBox="0 0 24 24" version="1.1" xmlns="http://www.w3.org/2000/svg" xmlns:xlink="http://www.w3.org/1999/xlink">
    <!-- Generator: Sketch 42 (36781) - http://www.bohemiancoding.com/sketch -->
    <title>icon_ds3_24px</title>
    <desc>Created with Sketch.</desc>
    <defs></defs>
    <g id="Page-1" stroke="none" stroke-width="1" fill="none" fill-rule="evenodd">
        <polyline id="Path" stroke="#000000" stroke-width="1.5" points="4 8 4 4 8 4"></polyline>
        <polyline id="Path" stroke="#000000" stroke-width="1.5" transform="translate(18.250000, 18.250000) rotate(-180.000000) translate(-18.250000, -18.250000) " points="16.25 20.25 16.25 16.25 20.25 16.25"></polyline>
        <path d="M8.42458704,12.1899698 C8.42458704,13.4525878 8.48587918,14.8500485 7.54198025,15.7939475 C6.99035101,16.3455767 6.19355322,16.6152621 5.28642958,16.6152621 L2.22182268,16.6152621 L2.22182268,7.88726167 L5.28642958,7.88726167 C6.19355322,7.88726167 6.99035101,8.15694708 7.54198025,8.70857632 C8.48587918,9.65247524 8.42458704,10.9273517 8.42458704,12.1899698 Z M7.10067686,12.1899698 C7.10067686,10.9886438 7.08841843,10.1673292 6.63485661,9.66473367 C6.26710379,9.26020556 5.77676668,9.07632915 5.15158688,9.07632915 L3.54573286,9.07632915 L3.54573286,15.4261946 L5.15158688,15.4261946 C5.77676668,15.4261946 6.26710379,15.2423182 6.63485661,14.8377901 C7.08841843,14.3351946 7.10067686,13.3912957 7.10067686,12.1899698 Z M15.5623351,14.1268013 C15.5623351,13.3790372 15.329425,12.7538574 14.8513463,12.3370709 C14.4835935,12.0060933 14.0300317,11.8099585 13.2209754,11.6873742 L12.2280428,11.5402731 C11.8235147,11.478981 11.4680203,11.3318798 11.2473686,11.135745 C11.0144585,10.9273517 10.916391,10.6454079 10.916391,10.3266888 C10.916391,9.55440782 11.4802787,8.9660033 12.5099866,8.9660033 C13.2454923,8.9660033 13.8706721,9.12536286 14.4100429,9.64021681 L15.2558744,8.80664374 C14.5081103,8.10791337 13.6990541,7.8137111 12.5467619,7.8137111 C10.7325146,7.8137111 9.62925615,8.85567745 9.62925615,10.3757225 C9.62925615,11.0867113 9.83764942,11.6383405 10.2666944,12.0428686 C10.6467056,12.398363 11.2105933,12.6435316 11.9215821,12.741599 L12.95129,12.8887001 C13.466144,12.9622507 13.6867957,13.0480597 13.9074474,13.256453 C14.1403575,13.4648462 14.2506834,13.7835653 14.2506834,14.1635766 C14.2506834,15.0094081 13.5887283,15.4997452 12.4486945,15.4997452 C11.5538293,15.4997452 10.8550989,15.3036104 10.2176607,14.6661721 L9.33505389,15.5365205 C10.168627,16.382352 11.1125259,16.6888127 12.4241776,16.6888127 C14.2506834,16.6888127 15.5623351,15.7326553 15.5623351,14.1268013 Z M21.7807011,14.1635766 C21.7807011,13.084835 21.3026224,12.4351383 20.5548583,12.1041608 C21.2290719,11.7731832 21.6458584,11.1725203 21.6458584,10.2408798 C21.6458584,8.79438531 20.5916336,7.80145268 19.1083639,7.80145268 C17.7109031,7.80145268 16.6199031,8.69631789 16.5463525,10.1795876 L17.7967121,10.1795876 C17.8580043,9.40730669 18.3483414,8.92922801 19.1083639,8.92922801 C19.8193527,8.92922801 20.3954988,9.39504826 20.3954988,10.277655 C20.3954988,11.0744528 19.9787122,11.6015652 19.0715886,11.6015652 L18.8631953,11.6015652 L18.8631953,12.6925653 L19.0715886,12.6925653 C20.0522628,12.6925653 20.5303415,13.2441945 20.5303415,14.1268013 C20.5303415,15.0461834 19.9174201,15.5732958 19.1083639,15.5732958 C18.3851167,15.5732958 17.73542,15.1810261 17.6863863,14.2493856 L16.4360267,14.2493856 C16.4850604,15.953307 17.7109031,16.7010711 19.1083639,16.7010711 C20.5671168,16.7010711 21.7807011,15.8429812 21.7807011,14.1635766 Z" id="DS3" fill="#000000" transform="translate(12.001262, 12.251262) rotate(-45.000000) translate(-12.001262, -12.251262) "></path>
    </g>
</svg>