<?xml version="1.0" encoding="UTF-8"?>
<svg width="24px" height="24px" viewBox="0 0 24 24" version="1.1" xmlns="http://www.w3.org/2000/svg" xmlns:xlink="http://www.w3.org/1999/xlink">
    <!-- Generator: Sketch 42 (36781) - http://www.bohemiancoding.com/sketch -->
    <title>icon_version_future_24px</title>
    <desc>Created with Sketch.</desc>
    <defs></defs>
    <g id="Page-1" stroke="none" stroke-width="1" fill="none" fill-rule="evenodd">
        <g id="Group" transform="translate(3.000000, 3.000000)" fill-rule="nonzero" fill="#000000">
            <path d="M12,0 C7.03,0 3,4.03 3,9 L0,9 L3.89,12.89 L3.96,13.03 L8,9 L5,9 C5,5.13 8.13,2 12,2 C15.87,2 19,5.13 19,9 C19,12.87 15.87,16 12,16 C10.07,16 8.32,15.21 7.06,13.94 L5.64,15.36 C7.27,16.99 9.51,18 12,18 C16.97,18 21,13.97 21,9 C21,4.03 16.97,0 12,0 Z" id="Shape" transform="translate(10.500000, 9.000000) scale(-1, 1) translate(-10.500000, -9.000000) "></path>
            <polygon id="Path-2" points="6.56944245 6.59585543 5.43055755 7.57204249 8.96402187 11.6944175 12.5694425 7.48809353 11.4305575 6.51190647 8.96402187 9.38953142"></polygon>
        </g>
    </g>
</svg>