<?xml version="1.0" encoding="UTF-8" standalone="no"?>
<svg width="24px" height="24px" viewBox="0 0 24 24" version="1.1" xmlns="http://www.w3.org/2000/svg" xmlns:xlink="http://www.w3.org/1999/xlink">
    <!-- Generator: Sketch 42 (36781) - http://www.bohemiancoding.com/sketch -->
    <title>icon_person_warning_24px</title>
    <desc>Created with Sketch.</desc>
    <defs></defs>
    <g id="Page-1" stroke="none" stroke-width="1" fill="none" fill-rule="evenodd">
        <g id="Layer_1" fill="#000000">
            <g id="Group" transform="translate(3.000000, 1.000000)">
                <path d="M9,22 C5.25,22 1.875,20.3223684 0,17.6381579 C0,14.9539474 6,13.5 9,13.5 C12,13.5 18,14.9539474 18,17.6381579 C16.125,20.3223684 12.75,22 9,22 Z M9,0 C12.3333333,0 15,2.66666667 15,6 C15,9.33333333 12.3333333,12 9,12 C5.66666667,12 3,9.33333333 3,6 C3,2.66666667 5.66666667,0 9,0 Z M8,2 L8,7 L10,7 L10,2 L8,2 Z M8,8.50468445 C8,8.22595492 8.21403503,8 8.50468445,8 L9.49531555,8 C9.77404508,8 10,8.21403503 10,8.50468445 L10,9.49531555 C10,9.77404508 9.78596497,10 9.49531555,10 L8.50468445,10 C8.22595492,10 8,9.78596497 8,9.49531555 L8,8.50468445 Z" id="Combined-Shape"></path>
            </g>
        </g>
    </g>
</svg>