<?xml version="1.0" encoding="utf-8"?>
<!-- Generator: Adobe Illustrator 18.1.1, SVG Export Plug-In . SVG Version: 6.00 Build 0)  -->
<svg version="1.1" id="Layer_1" xmlns="http://www.w3.org/2000/svg" xmlns:xlink="http://www.w3.org/1999/xlink" x="0px" y="0px"
	 viewBox="2 0 16 16" enable-background="new 2 0 16 16" xml:space="preserve">
<path d="M10,0.5C5.9,0.5,2.5,3.9,2.5,8s3.4,7.5,7.5,7.5c4.1,0,7.5-3.4,7.5-7.5S14.1,0.5,10,0.5z M10,14c-3.3,0-6-2.7-6-6s2.7-6,6-6
	s6,2.7,6,6S13.3,14,10,14z"/>
<path fill="none" d="M2,0h16v16H2V0z"/>
<path d="M10.4,4.2H9.2v4.5l3.9,2.4l0.6-0.9l-3.4-2V4.2z"/>
</svg>
