<?xml version="1.0" encoding="UTF-8" standalone="no"?>
<svg width="16px" height="16px" viewBox="0 0 16 16" version="1.1" xmlns="http://www.w3.org/2000/svg" xmlns:xlink="http://www.w3.org/1999/xlink">
    <!-- Generator: Sketch 3.6.1 (26313) - http://www.bohemiancoding.com/sketch -->
    <title>icon_gear_16px</title>
    <desc>Created with Sketch.</desc>
    <defs></defs>
    <g id="Page-1" stroke="none" stroke-width="1" fill="none" fill-rule="evenodd">
        <g id="icon_gear_16px">
            <path d="M0,0 L16,0 L16,16 L0,16 L0,0 L0,0 Z" id="Shape"></path>
            <path d="M13.6,8.7 C13.6,8.5 13.7,8.2 13.7,8 C13.7,7.7 13.7,7.5 13.6,7.3 L15.2,6 C15.3,5.9 15.4,5.7 15.3,5.5 L13.7,3 C13.6,2.8 13.4,2.8 13.2,2.8 L11.3,3.6 C11,3.2 10.6,3 10.2,2.8 L9.9,0.8 C9.9,0.6 9.7,0.5 9.5,0.5 L6.5,0.5 C6.3,0.5 6.2,0.6 6.1,0.8 L5.8,2.8 C5.4,3 5,3.2 4.6,3.5 L2.7,2.8 C2.5,2.7 2.3,2.8 2.3,3 L0.8,5.5 C0.7,5.7 0.7,5.9 0.8,6 L2.4,7.2 C2.4,7.4 2.3,7.7 2.3,7.9 C2.3,8.1 2.3,8.4 2.4,8.6 L0.8,10 C0.7,10.1 0.7,10.3 0.8,10.5 L2.3,13 C2.4,13.2 2.6,13.2 2.8,13.2 L4.7,12.4 C5,12.8 5.4,13 5.8,13.2 L6.1,15.2 C6.1,15.4 6.3,15.5 6.5,15.5 L9.5,15.5 C9.7,15.5 9.8,15.4 9.9,15.2 L10.2,13.2 C10.7,13 11.1,12.8 11.5,12.5 L13.4,13.3 C13.6,13.4 13.8,13.3 13.9,13.1 L15.4,10.5 C15.5,10.3 15.5,10.1 15.3,10 L13.6,8.7 L13.6,8.7 Z M8,10.6 C6.6,10.6 5.4,9.4 5.4,8 C5.4,6.6 6.6,5.4 8,5.4 C9.4,5.4 10.6,6.6 10.6,8 C10.6,9.4 9.4,10.6 8,10.6 L8,10.6 Z" id="Shape" fill="#000000"></path>
        </g>
    </g>
</svg>