<?xml version="1.0" encoding="UTF-8" standalone="no"?>
<svg width="16px" height="16px" viewBox="0 0 16 16" version="1.1" xmlns="http://www.w3.org/2000/svg" xmlns:xlink="http://www.w3.org/1999/xlink">
    <!-- Generator: Sketch 41 (35326) - http://www.bohemiancoding.com/sketch -->
    <title>icon_formula_16px</title>
    <desc>Created with Sketch.</desc>
    <defs></defs>
    <g id="Page-1" stroke="none" stroke-width="1" fill="none" fill-rule="evenodd">
        <g id="icon_file_data_16px" transform="translate(2.000000, 0.000000)" fill="#000000">
            <path d="M9.5,1 L11,2.5 L11,14 L1,14 L1,1 L9.5,1 L9.5,1 Z M0,0 L0,15 L11.4,15 L12,15 L12,14.4 L12,2 L10,0 L0,0 L0,0 Z" id="Shape"></path>
        </g>
        <polygon id="Shape" fill="#000000" points="11 3 5 3 5 4.5 8.375 7.5 5 10.5 5 12 11 12 11 10.5 6.875 10.5 10.2987061 7.5 6.875 4.5 11 4.5"></polygon>
    </g>
</svg>