<?xml version="1.0" encoding="UTF-8" standalone="no"?>
<svg width="16px" height="16px" viewBox="0 0 16 16" version="1.1" xmlns="http://www.w3.org/2000/svg" xmlns:xlink="http://www.w3.org/1999/xlink">
    <!-- Generator: Sketch 39.1 (31720) - http://www.bohemiancoding.com/sketch -->
    <title>icon_file_audio_16px</title>
    <desc>Created with Sketch.</desc>
    <defs></defs>
    <g id="Page-1" stroke="none" stroke-width="1" fill="none" fill-rule="evenodd">
        <g id="icon_file_audio_16px" transform="translate(2.000000, 0.000000)" fill="#000000">
            <path d="M9.5,1 L11,2.5 L11,14 L1,14 L1,1 L9.5,1 L9.5,1 Z M0,0 L0,15 L11.4,15 L12,15 L12,14.4 L12,2 L10,0 L0,0 L0,0 Z" id="Shape"></path>
            <path d="M2,9.04772949 L4,9.04772949 L6,11.1111111 L6,4 L4,6.03808594 L2,6.03808594 L2,9.04772949 Z M8,7.50186335 C8,6.84223602 7.592,6.2757764 7,6 L7,9 C7.592,8.72795031 8,8.16149068 8,7.50186335 L8,7.50186335 Z M7,3.5 L7,4.4395667 C8.2390303,4.831813 9.14365104,6.05416192 9.14365104,7.5 C9.14365104,8.94583808 8.2390303,10.168187 7,10.5604333 L7,11.5 C8.71920813,11.0849487 10.0011115,9.45210946 10.0011115,7.5 C10.0011115,5.54789054 8.71920813,3.91505131 7,3.5 L7,3.5 Z" id="Shape"></path>
        </g>
    </g>
</svg>