<?xml version="1.0" encoding="UTF-8"?>
<svg width="24px" height="24px" viewBox="0 0 24 24" version="1.1" xmlns="http://www.w3.org/2000/svg" xmlns:xlink="http://www.w3.org/1999/xlink">
    <!-- Generator: Sketch 42 (36781) - http://www.bohemiancoding.com/sketch -->
    <title>icon_anchor_24px</title>
    <desc>Created with Sketch.</desc>
    <defs></defs>
    <g id="Page-1" stroke="none" stroke-width="1" fill="none" fill-rule="evenodd">
        <g id="24" transform="translate(4.500000, 3.000000)" fill="#000000">
            <path d="M14.9297324,6.99744727 L12.0798732,6.99744727 L7.41949174,2.40638265 L2.82842712,6.99744727 L1.33226763e-15,6.99744727 L7.05313662,-0.0556893524 C7.24963885,-0.252191585 7.57427618,-0.248606544 7.77073193,-0.0550728039 L14.9297324,6.99744727 Z M14.9102252,10.9974473 L7.85450103,18.0531714 C7.65651281,18.2511597 7.33190046,18.2475496 7.13690572,18.0525549 L0.081798085,10.9974473 L2.91022521,10.9974473 L7.49601165,15.5832337 L12.0817981,10.9974473 L14.9102252,10.9974473 Z M9.49178907,6.99744727 L5.46159267,6.99744727 L7.46159267,4.99744727 L9.49178907,6.99744727 Z M9.50249172,10.9974473 L7.50249172,12.9974473 L5.50249172,10.9974473 L9.50249172,10.9974473 Z" id="Combined-Shape"></path>
        </g>
    </g>
</svg>