<?xml version="1.0" encoding="utf-8"?>
<!-- Generator: Adobe Illustrator 18.1.1, SVG Export Plug-In . SVG Version: 6.00 Build 0)  -->
<svg version="1.1" id="Layer_1" xmlns="http://www.w3.org/2000/svg" xmlns:xlink="http://www.w3.org/1999/xlink" x="0px" y="0px"
	 viewBox="2 0 16 16" enable-background="new 2 0 16 16" xml:space="preserve">
<path d="M13.2,10.1h-0.6l-0.2-0.2c0.7-1,1.3-2.1,1.3-3.4c0-2.9-2.3-5.2-5.2-5.2S3.2,3.5,3.2,6.4s2.3,5.2,5.2,5.2
	c1.3,0,2.5-0.4,3.4-1.3l0.2,0.2v0.6l4.1,3.9l1.2-1.2L13.2,10.1z M8.4,10.1c-1.9,0-3.5-1.6-3.5-3.6s1.6-3.6,3.6-3.6s3.6,1.6,3.6,3.6
	S10.5,10.1,8.4,10.1z"/>
<path fill="none" d="M2,0h16v16H2V0z"/>
<rect x="8" y="4" transform="matrix(0.7071 -0.7071 0.7071 0.7071 -2.1066 7.9142)" width="1" height="5"/>
<rect x="6" y="6" transform="matrix(0.7071 -0.7071 0.7071 0.7071 -2.1066 7.9142)" width="5" height="1"/>
</svg>
