<?xml version="1.0" encoding="UTF-8" standalone="no"?>
<svg width="16px" height="16px" viewBox="0 0 16 16" version="1.1" xmlns="http://www.w3.org/2000/svg" xmlns:xlink="http://www.w3.org/1999/xlink">
    <!-- Generator: Sketch 3.6.1 (26313) - http://www.bohemiancoding.com/sketch -->
    <title>icon_person_outline_16px</title>
    <desc>Created with Sketch.</desc>
    <defs></defs>
    <g id="Page-1" stroke="none" stroke-width="1" fill="none" fill-rule="evenodd">
        <g id="icon_person_outline_16px">
            <path d="M8,3.4 C8.9,3.4 9.6,4.1 9.6,5 C9.6,5.9 8.9,6.6 8,6.6 C7.1,6.6 6.4,5.9 6.4,5 C6.4,4.1 7.1,3.4 8,3.4 L8,3.4 Z M8,10.2 C10.2,10.2 12.6,11.3 12.6,11.8 L12.6,12.6 L3.5,12.6 L3.5,11.8 C3.4,11.3 5.8,10.2 8,10.2 L8,10.2 Z M8,2 C6.3,2 5,3.3 5,5 C5,6.7 6.3,8 8,8 C9.7,8 11,6.7 11,5 C11,3.3 9.7,2 8,2 L8,2 Z M8,8.8 C6,8.8 2,9.8 2,11.8 L2,14 L14,14 L14,11.8 C14,9.8 10,8.8 8,8.8 L8,8.8 Z" id="Shape" fill="#000000"></path>
            <path d="M0,0 L16,0 L16,16 L0,16 L0,0 L0,0 Z" id="Shape"></path>
        </g>
    </g>
</svg>