<?xml version="1.0" encoding="UTF-8" standalone="no"?>
<svg width="24px" height="24px" viewBox="0 0 24 24" version="1.1" xmlns="http://www.w3.org/2000/svg" xmlns:xlink="http://www.w3.org/1999/xlink">
    <!-- Generator: Sketch 39.1 (31720) - http://www.bohemiancoding.com/sketch -->
    <title>icon_view_grid_24px</title>
    <desc>Created with Sketch.</desc>
    <defs></defs>
    <g id="Page-1" stroke="none" stroke-width="1" fill="none" fill-rule="evenodd">
        <g id="icon_view_grid_24px">
            <polygon id="Shape" points="0 0 24 0 24 24 0 24"></polygon>
            <path d="M8,11 L8,5 L4,5 L4,11 L8,11 Z M10,11 L14,11 L14,5 L10,5 L10,11 L10,11 Z M16,5 L16,11 L20,11 L20,5 L16,5 L16,5 Z" id="Shape" fill="#000000"></path>
            <path d="M8,19 L8,13 L4,13 L4,19 L8,19 Z M10,19 L14,19 L14,13 L10,13 L10,19 L10,19 Z M16,13 L16,19 L20,19 L20,13 L16,13 L16,13 Z" id="Shape-Copy" fill="#000000"></path>
        </g>
    </g>
</svg>