<?xml version="1.0" encoding="UTF-8"?>
<svg width="24px" height="24px" viewBox="0 0 24 24" version="1.1" xmlns="http://www.w3.org/2000/svg" xmlns:xlink="http://www.w3.org/1999/xlink">
    <!-- Generator: Sketch 42 (36781) - http://www.bohemiancoding.com/sketch -->
    <title>icon_linked-in_24px</title>
    <desc>Created with Sketch.</desc>
    <defs></defs>
    <g id="Page-1" stroke="none" stroke-width="1" fill="none" fill-rule="evenodd">
        <g id="surface1" transform="translate(3.000000, 3.000000)" fill-rule="nonzero" fill="#000000">
            <path d="M4.42067354,17.3725966 L0.692307692,17.3725966 L0.670673538,6.20913508 L4.39903846,6.20913508 L4.42067354,17.3725966 Z M2.46274062,4.74879785 L2.44110554,4.74879785 C1.222356,4.74879785 0.436297846,3.90865385 0.436297846,2.86298123 C0.436297846,1.79206708 1.24759662,0.980769231 2.48798123,0.980769231 C3.72836585,0.980769231 4.48918246,1.79206708 4.51442308,2.86298123 C4.51442308,3.90865385 3.72475938,4.74879785 2.46274062,4.74879785 Z M17.347356,17.3725966 L13.5865385,17.3725966 L13.5865385,11.3076923 C13.5865385,9.840144 13.1971154,8.84134615 11.8846154,8.84134615 C10.882212,8.84134615 10.3413462,9.51562523 10.0817308,10.1682692 C9.98437477,10.402644 9.95913508,10.7235582 9.95913508,11.0516825 L9.95913508,17.3725966 L6.18028892,17.3725966 L6.15865385,6.20913508 L9.9375,6.20913508 L9.95913508,7.784856 C10.4423077,7.03846154 11.2463945,5.98197138 13.1718748,5.98197138 C15.5588945,5.98197138 17.3437505,7.53966369 17.3437505,10.8894231 L17.3437505,17.3725966 L17.347356,17.3725966 Z" id="Shape"></path>
        </g>
    </g>
</svg>