<?xml version="1.0" encoding="UTF-8" standalone="no"?>
<svg width="24px" height="24px" viewBox="0 0 24 24" version="1.1" xmlns="http://www.w3.org/2000/svg" xmlns:xlink="http://www.w3.org/1999/xlink">
    <!-- Generator: Sketch 45.2 (43514) - http://www.bohemiancoding.com/sketch -->
    <title>icon_top_rated_24px</title>
    <desc>Created with Sketch.</desc>
    <defs></defs>
    <g id="Page-1" stroke="none" stroke-width="1" fill="none" fill-rule="evenodd">
        <path d="M5.21170076,13.5 L2.14644661,16.5652542 C1.95118446,16.7605163 1.95118446,17.0770988 2.14644661,17.2723609 C2.22294503,17.3488594 2.32219153,17.3984826 2.42928932,17.4137823 L6.01785624,17.9264347 L6.01785624,17.9264347 C6.23784501,17.9578617 6.41069334,18.13071 6.44212031,18.3506988 L6.95477272,21.9392657 C6.99382515,22.2126327 7.24709114,22.4025822 7.52045815,22.3635298 C7.62755594,22.3482301 7.72680244,22.2986068 7.80330086,22.2221084 L12.1568334,17.8685758 L16.510366,22.2221084 C16.7056282,22.4173705 17.0222107,22.4173705 17.2174728,22.2221084 C17.2939712,22.14561 17.3435945,22.0463635 17.3588942,21.9392657 L17.8715466,18.3506988 L17.8715466,18.3506988 C17.9029735,18.13071 18.0758219,17.9578617 18.2958106,17.9264347 L21.8843776,17.4137823 C22.1577446,17.3747299 22.3476941,17.1214639 22.3086416,16.8480969 C22.2933419,16.7409991 22.2437187,16.6417526 22.1672203,16.5652542 L19.1019661,13.5 C17.5627288,15.676926 15.0257669,17.0982655 12.1568334,17.0982655 C9.28789997,17.0982655 6.75093812,15.676926 5.21170076,13.5 Z" id="Combined-Shape" fill="#000000"></path>
        <path d="M12,13 C14.4852814,13 16.5,10.9852814 16.5,8.5 C16.5,6.01471863 14.4852814,4 12,4 C9.51471863,4 7.5,6.01471863 7.5,8.5 C7.5,10.9852814 9.51471863,13 12,13 Z M12,15 C8.41014913,15 5.5,12.0898509 5.5,8.5 C5.5,4.91014913 8.41014913,2 12,2 C15.5898509,2 18.5,4.91014913 18.5,8.5 C18.5,12.0898509 15.5898509,15 12,15 Z" id="Oval" fill="#000000" fill-rule="nonzero"></path>
    </g>
</svg>