<?xml version="1.0" encoding="UTF-8" standalone="no"?>
<svg width="24px" height="24px" viewBox="0 0 24 24" version="1.1" xmlns="http://www.w3.org/2000/svg" xmlns:xlink="http://www.w3.org/1999/xlink">
    <!-- Generator: Sketch 41 (35326) - http://www.bohemiancoding.com/sketch -->
    <title>icon_reddit_24px</title>
    <desc>Created with Sketch.</desc>
    <defs></defs>
    <g id="Page-1" stroke="none" stroke-width="1" fill="none" fill-rule="evenodd">
        <path d="M22.5961791,11.148008 L22.5961791,11.1499163 C22.5994935,11.1971209 22.6003974,11.244225 22.6003974,11.2910278 C22.6003974,11.8156512 22.4321182,12.3201373 22.1514017,12.7481419 C21.8893663,13.1486776 21.5280003,13.4837797 21.1117466,13.711165 C21.1384623,13.9199699 21.1539294,14.1304319 21.1539294,14.3401908 C21.1534272,15.469836 20.7639394,16.5802477 20.0857004,17.4702042 L20.0857004,17.4706562 L20.0842943,17.4706562 C18.8304108,19.1386843 16.9048668,20.1223468 14.9605413,20.6184968 L14.9600392,20.6184968 L14.9586833,20.6196518 C13.9218403,20.8713927 12.8526572,21 11.7837754,21 C10.1904208,21 8.59832173,20.7126548 7.11263375,20.1169233 L7.11218179,20.1155172 L7.11077569,20.1155172 C5.57050117,19.480616 4.10289153,18.4714429 3.20289153,16.9927854 C2.71869334,16.2038668 2.45289153,15.278306 2.45289153,14.3483763 C2.45289153,14.1379645 2.46710311,13.9272012 2.49522497,13.7188483 C2.08986843,13.4906093 1.73879712,13.1669568 1.47806729,12.7804319 C1.1997613,12.3653331 1.02329662,11.8790258 1.001,11.3649481 L1.001,11.3629394 L1.001,11.3610814 L1.001,11.3569635 C1.00145196,10.6369936 1.31420723,9.95498828 1.80021326,9.45210914 C2.28616907,8.94938065 2.94999565,8.62080683 3.66203113,8.62080683 L3.69155909,8.62080683 C3.76623267,8.61573485 3.84155909,8.61282223 3.91693572,8.61282223 C4.27458554,8.61282223 4.63303883,8.67072313 4.97346401,8.8012387 L4.97532206,8.80264479 L4.97723033,8.80324741 C5.26783964,8.92562772 5.55659089,9.07326749 5.81395614,9.2777536 C5.89736759,9.23401406 5.98831168,9.1848008 6.09035387,9.14593237 C7.65031369,8.22217944 9.46352092,7.86583529 11.230528,7.76303984 C11.2458945,6.88769669 11.3534607,5.97127553 11.7803606,5.1693003 C12.1359012,4.50296284 12.7530254,3.98421493 13.4877593,3.80443589 L13.4908226,3.80292936 L13.4947898,3.8024774 C13.7746525,3.74834282 14.0568252,3.72338467 14.3371399,3.72338467 C15.0838256,3.72338467 15.8216227,3.90020087 16.5120646,4.17619685 C16.817689,3.71494811 17.25408,3.35493806 17.7659983,3.15301306 L17.7709197,3.15020087 L17.775841,3.14834282 C18.0762929,3.05473719 18.3936682,3 18.7121985,3 C19.0482548,3 19.3869725,3.06141614 19.7042976,3.20318045 L19.7042976,3.20202544 C19.7047496,3.20318045 19.7052518,3.20318045 19.7052518,3.20318045 C19.707612,3.20398393 19.70947,3.20539002 19.711077,3.20539002 C20.1659983,3.38059926 20.551067,3.70440241 20.8241001,4.10679612 C21.0973843,4.51094744 21.2581811,4.9950452 21.2581811,5.49275193 C21.2581811,5.5844995 21.2530087,5.67639772 21.2422621,5.76839638 L21.241308,5.77025444 C21.241308,5.77166053 21.241308,5.77366923 21.2408058,5.77507533 C21.1874245,6.41831269 20.8616127,6.98265819 20.4003639,7.38520254 C19.9363532,7.78935387 19.3353991,8.03346167 18.7185762,8.03346167 C18.6196475,8.03346167 18.5198149,8.02793773 18.4204342,8.01468028 C17.8086833,7.96792769 17.2382615,7.67189488 16.8191955,7.23153666 C16.3987235,6.79188149 16.1277995,6.20443589 16.1277995,5.57033813 C16.1277995,5.53965517 16.1306117,5.50821895 16.1315156,5.47778708 C15.5572772,5.22207901 14.9474848,5.00995983 14.3414587,5.010462 C14.2537787,5.010462 14.166149,5.01528289 14.078469,5.02417141 L14.0775149,5.02417141 C13.6237988,5.06791095 13.2019207,5.35390023 12.997535,5.76523267 L12.997535,5.76568463 L12.997535,5.76709073 C12.6872404,6.37140944 12.6253723,7.07782056 12.6159816,7.77900904 C14.3554694,7.89245062 16.1052518,8.30985939 17.6399019,9.19203214 L17.6422621,9.19203214 L17.6642574,9.2050385 C17.6933334,9.22226314 17.7472169,9.25179109 17.7959782,9.27780382 C17.9014854,9.19223301 18.0130187,9.10425176 18.1402702,9.02842317 C18.6054861,8.71858052 19.1567248,8.56451289 19.7082146,8.56451289 C19.9528748,8.56451289 20.1977861,8.59569802 20.4354158,8.65661199 L20.4363699,8.65661199 L20.4462126,8.65952461 C20.4497278,8.66002678 20.4522889,8.66118179 20.4551513,8.66118179 L20.4551513,8.66163375 C21.0167349,8.80450285 21.5247864,9.12700033 21.9072939,9.56188483 C22.2895504,9.99747238 22.5466143,10.5485604 22.5967817,11.1468028 L22.5967817,11.1480583 L22.5961791,11.1480583 L22.5961791,11.148008 Z M17.4724262,5.45528959 C17.4724262,5.47884165 17.4729284,5.50299632 17.4752886,5.52760295 L17.4752886,5.52900904 L17.4752886,5.53182123 C17.4865373,5.8340308 17.6292056,6.11529963 17.8460452,6.32304988 C18.0639896,6.53095079 18.3532431,6.6596083 18.6466143,6.66076331 L18.6506317,6.66076331 L18.6545989,6.66076331 C18.6756903,6.66242049 18.6972839,6.66242049 18.7178731,6.66242049 C19.0141068,6.66287245 19.3080305,6.5352695 19.5287871,6.3282223 C19.7499956,6.12012052 19.8958276,5.83709407 19.9075283,5.5323234 L19.9079802,5.53091731 L19.9079802,5.52905926 C19.9098885,5.50575829 19.9108427,5.48371276 19.9108427,5.45990961 C19.9108427,5.1462002 19.7641068,4.84715434 19.5344114,4.62569468 C19.3056702,4.40443589 18.9976856,4.26734181 18.6940198,4.2681453 C18.5960452,4.2681453 18.4989746,4.28150318 18.4038624,4.31103113 L18.4005983,4.31128222 L18.3977861,4.31243723 C18.1475015,4.37746903 17.9128848,4.53178775 17.7443545,4.73672581 C17.575071,4.94070974 17.4724262,5.19290258 17.4724262,5.45528959 Z M21.2044985,11.2914295 C21.2040465,11.1025109 21.1609096,10.9144459 21.0662494,10.7390358 L21.0638892,10.7368262 L21.0629351,10.7340141 C20.9363365,10.4733847 20.7375752,10.2765316 20.4980874,10.1423502 C20.2585494,10.0072648 19.9782347,9.93866756 19.6970161,9.93866756 C19.4427643,9.93866756 19.1898182,9.99551389 18.9653455,10.1083529 C19.679239,10.728239 20.3055028,11.4732173 20.7102066,12.3498661 C20.8405213,12.2364245 20.9516528,12.0978741 21.0348132,11.9439069 C21.1431326,11.7418815 21.2044985,11.515149 21.2044985,11.2914295 Z M4.63228557,10.1177436 C4.39977804,10.0094744 4.15933612,9.93213927 3.92170639,9.93314362 C3.88183361,9.93314362 3.84150887,9.93550385 3.80168631,9.93982256 L3.79616237,9.93982256 L3.79063843,9.94052561 C3.44940978,9.9499163 3.10501741,10.0987111 2.84649715,10.3371945 C2.58777603,10.5748242 2.41668463,10.8957148 2.40352762,11.2494978 L2.40352762,11.252762 L2.40292501,11.2556746 C2.400615,11.2842986 2.39966086,11.312772 2.39966086,11.3401908 C2.39966086,11.5583863 2.46660094,11.7693003 2.58009274,11.9612822 C2.6641068,12.1042518 2.77428423,12.2345162 2.89887412,12.348008 C3.29765216,11.4748242 3.92070204,10.733763 4.63228557,10.1177436 Z M8.02513793,14.5374456 C8.02699598,14.5374456 8.02945665,14.5381486 8.03156579,14.5393036 C8.16891095,14.589471 8.31047439,14.6142785 8.45063174,14.6142785 C8.80029695,14.6142785 9.14011952,14.4710579 9.39738433,14.2376465 C9.65424741,14.003532 9.83015969,13.6723468 9.83015969,13.2948108 C9.83015969,13.2849682 9.83015969,13.2751255 9.82970773,13.2634248 C9.83066187,13.2465517 9.83111383,13.2280214 9.83111383,13.2090392 C9.83111383,12.8345162 9.65756177,12.5019752 9.40315936,12.2668564 C9.14780281,12.0315367 8.80878373,11.8876632 8.45781286,11.8876632 C8.36405658,11.8876632 8.26854268,11.8986609 8.17518815,11.9204553 C8.17378206,11.9204553 8.17272749,11.9209073 8.17132139,11.9209073 L8.1699153,11.9209073 C7.70530198,12.0181788 7.29748477,12.3629729 7.14698259,12.8372782 L7.14698259,12.8372782 L7.14698259,12.8377804 C7.14698259,12.8387345 7.14653063,12.8396384 7.14653063,12.8396384 C7.10329327,12.9695012 7.08315601,13.103532 7.08315601,13.2361567 C7.08315601,13.526766 7.1792223,13.8099431 7.34483997,14.0428524 C7.50900134,14.2718447 7.74125778,14.4518748 8.02016639,14.5359391 C8.02217509,14.5360395 8.02312923,14.5365417 8.02513793,14.5374456 Z M15.5846299,16.0986903 C15.4740507,16.0371758 15.346046,16 15.2106091,16 C15.1013858,16 14.9879442,16.0267511 14.8869566,16.0842163 L14.8869566,16.0842163 C13.9326211,16.5728002 12.8102074,16.8405693 11.6957782,16.8405693 C10.859655,16.8405693 10.0286037,16.6891953 9.27569112,16.3719302 L9.27182436,16.3703364 L9.26805804,16.3691302 C9.15451603,16.3293267 9.02515546,16.2446796 8.88404398,16.1640818 C8.81233324,16.1242352 8.73745878,16.0846471 8.65434864,16.0554837 C8.57234328,16.0255449 8.48124853,16.0046093 8.38387659,16.0046093 C8.30327733,16.0046093 8.21856022,16.0200741 8.1349479,16.0526406 C8.13062918,16.0540621 8.12651134,16.0554406 8.12229306,16.0568622 L8.12274502,16.0568622 C7.99137575,16.0998965 7.88873096,16.1787281 7.82274502,16.2719907 C7.75384646,16.3680533 7.71999979,16.4798822 7.71999979,16.5912373 C7.71999979,16.6917799 7.74766969,16.7922795 7.80491777,16.8835605 C7.85940387,16.9700168 7.94321707,17.0456177 8.05289232,17.0962767 C9.12900548,17.7189174 10.3961464,18.0009882 11.6681585,17.9999974 C12.8150282,17.9999974 13.968828,17.7722472 14.9960795,17.3576703 L15.0014528,17.3548703 L15.0066252,17.352458 C15.1420621,17.2836634 15.3220922,17.2219765 15.4917775,17.1321171 C15.5756911,17.0862827 15.6576965,17.0332114 15.7280011,16.9642445 C15.7983058,16.8957083 15.8548006,16.8112766 15.8866888,16.7111648 L15.8866888,16.710734 C15.9000467,16.6665366 15.9063741,16.6235022 15.9063741,16.5804679 C15.9063741,16.498664 15.8829225,16.4210385 15.844054,16.3512962 C15.7871073,16.2462735 15.6938532,16.1602479 15.5846299,16.0986903 Z M16.4440198,12.8035822 C16.4997613,12.9460998 16.525071,13.0932876 16.525071,13.2395213 C16.525071,13.5338969 16.4233803,13.819836 16.2527409,14.0532474 C16.0840097,14.2838969 15.8449237,14.4629227 15.5636548,14.5417141 L15.564157,14.5417141 C15.5617968,14.5426682 15.5594366,14.5426682 15.5582816,14.5435721 C15.5571265,14.5435721 15.5552183,14.5445263 15.5543144,14.5445263 C15.4225936,14.5895213 15.2875584,14.6106127 15.1535778,14.6106127 C14.8395169,14.6106127 14.5310803,14.4974222 14.2845119,14.3044861 C14.0398517,14.1123535 13.8546491,13.8362571 13.7965474,13.5087881 L13.7960452,13.5087881 C13.7960452,13.5078339 13.7960452,13.5066789 13.7955932,13.5053231 C13.7955932,13.5043689 13.7955932,13.5034148 13.7946391,13.5020589 L13.7955932,13.5020589 C13.777314,13.4176431 13.7679233,13.3333278 13.7679233,13.2499163 C13.7679233,12.9663375 13.8644918,12.6940074 14.0238825,12.4689823 C14.182771,12.2453632 14.406842,12.0677436 14.6690783,11.9762973 C14.6700325,11.9762973 14.6709866,11.9757951 14.6709866,11.9757951 C14.6723425,11.9757951 14.6723425,11.9744392 14.6735477,11.9744392 C14.8218905,11.9196016 14.978469,11.8921326 15.1333904,11.8921326 C15.4155631,11.8921326 15.6935176,11.9777034 15.9278832,12.1342317 C16.1594366,12.2881989 16.3474011,12.513927 16.4416093,12.7942417 C16.4425634,12.7960998 16.4425634,12.7977569 16.4434674,12.7994141 C16.4434674,12.8012722 16.4444215,12.8022765 16.4453254,12.8036324 L16.4440198,12.8036324 L16.4440198,12.8035822 Z" id="Combined-Shape" fill="#4A4A4A"></path>
    </g>
</svg>