<?xml version="1.0" encoding="UTF-8"?>
<svg width="24px" height="24px" viewBox="0 0 24 24" version="1.1" xmlns="http://www.w3.org/2000/svg" xmlns:xlink="http://www.w3.org/1999/xlink">
    <!-- Generator: Sketch 42 (36781) - http://www.bohemiancoding.com/sketch -->
    <title>attachment_24px</title>
    <desc>Created with Sketch.</desc>
    <defs></defs>
    <g id="Page-1" stroke="none" stroke-width="1" fill="none" fill-rule="evenodd">
        <g id="ic_attachment_black_24px" transform="translate(2.000000, 7.000000)" fill-rule="nonzero" fill="#000000">
            <path d="M0,5.5 C0,2.46 2.46,0 5.5,0 L16,0 C18.21,0 20,1.79 20,4 C20,6.21 18.21,8 16,8 L7.5,8 C6.12,8 5,6.88 5,5.5 C5,4.12 6.12,3 7.5,3 L15,3 L15,5 L7.41,5 C6.86,5 6.86,6 7.41,6 L16,6 C17.1,6 18,5.1 18,4 C18,2.9 17.1,2 16,2 L5.5,2 C3.57,2 2,3.57 2,5.5 C2,7.43 3.57,9 5.5,9 L15,9 L15,11 L5.5,11 C2.46,11 0,8.54 0,5.5 Z" id="Shape"></path>
        </g>
    </g>
</svg>