<?xml version="1.0" encoding="UTF-8"?>
<svg width="24px" height="24px" viewBox="0 0 24 24" version="1.1" xmlns="http://www.w3.org/2000/svg" xmlns:xlink="http://www.w3.org/1999/xlink">
    <!-- Generator: Sketch 42 (36781) - http://www.bohemiancoding.com/sketch -->
    <title>icon_outbound_24px</title>
    <desc>Created with Sketch.</desc>
    <defs></defs>
    <g id="Page-1" stroke="none" stroke-width="1" fill="none" fill-rule="evenodd">
        <g id="baseline-move_to_inbox-24px">
            <path d="M19,3 L4.99,3 C3.88,3 3.01,3.9 3.01,5 L3,19 C3,20.1 3.88,21 4.99,21 L19,21 C20.1,21 21,20.1 21,19 L21,5 C21,3.9 20.1,3 19,3 Z M19,15 L15,15 C15,16.66 13.65,18 12,18 C10.35,18 9,16.66 9,15 L4.99,15 L4.99,5 L19,5 L19,15 Z M16,11 L14,11 L14,14 L10,14 L10,11 L8,11 L12,7 L16,11 Z" id="Shape" fill="#000000" fill-rule="nonzero"></path>
            <polygon id="Shape" points="0 0 24 0 24 24 0 24"></polygon>
        </g>
    </g>
</svg>