<?xml version="1.0" encoding="UTF-8" standalone="no"?>
<svg width="24px" height="24px" viewBox="0 0 24 24" version="1.1" xmlns="http://www.w3.org/2000/svg" xmlns:xlink="http://www.w3.org/1999/xlink">
    <!-- Generator: Sketch 42 (36781) - http://www.bohemiancoding.com/sketch -->
    <title>icon_role_public_group_24px</title>
    <desc>Created with Sketch.</desc>
    <defs></defs>
    <g id="Page-1" stroke="none" stroke-width="1" fill="none" fill-rule="evenodd">
        <g id="Group" transform="translate(1.000000, 1.000000)" fill="#000000">
            <path d="M5.5,22 C2,19 0,15.6199413 0,10.5437206 L0,5.45192308 L2.25,4.5 L2.25,10.1222455 C2.25,14.7158388 4.20212366,18.4564076 7.75,21 L5.5,22 Z" id="Combined-Shape" fill-rule="nonzero"></path>
            <path d="M4,4 L13,0 L22,4 L22,10 C22,15.55 18.16,20.74 13,22 C7.84,20.74 4,15.55 4,10 L4,4 Z M13,5 C9.688,5 7,7.688 7,11 C7,14.312 9.688,17 13,17 C16.312,17 19,14.312 19,11 C19,7.688 16.312,5 13,5 Z" id="Combined-Shape"></path>
            <path d="M12.4,15.758 C10.03,15.464 8.2,13.448 8.2,11 C8.2,10.628 8.248,10.274 8.326,9.926 L11.2,12.8 L11.2,13.4 C11.2,14.06 11.74,14.6 12.4,14.6 L12.4,15.758 Z M16.54,14.234 C16.384,13.748 15.94,13.4 15.4,13.4 L14.8,13.4 L14.8,11.6 C14.8,11.27 14.53,11 14.2,11 L10.6,11 L10.6,9.8 L11.8,9.8 C12.13,9.8 12.4,9.53 12.4,9.2 L12.4,8 L13.6,8 C14.26,8 14.8,7.46 14.8,6.8 L14.8,6.554 C16.558,7.268 17.8,8.99 17.8,11 C17.8,12.248 17.32,13.382 16.54,14.234 Z" id="Shape" fill-rule="nonzero"></path>
        </g>
    </g>
</svg>