<?xml version="1.0" encoding="UTF-8" standalone="no"?>
<svg width="24px" height="24px" viewBox="0 0 24 24" version="1.1" xmlns="http://www.w3.org/2000/svg" xmlns:xlink="http://www.w3.org/1999/xlink">
    <!-- Generator: Sketch 3.7 (28169) - http://www.bohemiancoding.com/sketch -->
    <title>icon_dispatcher_24px</title>
    <desc>Created with Sketch.</desc>
    <defs></defs>
    <g id="Page-1" stroke="none" stroke-width="1" fill="none" fill-rule="evenodd">
        <g id="icon_dispatcher_24px">
            <g id="Group">
                <path d="M12,0 C5.38636364,0 0,5.38636364 0,12 C0,18.6136364 5.38636364,24 12,24 C18.6136364,24 24,18.6136364 24,12 C24,5.38636364 18.6136364,0 12,0 L12,0 Z M12,21.8181818 C6.58636364,21.8181818 2.18181818,17.4136364 2.18181818,12 C2.18181818,6.58636364 6.58636364,2.18181818 12,2.18181818 C14.6727273,2.18181818 17.1,3.25909091 18.8590909,4.99090909 L17.3181818,6.53181818 C15.9409091,5.19545455 14.0727273,4.36363636 12,4.36363636 C7.78636364,4.36363636 4.36363636,7.78636364 4.36363636,12 C4.36363636,16.2136364 7.78636364,19.6363636 12,19.6363636 C16.2136364,19.6363636 19.6363636,16.2136364 19.6363636,12 C19.6363636,10.65 19.2818182,9.38181818 18.6681818,8.27727273 L20.25,6.69545455 C21.2454545,8.22272727 21.8181818,10.05 21.8181818,12 C21.8181818,17.4136364 17.4136364,21.8181818 12,21.8181818 L12,21.8181818 Z M17.4545455,12 C17.4545455,15.0136364 15.0136364,17.4545455 12,17.4545455 C8.98636364,17.4545455 6.54545455,15.0136364 6.54545455,12 C6.54545455,11.2636364 6.69545455,10.5545455 6.95454545,9.91363636 L12,14.9454545 L17.0454545,9.9 C17.3045455,10.5545455 17.4545455,11.2636364 17.4545455,12 L17.4545455,12 Z M8.20909091,8.08636364 C9.19090909,7.13181818 10.5272727,6.54545455 12,6.54545455 C13.4727273,6.54545455 14.7954545,7.13181818 15.7772727,8.07272727 L12,11.8636364 L8.20909091,8.08636364 L8.20909091,8.08636364 Z" id="Shape" fill="#B3B3B3"></path>
                <g opacity="0.2" transform="translate(6.954545, 5.045455)" id="Shape" fill="#000000">
                    <path d="M12.5318182,5.49545455 C12.3818182,4.69090909 12.0954545,3.92727273 11.7,3.23181818 L10.0772727,4.85454545 C10.35,5.49545455 10.5,6.20454545 10.5,6.94090909 C10.5,7.14545455 10.4863636,7.35 10.4590909,7.55454545 L12.5318182,5.49545455 L12.5318182,5.49545455 Z"></path>
                    <path d="M14.8772727,0.0681818182 L13.3090909,1.63636364 C13.7181818,2.27727273 14.0590909,2.97272727 14.3181818,3.70909091 L15.9954545,2.03181818 C15.6818182,1.35 15.3,0.681818182 14.8772727,0.0681818182 L14.8772727,0.0681818182 Z"></path>
                    <path d="M1.78636364,6.65454545 C1.85454545,5.89090909 2.18181818,5.18181818 2.72727273,4.63636364 C2.75454545,4.60909091 2.76818182,4.59545455 2.79545455,4.56818182 L1.25454545,3.04090909 C1.22727273,3.06818182 1.21363636,3.08181818 1.18636364,3.10909091 C0.668181818,3.62727273 0.272727273,4.22727273 0,4.88181818 L1.78636364,6.65454545 L1.78636364,6.65454545 Z"></path>
                </g>
            </g>
        </g>
    </g>
</svg>