<?xml version="1.0" encoding="UTF-8" standalone="no"?>
<svg width="16px" height="16px" viewBox="0 0 16 16" version="1.1" xmlns="http://www.w3.org/2000/svg" xmlns:xlink="http://www.w3.org/1999/xlink">
    <!-- Generator: Sketch 39.1 (31720) - http://www.bohemiancoding.com/sketch -->
    <title>icon_file_code_16px</title>
    <desc>Created with Sketch.</desc>
    <defs></defs>
    <g id="Page-1" stroke="none" stroke-width="1" fill="none" fill-rule="evenodd">
        <g id="icon_file_code_16px" transform="translate(2.000000, 0.000000)" fill="#000000">
            <path d="M9.5,1 L11,2.5 L11,14 L1,14 L1,1 L9.5,1 L9.5,1 Z M0,0 L0,15 L12,15 L12,2 L10,0 L0,0 L0,0 Z" id="Shape"></path>
            <path d="M3,3 L7,3 L7,4 L3,4 L3,3 Z M3,11 L7,11 L7,12 L3,12 L3,11 Z M4,9 L8,9 L8,10 L4,10 L4,9 Z M5,7 L9,7 L9,8 L5,8 L5,7 Z M4,5 L8,5 L8,6 L4,6 L4,5 Z" id="Shape"></path>
        </g>
    </g>
</svg>