<?xml version="1.0" encoding="UTF-8"?>
<svg width="24px" height="24px" viewBox="0 0 24 24" version="1.1" xmlns="http://www.w3.org/2000/svg" xmlns:xlink="http://www.w3.org/1999/xlink">
    <!-- Generator: Sketch 42 (36781) - http://www.bohemiancoding.com/sketch -->
    <title>icon_social-github_24px</title>
    <desc>Created with Sketch.</desc>
    <defs></defs>
    <g id="Page-1" stroke="none" stroke-width="1" fill="none" fill-rule="evenodd">
        <path d="M11.9989871,1 C5.92550416,1 1,6.04946255 1,12.2787255 C1,17.2617204 4.15153934,21.4886461 8.52263728,22.9800135 C9.0729918,23.0838691 9.27355045,22.7356065 9.27355045,22.4365021 C9.27355045,22.1692469 9.2640965,21.4595665 9.25869425,20.5186341 C6.19899322,21.1999273 5.55342398,19.0064956 5.55342398,19.0064956 C5.0530403,17.7034532 4.33183953,17.3565752 4.33183953,17.3565752 C3.33309801,16.6572804 4.40747107,16.6711278 4.40747107,16.6711278 C5.51155652,16.7507505 6.09229872,17.8336189 6.09229872,17.8336189 C7.07348292,19.5569307 8.66714755,19.0591158 9.2938089,18.7703971 C9.39375058,18.0420227 9.67804414,17.5449002 9.99205009,17.2631051 C7.54955646,16.9785406 4.98146045,16.0106058 4.98146045,11.6888253 C4.98146045,10.4577894 5.41026428,9.45038947 6.11390773,8.66247114 C6.00046042,8.37721424 5.62297799,7.2299553 6.22195279,5.67765926 C6.22195279,5.67765926 7.14506277,5.37440071 9.24653918,6.83391903 C10.12373,6.58328068 11.0650726,6.45865388 12.0003376,6.45380728 C12.9349274,6.45865388 13.8755947,6.58328068 14.7541361,6.83391903 C16.8542619,5.37440071 17.7760214,5.67765926 17.7760214,5.67765926 C18.3763467,7.2299553 17.9988643,8.37721424 17.8860923,8.66247114 C18.5910863,9.45038947 19.0165137,10.4577894 19.0165137,11.6888253 C19.0165137,16.0216837 16.444366,16.9750788 13.9944443,17.2541043 C14.3888087,17.602367 14.7406305,18.2905839 14.7406305,19.342988 C14.7406305,20.8502799 14.7271248,22.066776 14.7271248,22.4365021 C14.7271248,22.7383759 14.9256576,23.0894081 15.4834403,22.9793211 C19.8511618,21.4844918 23,17.2603357 23,12.2787255 C23,6.04946255 18.0744958,1 11.9989871,1" id="Fill-3" fill="#151513"></path>
    </g>
</svg>