<?xml version="1.0" encoding="UTF-8"?>
<svg width="16px" height="16px" viewBox="0 0 16 16" version="1.1" xmlns="http://www.w3.org/2000/svg" xmlns:xlink="http://www.w3.org/1999/xlink">
    <!-- Generator: Sketch 42 (36781) - http://www.bohemiancoding.com/sketch -->
    <title>icon_orcid_16px</title>
    <desc>Created with Sketch.</desc>
    <defs></defs>
    <g id="Page-1" stroke="none" stroke-width="1" fill="none" fill-rule="evenodd">
        <path d="M8,15 C4.13400675,15 1,11.8659932 1,8 C1,4.13400675 4.13400675,1 8,1 C11.8659932,1 15,4.13400675 15,8 C15,11.8659932 11.8659932,15 8,15 Z M4.93737321,3.40625 C4.62465768,3.40625 4.36874992,3.66265979 4.36874992,3.9757714 C4.36874992,4.28904774 4.62465768,4.5455488 4.93737321,4.5455488 C5.24990871,4.5455488 5.50624987,4.28904774 5.50624987,3.9757714 C5.50624987,3.66265979 5.24990871,3.40625 4.93737321,3.40625 Z M4.5,4.9375 L4.5,11.28125 L5.375,11.28125 L5.375,4.9375 L4.5,4.9375 Z M7.125,4.71875 L7.125,11.28125 L9.34840834,11.28125 C11.2299486,11.2812488 12.375,9.68389173 12.375,7.9999994 C12.375,6.45083009 11.4470376,4.71875 9.34048179,4.71875 L7.125,4.71875 L7.125,4.71875 Z M8,5.375 L9.2319028,5.375 C10.7898688,5.375 11.5,6.57824644 11.5,7.99985086 C11.5,8.87139407 11.0834857,10.625 9.27245073,10.625 L8,10.625 L8,5.375 L8,5.375 Z" id="Combined-Shape" fill="#000000"></path>
    </g>
</svg>