<?xml version="1.0" encoding="UTF-8" standalone="no"?>
<svg width="24px" height="24px" viewBox="0 0 24 24" version="1.1" xmlns="http://www.w3.org/2000/svg" xmlns:xlink="http://www.w3.org/1999/xlink">
    <!-- Generator: Sketch 3.7 (28169) - http://www.bohemiancoding.com/sketch -->
    <title>icon_journal_24px</title>
    <desc>Created with Sketch.</desc>
    <defs></defs>
    <g id="Page-1" stroke="none" stroke-width="1" fill="none" fill-rule="evenodd">
        <path d="M12.5,1.6339746 L12,1.34529946 L11.5,1.6339746 L3.27275866,6.3839746 L2.77275866,6.67264973 L2.77275866,7.25 L2.77275866,16.75 L2.77275866,17.3273503 L3.27275866,17.6160254 L11.5,22.3660254 L12,22.6547005 L12.5,22.3660254 L20.7272413,17.6160254 L21.2272413,17.3273503 L21.2272413,16.75 L21.2272413,7.25 L21.2272413,6.67264973 L20.7272413,6.3839746 L12.5,1.6339746 Z M19.2272417,7.81042476 L19.2272417,16.1231694 L12.5000002,20.0695796 L11.5000002,20.0695796 L4.77275866,16.1231694 L4.77275866,7.81042476 L12.0000002,3.80627441 L19.2272417,7.81042476 Z" id="Combined-Shape" fill="#000000"></path>
        <polygon id="Path-3-Copy" fill="#000000" points="4.91666667 6.25 12 2 19.0833333 6.25 12 10.5"></polygon>
        <polygon id="Path-1" fill="#000000" points="11.5 9.48913556 11.5 21 12.5 21 12.5 9.48913556"></polygon>
        <g id="Group" transform="translate(14.000000, 9.000000)" stroke="#000000">
            <path d="M0,2.89 L4.03509521,0.5" id="Path-9"></path>
            <path d="M0,5.39025879 L4.03509521,3" id="Path-9-Copy"></path>
            <path d="M0,7.89 L4.03509521,5.5" id="Path-9-Copy-2"></path>
        </g>
        <g id="Group-Copy" transform="translate(7.500000, 13.000000) scale(-1, 1) translate(-7.500000, -13.000000) translate(5.000000, 9.000000)" stroke="#000000">
            <path d="M0,2.89 L4.03509521,0.5" id="Path-9"></path>
            <path d="M0,5.39025879 L4.03509521,3" id="Path-9-Copy"></path>
            <path d="M0,7.89 L4.03509521,5.5" id="Path-9-Copy-2"></path>
        </g>
    </g>
</svg>