<?xml version="1.0" encoding="UTF-8" standalone="no"?>
<svg width="24px" height="24px" viewBox="0 0 24 24" version="1.1" xmlns="http://www.w3.org/2000/svg" xmlns:xlink="http://www.w3.org/1999/xlink">
    <!-- Generator: Sketch 42 (36781) - http://www.bohemiancoding.com/sketch -->
    <title>icon_file_audio_24px</title>
    <desc>Created with Sketch.</desc>
    <defs></defs>
    <g id="Page-1" stroke="none" stroke-width="1" fill="none" fill-rule="evenodd">
        <g id="icon_file_data_24px" transform="translate(3.000000, 1.000000)" fill="#000000">
            <g id="Group">
                <path d="M15,5.5 L15,19 L3,19 L3,3 L12.5,3 L15,5.5 Z M13,1 L3,1 C2,1 1,2 1,3 C1,4 1,19 1,19 C1,19 1,21 3,21 C5,21 15,21 15,21 C15,21 17,21 17,19 C17,17 17,5 17,5 L17,4.6 L16.7,4.3 L13.7,1.3 L13.4,1 L13,1 Z" id="Shape"></path>
            </g>
            <path d="M4,9.35888889 L4,12.6922222 L6.22222222,12.6922222 L9,15.47 L9,6.58111111 L6.22222222,9.35888889 L4,9.35888889 L4,9.35888889 Z M11.5,11.0255556 C11.5,10.0422222 10.9333333,9.19777778 10.1111111,8.78666667 L10.1111111,13.2588889 C10.9333333,12.8533333 11.5,12.0088889 11.5,11.0255556 L11.5,11.0255556 Z M10.1111111,6.15333333 L10.1111111,7.29777778 C11.7166667,7.77555556 12.8888889,9.26444444 12.8888889,11.0255556 C12.8888889,12.7866667 11.7166667,14.2755556 10.1111111,14.7533333 L10.1111111,15.8977778 C12.3388889,15.3922222 14,13.4033333 14,11.0255556 C14,8.64777778 12.3388889,6.65888889 10.1111111,6.15333333 L10.1111111,6.15333333 Z" id="Shape"></path>
        </g>
    </g>
</svg>