<?xml version="1.0" encoding="UTF-8" standalone="no"?>
<svg width="24px" height="24px" viewBox="0 0 24 24" version="1.1" xmlns="http://www.w3.org/2000/svg" xmlns:xlink="http://www.w3.org/1999/xlink">
    <!-- Generator: Sketch 42 (36781) - http://www.bohemiancoding.com/sketch -->
    <title>icon_access_open_24px</title>
    <desc>Created with Sketch.</desc>
    <defs></defs>
    <g id="Page-1" stroke="none" stroke-width="1" fill="none" fill-rule="evenodd">
        <g id="icon_access_open_24px" transform="translate(5.000000, 1.000000)" fill-rule="nonzero" fill="#000000">
            <path d="M12.568753,11.3628927 C13.1961927,12.3363926 13.559181,13.4871541 13.559181,14.7221076 C13.559181,18.2401372 10.6134683,21.0749336 6.99999999,21.0749336 C3.38653165,21.0749336 0.440819012,18.2401372 0.440819012,14.7221076 C0.440819012,11.2040779 3.38653165,8.36928146 6.99999999,8.36928146 C8.24797699,8.36928146 9.41630465,8.70741367 10.411142,9.29504395 L10.411142,6.31275057 C10.411142,4.53835448 8.89866636,3.08280092 7.01269065,3.08280092 C5.12671495,3.08280092 3.61423934,4.53835448 3.61423934,6.31275057 L3.61423934,7.04854691 L1.45662835,7.04854691 L1.45662835,6.31275057 C1.45662835,3.32782715 3.95322504,0.925189931 7.01269065,0.925189931 C10.0721563,0.925189931 12.568753,3.32782715 12.568753,6.31275057 L12.568753,11.3628927 Z M7.02152918,16.521257 C8.04305794,16.521257 8.87117062,15.7243256 8.87117062,14.7412609 C8.87117062,13.7581962 8.04305794,12.9612648 7.02152918,12.9612648 C6.00000042,12.9612648 5.17188774,13.7581962 5.17188774,14.7412609 C5.17188774,15.7243256 6.00000042,16.521257 7.02152918,16.521257 Z" id="Combined-Shape"></path>
        </g>
    </g>
</svg>