<?xml version="1.0" encoding="UTF-8" standalone="no"?>
<svg width="24px" height="24px" viewBox="0 0 24 24" version="1.1" xmlns="http://www.w3.org/2000/svg" xmlns:xlink="http://www.w3.org/1999/xlink">
    <!-- Generator: Sketch 42 (36781) - http://www.bohemiancoding.com/sketch -->
    <title>icon_shell_24px</title>
    <desc>Created with Sketch.</desc>
    <defs></defs>
    <g id="Page-1" stroke="none" stroke-width="1" fill="none" fill-rule="evenodd">
        <g id="inline-icons__shell_black" transform="translate(4.000000, 4.000000)" fill-rule="nonzero" fill="#000000">
            <path d="M2,14 L14,14 L14,2 L2,2 L2,14 Z M14.0059397,0 C15.1072288,0 16,0.894513756 16,1.99406028 L16,14.0059397 C16,15.1072288 15.1054862,16 14.0059397,16 L1.99406028,16 C0.892771196,16 0,15.1054862 0,14.0059397 L0,1.99406028 C0,0.892771196 0.894513756,0 1.99406028,0 L14.0059397,0 Z" id="Rectangle-path"></path>
            <polygon id="Shape" points="8 7.31707778 14.3492086 12.7592566 15.6507914 11.2407434 8 4.68292222 0.349208627 11.2407434 1.65079137 12.7592566"></polygon>
        </g>
    </g>
</svg>