<?xml version="1.0" encoding="UTF-8"?>
<svg width="16px" height="16px" viewBox="0 0 16 16" version="1.1" xmlns="http://www.w3.org/2000/svg" xmlns:xlink="http://www.w3.org/1999/xlink">
    <!-- Generator: Sketch 42 (36781) - http://www.bohemiancoding.com/sketch -->
    <title>icon_anchor_16px</title>
    <desc>Created with Sketch.</desc>
    <defs></defs>
    <g id="Page-1" stroke="none" stroke-width="1" fill="none" fill-rule="evenodd">
        <g id="16px" transform="translate(4.250000, 3.500000)" fill="#000000">
            <path d="M7.46486618,3.49872363 L6.03993658,3.49872363 L3.70974587,1.20319133 L1.41421356,3.49872363 L1.11022302e-16,3.49872363 L3.35240504,0.146318597 C3.54684387,-0.0481202393 3.86294048,-0.0496283343 4.06246515,0.146928671 L7.46486618,3.49872363 Z M7.4551126,5.49872363 L4.10273084,8.8511054 C3.90682162,9.04701461 3.59071157,9.04853616 3.39267073,8.85049532 L0.0408990425,5.49872363 L1.4551126,5.49872363 L3.74800582,7.79161685 L6.04089904,5.49872363 L7.4551126,5.49872363 Z M4.74589454,3.49872363 L2.73079634,3.49872363 L3.73079634,2.49872363 L4.74589454,3.49872363 Z M4.75124586,5.49872363 L3.75124586,6.49872363 L2.75124586,5.49872363 L4.75124586,5.49872363 Z" id="Combined-Shape"></path>
        </g>
    </g>
</svg>