<?xml version="1.0" encoding="UTF-8" standalone="no"?>
<svg width="16px" height="16px" viewBox="0 0 16 16" version="1.1" xmlns="http://www.w3.org/2000/svg" xmlns:xlink="http://www.w3.org/1999/xlink">
    <!-- Generator: Sketch 3.7 (28169) - http://www.bohemiancoding.com/sketch -->
    <title>icon_money_16px</title>
    <desc>Created with Sketch.</desc>
    <defs></defs>
    <g id="Page-1" stroke="none" stroke-width="1" fill="none" fill-rule="evenodd">
        <g id="ic_attach_money_black_18px">
            <path d="M8.51111111,7.14444444 C6.74555556,6.68555556 6.17777778,6.21111111 6.17777778,5.47222222 C6.17777778,4.62444444 6.96333333,4.03333333 8.27777778,4.03333333 C9.66222222,4.03333333 10.1755556,4.69444444 10.2222222,5.66666667 L11.9411111,5.66666667 C11.8866667,4.32888889 11.07,3.1 9.44444444,2.70333333 L9.44444444,1 L7.11111111,1 L7.11111111,2.68 C5.60222222,3.00666667 4.38888889,3.98666667 4.38888889,5.48777778 C4.38888889,7.28444444 5.87444444,8.17888889 8.04444444,8.7 C9.98888889,9.16666667 10.3777778,9.85111111 10.3777778,10.5744444 C10.3777778,11.1111111 9.99666667,11.9666667 8.27777778,11.9666667 C6.67555556,11.9666667 6.04555556,11.2511111 5.96,10.3333333 L4.24888889,10.3333333 C4.34222222,12.0366667 5.61777778,12.9933333 7.11111111,13.3122222 L7.11111111,15 L9.44444444,15 L9.44444444,13.3277778 C10.9611111,13.04 12.1666667,12.1611111 12.1666667,10.5666667 C12.1666667,8.35777778 10.2766667,7.60333333 8.51111111,7.14444444 L8.51111111,7.14444444 Z" id="Shape" fill="#000000"></path>
            <polygon id="Shape" points="0 0 16 0 16 16 0 16"></polygon>
        </g>
    </g>
</svg>