<?xml version="1.0" encoding="UTF-8" standalone="no"?>
<svg width="16px" height="16px" viewBox="0 0 16 16" version="1.1" xmlns="http://www.w3.org/2000/svg" xmlns:xlink="http://www.w3.org/1999/xlink">
    <!-- Generator: Sketch 3.6.1 (26313) - http://www.bohemiancoding.com/sketch -->
    <title>icon_feedback_16px</title>
    <desc>Created with Sketch.</desc>
    <defs></defs>
    <g id="Page-1" stroke="none" stroke-width="1" fill="none" fill-rule="evenodd">
        <g id="icon_feedback_16px">
            <path d="M0,0 L16,0 L16,16 L0,16 L0,0 Z" id="Shape"></path>
            <path d="M13.6,1 L2.4,1 C1.63,1 1.007,1.63 1.007,2.4 L1,15 L3.8,12.2 L13.6,12.2 C14.37,12.2 15,11.57 15,10.8 L15,2.4 C15,1.63 14.37,1 13.6,1 L13.6,1 Z M8.7,9.4 L7.3,9.4 L7.3,8 L8.7,8 L8.7,9.4 L8.7,9.4 Z M8.7,6.6 L7.3,6.6 L7.3,3.8 L8.7,3.8 L8.7,6.6 L8.7,6.6 Z" id="Shape" fill="#000000"></path>
        </g>
    </g>
</svg>