<?xml version="1.0" encoding="UTF-8" standalone="no"?>
<svg width="24px" height="24px" viewBox="0 0 24 24" version="1.1" xmlns="http://www.w3.org/2000/svg" xmlns:xlink="http://www.w3.org/1999/xlink">
    <!-- Generator: Sketch 42 (36781) - http://www.bohemiancoding.com/sketch -->
    <title>icon_role_reviewer_group_24px</title>
    <desc>Created with Sketch.</desc>
    <defs></defs>
    <g id="Page-1" stroke="none" stroke-width="1" fill="none" fill-rule="evenodd">
        <g id="Group" transform="translate(1.000000, 1.000000)" fill="#000000">
            <path d="M5.5,22 C2,19 0,15.6199413 0,10.5437206 L0,5.45192308 L2.25,4.5 L2.25,10.1222455 C2.25,14.7158388 4.20212366,18.4564076 7.75,21 L5.5,22 Z" id="Combined-Shape" fill-rule="nonzero"></path>
            <path d="M20.4448484,16.0306349 C21.4340936,14.2081241 22,12.1305889 22,10 L22,4 L13,0 L4,4 L4,10 C4,15.55 7.84,20.74 13,22 C15.5249411,21.3834446 17.7338168,19.8258761 19.3313666,17.7455802 L14.8957385,13.3099521 C14.202014,13.7470915 13.380542,14 12.5,14 C10.0147186,14 8,11.9852814 8,9.5 C8,7.01471863 10.0147186,5 12.5,5 C14.9852814,5 17,7.01471863 17,9.5 C17,10.380542 16.7470915,11.202014 16.3099521,11.8957385 L16.3099521,11.8957385 L20.4448484,16.0306349 Z M12.5,12 C13.8807119,12 15,10.8807119 15,9.5 C15,8.11928813 13.8807119,7 12.5,7 C11.1192881,7 10,8.11928813 10,9.5 C10,10.8807119 11.1192881,12 12.5,12 Z" id="Combined-Shape"></path>
            <path d="M5.5,10 C5.5,14.7662497 8.72464787,19.2111911 13,20.4479342 C17.2753521,19.2111911 20.5,14.7662497 20.5,10 L20.5,4.97480963 L13,1.6414763 L5.5,4.97480963 L5.5,10 Z M4,4 L13,0 L22,4 L22,10 C22,15.55 18.16,20.74 13,22 C7.84,20.74 4,15.55 4,10 L4,4 Z" id="Combined-Shape" fill-rule="nonzero"></path>
        </g>
    </g>
</svg>