<?xml version="1.0" encoding="UTF-8"?>
<svg width="24px" height="24px" viewBox="0 0 24 24" version="1.1" xmlns="http://www.w3.org/2000/svg" xmlns:xlink="http://www.w3.org/1999/xlink">
    <!-- Generator: Sketch 42 (36781) - http://www.bohemiancoding.com/sketch -->
    <title>icon_anonymous_24px</title>
    <desc>Created with Sketch.</desc>
    <defs></defs>
    <g id="Page-1" stroke="none" stroke-width="1" fill="none" fill-rule="evenodd">
        <path d="M10.6041604,16.9608658 C11.0549187,16.7589921 11.5178882,16.6350538 11.9867598,16.6223456 C12.0399492,16.620904 12.0934431,16.6209361 12.1472276,16.6223963 C12.56851,16.633834 12.9944513,16.7298801 13.4180386,16.8866473 C13.8922772,15.3592205 15.3166024,14.25 17,14.25 C19.0710678,14.25 20.75,15.9289322 20.75,18 C20.75,20.0710678 19.0710678,21.75 17,21.75 C15.0831078,21.75 13.5021411,20.3117317 13.2773815,18.4554766 C13.2290608,18.4322661 13.1774684,18.4085042 13.1230439,18.3846855 C12.7612406,18.226344 12.4081211,18.1300322 12.106518,18.1218438 C12.0795632,18.121112 12.0531837,18.1210962 12.0274003,18.121795 C11.7266823,18.1299455 11.3828636,18.238057 11.0356053,18.4175693 C10.9032441,18.4859924 10.7892704,18.5539887 10.7002795,18.6121762 C10.4080313,20.3920524 8.8625985,21.75 7,21.75 C4.92893219,21.75 3.25,20.0710678 3.25,18 C3.25,15.9289322 4.92893219,14.25 7,14.25 C8.71054448,14.25 10.1535935,15.3952842 10.6041604,16.9608658 Z M17,20.25 C18.2426407,20.25 19.25,19.2426407 19.25,18 C19.25,16.7573593 18.2426407,15.75 17,15.75 C15.7573593,15.75 14.75,16.7573593 14.75,18 C14.75,19.2426407 15.7573593,20.25 17,20.25 Z M7,20.25 C8.24264069,20.25 9.25,19.2426407 9.25,18 C9.25,16.7573593 8.24264069,15.75 7,15.75 C5.75735931,15.75 4.75,16.7573593 4.75,18 C4.75,19.2426407 5.75735931,20.25 7,20.25 Z M17.2944806,1.29743127 L19.6037024,9.02244723 L4.39629757,9.02244723 L6.6758999,1.33767004 C6.72581419,1.17147843 6.91340418,1.03670613 7.09331505,1.03367444 L12,2.2772692 L16.8778882,1.00005027 C17.0572506,0.997018578 17.2445663,1.13151527 17.2944806,1.29743127 Z M1,11.75 C1,11.0596441 1.56593147,10.5 2.24584985,10.5 L21.7541502,10.5 C22.442214,10.5 23,11.054831 23,11.75 C23,12.4403559 22.4340685,13 21.7541502,13 L2.24584985,13 C1.55778598,13 1,12.445169 1,11.75 Z" id="Combined-Shape" fill="#000000" fill-rule="nonzero"></path>
    </g>
</svg>