<?xml version="1.0" encoding="UTF-8" standalone="no"?>
<svg width="24px" height="24px" viewBox="0 0 24 24" version="1.1" xmlns="http://www.w3.org/2000/svg" xmlns:xlink="http://www.w3.org/1999/xlink">
    <!-- Generator: Sketch 42 (36781) - http://www.bohemiancoding.com/sketch -->
    <title>icon_role_admin_group_24px</title>
    <desc>Created with Sketch.</desc>
    <defs></defs>
    <g id="Page-1" stroke="none" stroke-width="1" fill="none" fill-rule="evenodd">
        <g id="Group" transform="translate(1.000000, 1.000000)" fill="#000000">
            <path d="M5.5,22 C2,19 0,15.6199413 0,10.5437206 L0,5.45192308 L2.25,4.5 L2.25,10.1222455 C2.25,14.7158388 4.20212366,18.4564076 7.75,21 L5.5,22 Z" id="Combined-Shape" fill-rule="nonzero"></path>
            <path d="M4,4 L13,0 L22,4 L22,10 C22,15.55 18.16,20.74 13,22 C7.84,20.74 4,15.55 4,10 L4,4 Z M13,4 L11.56,8.32 L7,8.32 L10.72,11.08 L9.28,15.4 L13,12.76 L16.72,15.4 L15.28,11.08 L19,8.32 L14.44,8.32 L13,4 Z" id="Combined-Shape"></path>
        </g>
    </g>
</svg>