<?xml version="1.0" encoding="UTF-8" standalone="no"?>
<svg width="24px" height="24px" viewBox="0 0 24 24" version="1.1" xmlns="http://www.w3.org/2000/svg" xmlns:xlink="http://www.w3.org/1999/xlink">
    <!-- Generator: Sketch 3.6.1 (26313) - http://www.bohemiancoding.com/sketch -->
    <title>icon_feedback_24px</title>
    <desc>Created with Sketch.</desc>
    <defs></defs>
    <g id="Page-1" stroke="none" stroke-width="1" fill="none" fill-rule="evenodd">
        <g id="icon_feedback_24px">
            <path d="M0,0 L24,0 L24,24 L0,24 L0,0 Z" id="Shape"></path>
            <path d="M20,2 L4,2 C2.9,2 2.01,2.9 2.01,4 L2,22 L6,18 L20,18 C21.1,18 22,17.1 22,16 L22,4 C22,2.9 21.1,2 20,2 L20,2 Z M13,14 L11,14 L11,12 L13,12 L13,14 L13,14 Z M13,10 L11,10 L11,6 L13,6 L13,10 L13,10 Z" id="Shape" fill="#000000"></path>
        </g>
    </g>
</svg>