<?xml version="1.0" encoding="UTF-8" standalone="no"?>
<svg width="16px" height="16px" viewBox="0 0 16 16" version="1.1" xmlns="http://www.w3.org/2000/svg" xmlns:xlink="http://www.w3.org/1999/xlink">
    <!-- Generator: Sketch 3.7 (28169) - http://www.bohemiancoding.com/sketch -->
    <title>icon_sifter_16px</title>
    <desc>Created with Sketch.</desc>
    <defs></defs>
    <g id="Page-1" stroke="none" stroke-width="1" fill="none" fill-rule="evenodd">
        <g id="icon_sifter_16px">
            <g id="Group">
                <path d="M7.61818182,15.900565 C7.74545455,15.9096045 7.87272727,15.9186441 8,15.9186441 C8.12727273,15.9186441 8.25454545,15.9096045 8.38181818,15.900565 C12.6181818,15.7016949 16,12.2124294 16,7.95480226 C16,3.57062147 12.4090909,0 8,0 C3.59090909,0 0,3.56158192 0,7.95480226 C0,12.2124294 3.38181818,15.6926554 7.61818182,15.900565 L7.61818182,15.900565 Z M12.8818182,12.2757062 C13.0181818,11.8237288 13.0909091,11.3446328 13.0909091,10.8474576 C13.0909091,8.05423729 10.8090909,5.78531073 8,5.78531073 C5.19090909,5.78531073 2.90909091,8.05423729 2.90909091,10.8474576 C2.90909091,11.3446328 2.98181818,11.8237288 3.11818182,12.2757062 C2.08181818,11.1276836 1.45454545,9.60903955 1.45454545,7.95480226 C1.45454545,4.36610169 4.39090909,1.44632768 8,1.44632768 C11.6090909,1.44632768 14.5454545,4.36610169 14.5454545,7.95480226 C14.5454545,9.60903955 13.9181818,11.1276836 12.8818182,12.2757062 L12.8818182,12.2757062 Z M8,14.4542373 C7.64545455,14.4542373 7.33636364,14.1920904 7.28181818,13.8485876 C7.21818182,13.4508475 7.49090909,13.080226 7.88181818,13.0169492 C7.91818182,13.0079096 7.96363636,13.0079096 8,13.0079096 C8.35454545,13.0079096 8.66363636,13.2700565 8.71818182,13.6135593 C8.74545455,13.8033898 8.7,13.9932203 8.59090909,14.1559322 C8.47272727,14.3096045 8.30909091,14.4180791 8.11818182,14.4451977 C8.07272727,14.4542373 8.03636364,14.4542373 8,14.4542373 L8,14.4542373 Z M4.36363636,10.8474576 C4.36363636,8.84971751 5.99090909,7.23163842 8,7.23163842 C10.0090909,7.23163842 11.6363636,8.84971751 11.6363636,10.8474576 C11.6363636,12.0316384 11.0636364,13.080226 10.1818182,13.740113 C10.1818182,13.6225989 10.1727273,13.5050847 10.1545455,13.3875706 C9.98181818,12.3299435 9.08181818,11.5615819 8,11.5615819 C7.88181818,11.5615819 7.77272727,11.5706215 7.65454545,11.5887006 C6.58181818,11.760452 5.80909091,12.6915254 5.81818182,13.740113 C4.93636364,13.080226 4.36363636,12.0316384 4.36363636,10.8474576 L4.36363636,10.8474576 Z" id="Shape" fill="#B3B3B3"></path>
                <g id="asis" opacity="0.2" transform="translate(2.818182, 8.497175)" fill="#000000">
                    <path d="M0.645454545,0.0542372881 C0.6,0.334463277 0.572727273,0.614689266 0.572727273,0.903954802 C0.572727273,2.65762712 1.46363636,4.20338983 2.82727273,5.10734463 C2.88181818,5.15254237 2.93636364,5.19774011 3,5.24293785 C3,4.82711864 3.11818182,4.43841808 3.32727273,4.09491525 C3.44545455,4.95367232 4.07272727,5.64971751 4.88181818,5.89378531 C4.97272727,5.9299435 5.06363636,5.95706215 5.16363636,5.95706215 L5.19090909,5.95706215 L5.17272727,5.95706215 C3.23636364,5.95706215 1.49090909,5.11638418 0.290909091,3.77853107 C0.154545455,3.32655367 0.0818181818,2.84745763 0.0818181818,2.35028249 C0.0909090909,1.52768362 0.290909091,0.741242938 0.645454545,0.0542372881 L0.645454545,0.0542372881 Z"></path>
                </g>
            </g>
        </g>
    </g>
</svg>