<?xml version="1.0" encoding="utf-8"?>
<!-- Generator: Adobe Illustrator 18.1.1, SVG Export Plug-In . SVG Version: 6.00 Build 0)  -->
<svg version="1.1" id="Layer_1" xmlns="http://www.w3.org/2000/svg" xmlns:xlink="http://www.w3.org/1999/xlink" x="0px" y="0px"
	 viewBox="2 0 16 16" enable-background="new 2 0 16 16" xml:space="preserve">
<path fill="#010101" d="M13.2,2.1l3,3v-3H13.2z M16.2,11.1l-3,3h3V11.1z M7.2,14.1l-3-3v3H7.2z M4.2,5.1l3-3h-3V5.1z M13.9,4.4
	c-2-2-5.4-2-7.4,0s-2,5.4,0,7.4s5.4,2,7.4,0S15.9,6.5,13.9,4.4z M13,11c-1.6,1.6-4.2,1.6-5.8,0s-1.6-4.2,0-5.8s4.2-1.6,5.8,0
	S14.6,9.4,13,11z"/>
<path fill="none" d="M2.2,0.1h16v16h-16L2.2,0.1z"/>
</svg>
