<?xml version="1.0" encoding="UTF-8" standalone="no"?>
<svg width="16px" height="16px" viewBox="0 0 16 16" version="1.1" xmlns="http://www.w3.org/2000/svg" xmlns:xlink="http://www.w3.org/1999/xlink">
    <!-- Generator: Sketch 41 (35326) - http://www.bohemiancoding.com/sketch -->
    <title>icon_alert_16px</title>
    <desc>Created with Sketch.</desc>
    <defs></defs>
    <g id="Page-1" stroke="none" stroke-width="1" fill="none" fill-rule="evenodd">
        <g id="icon_add-alert_16px">
            <polygon id="Shape" points="0 0 16 0 16 16 0 16"></polygon>
            <path d="M6.01,14.01 C6.01,15.11 6.9,16 8,16 C9.1,16 9.99,15.11 9.99,14.01 L6.01,14.01 L6.01,14.01 Z M13,6 C13,3.65277778 11.6011111,2.18833333 9.23666667,1.66833333 L9.23666667,1.14833333 C9.23666667,0.512777778 8.68444444,0 8,0 C7.31555556,0 6.76333333,0.512777778 6.76333333,1.14833333 L6.76333333,1.66833333 C4.39888889,2.18833333 3,3.65277778 3,6 L3,11 L1,12.2344444 L1,13 L15,13 L15,12.2344444 L13,11 L13,6 Z" id="Shape" fill="#000000"></path>
        </g>
    </g>
</svg>