<?xml version="1.0" encoding="utf-8"?>
<!-- Generator: Adobe Illustrator 18.1.1, SVG Export Plug-In . SVG Version: 6.00 Build 0)  -->
<svg version="1.1" xmlns="http://www.w3.org/2000/svg" xmlns:xlink="http://www.w3.org/1999/xlink" x="0px" y="0px"
	 viewBox="0 0 16 16" enable-background="new 0 0 16 16" xml:space="preserve">
<g id="Layer_1">
	<g>
		<path d="M11.5,1L13,2.5V14H3V1H11.5z M2,0v15h11.4H14v-0.6V2l-2-2H2z"/>
	</g>
</g>
<g id="Isolation_Mode">
	<g>
		<path fill="none" stroke="#000000" stroke-linecap="square" stroke-linejoin="round" stroke-miterlimit="10" d="M5.1,11.2"/>
		<path fill="none" stroke="#000000" stroke-linecap="round" stroke-miterlimit="10" d="M7.6,6.2l1.8-1.8c0.6-0.6,1.4-0.6,2,0
			l0.1,0.1c0.6,0.6,0.6,1.4,0,2L9.8,8.4"/>
		<path fill="none" stroke="#000000" stroke-linecap="round" stroke-miterlimit="10" d="M8.4,9.8l-1.8,1.8c-0.6,0.6-1.4,0.6-2,0
			l-0.1-0.1c-0.6-0.6-0.6-1.4,0-2l1.8-1.8"/>
		<line fill="none" stroke="#000000" stroke-linecap="round" stroke-miterlimit="10" x1="9.8" y1="6.2" x2="6.2" y2="9.8"/>
	</g>
</g>
</svg>
