<?xml version="1.0" encoding="UTF-8" standalone="no"?>
<svg width="16px" height="16px" viewBox="0 0 16 16" version="1.1" xmlns="http://www.w3.org/2000/svg" xmlns:xlink="http://www.w3.org/1999/xlink">
    <!-- Generator: Sketch 3.6.1 (26313) - http://www.bohemiancoding.com/sketch -->
    <title>icon_admin_16px</title>
    <desc>Created with Sketch.</desc>
    <defs></defs>
    <g id="Page-1" stroke="none" stroke-width="1" fill="none" fill-rule="evenodd">
        <g id="icon_admin_16px" transform="translate(2.000000, 1.000000)" stroke="#000000" fill="#000000">
            <path d="M6,0 L0,2.54545455 L0,6.36363636 C0,9.89545455 2.56,13.1981818 6,14 C9.44,13.1981818 12,9.89545455 12,6.36363636 L12,2.54545455 L6,0 L6,0 Z M9.74603015,9.21594344 C9.0485881,8.37501145 7.08380587,7.95454545 6,7.95454545 C4.91619413,7.95454545 2.9514119,8.37501145 2.25396985,9.21594344 C2.77839134,11.0749171 4.0936213,12.6078602 6,13.0522117 C7.9063787,12.6078602 9.22160866,11.0749171 9.74603015,9.21594344 L9.74603015,9.21594344 L9.74603015,9.21594344 Z M6,7 C7.13333333,7 8,6.17272727 8,5.09090909 C8,4.00909091 7.13333333,3.18181818 6,3.18181818 C4.86666667,3.18181818 4,4.00909091 4,5.09090909 C4,6.17272727 4.86666667,7 6,7 L6,7 Z" id="Shape-Copy"></path>
        </g>
    </g>
</svg>