<?xml version="1.0" encoding="UTF-8" standalone="no"?>
<svg width="24px" height="24px" viewBox="0 0 24 24" version="1.1" xmlns="http://www.w3.org/2000/svg" xmlns:xlink="http://www.w3.org/1999/xlink">
    <!-- Generator: Sketch 42 (36781) - http://www.bohemiancoding.com/sketch -->
    <title>icon_access_closed_24px</title>
    <desc>Created with Sketch.</desc>
    <defs></defs>
    <g id="Page-1" stroke="none" stroke-width="1" fill="none" fill-rule="evenodd">
        <g id="icon_open_access_24px" transform="translate(4.000000, 2.000000)" fill-rule="nonzero" fill="#000000">
            <g id="Group">
                <path d="M4,10 L4.11432495,6.31275057 C4.11432495,4.53835448 5.62680056,3.08280092 7.51277626,3.08280092 C9.39875197,3.08280092 10.9112276,4.53835448 10.9112276,6.31275057 L11,10 L13,11 L13.0688386,6.31275057 C13.0688386,3.32782715 10.5722419,0.925189931 7.51277626,0.925189931 C4.45331065,0.925189931 1.95671396,3.32782715 1.95671396,6.31275057 L2,11 L4,10 Z" id="Shape"></path>
                <path d="M6.5,14.0421067 L6.5,17 L8.5,17 L8.5,14.0421067 C9.24085924,13.7148395 9.75,13.0352714 9.75,12.25 C9.75,11.1454305 8.74264069,10.25 7.5,10.25 C6.25735931,10.25 5.25,11.1454305 5.25,12.25 C5.25,13.0352714 5.75914076,13.7148395 6.5,14.0421067 Z M7.5000856,20.0749336 C3.88661726,20.0749336 0.940904625,17.2401372 0.940904625,13.7221076 C0.940904625,10.2040779 3.88661726,7.36928146 7.5000856,7.36928146 C11.1135539,7.36928146 14.0592666,10.2040779 14.0592666,13.7221076 C14.0592666,17.2401372 11.1135539,20.0749336 7.5000856,20.0749336 Z" id="Combined-Shape"></path>
            </g>
        </g>
    </g>
</svg>