<?xml version="1.0" encoding="UTF-8" standalone="no"?>
<svg width="24px" height="24px" viewBox="0 0 24 24" version="1.1" xmlns="http://www.w3.org/2000/svg" xmlns:xlink="http://www.w3.org/1999/xlink">
    <!-- Generator: Sketch 42 (36781) - http://www.bohemiancoding.com/sketch -->
    <title>icon_role_author_group_24px</title>
    <desc>Created with Sketch.</desc>
    <defs></defs>
    <g id="Page-1" stroke="none" stroke-width="1" fill="none" fill-rule="evenodd">
        <g id="Group" transform="translate(1.000000, 1.000000)" fill="#000000">
            <path d="M5.5,22 C2,19 0,15.6199413 0,10.5437206 L0,5.45192308 L2.25,4.5 L2.25,10.1222455 C2.25,14.7158388 4.20212366,18.4564076 7.75,21 L5.5,22 Z" id="Combined-Shape" fill-rule="nonzero"></path>
            <path d="M4,4 L13,0 L22,4 L22,10 C22,15.55 18.16,20.74 13,22 C7.84,20.74 4,15.55 4,10 L4,4 Z M8,13.6777778 L8,16 L10.3222222,16 L17.0444444,9.21666667 L14.7222222,6.89444444 L8,13.6777778 Z M18.8166667,7.44444444 C19.0611111,7.2 19.0611111,6.83333333 18.8166667,6.58888889 L17.4111111,5.18333333 C17.1666667,4.93888889 16.8,4.93888889 16.5555556,5.18333333 L15.4555556,6.28333333 L17.7777778,8.60555556 L18.8166667,7.44444444 Z" id="Combined-Shape"></path>
            <path d="M5.5,10 C5.5,14.7662497 8.72464787,19.2111911 13,20.4479342 C17.2753521,19.2111911 20.5,14.7662497 20.5,10 L20.5,4.97480963 L13,1.6414763 L5.5,4.97480963 L5.5,10 Z M4,4 L13,0 L22,4 L22,10 C22,15.55 18.16,20.74 13,22 C7.84,20.74 4,15.55 4,10 L4,4 Z" id="Combined-Shape" fill-rule="nonzero"></path>
        </g>
    </g>
</svg>