<?xml version="1.0" encoding="UTF-8"?>
<svg width="24px" height="24px" viewBox="0 0 24 24" version="1.1" xmlns="http://www.w3.org/2000/svg" xmlns:xlink="http://www.w3.org/1999/xlink">
    <!-- Generator: Sketch 42 (36781) - http://www.bohemiancoding.com/sketch -->
    <title>icon_file_pdf_24px</title>
    <desc>Created with Sketch.</desc>
    <defs></defs>
    <g id="Page-1" stroke="none" stroke-width="1" fill="none" fill-rule="evenodd">
        <path d="M18,6.5 L18,20 L6,20 L6,4 L15.5,4 L18,6.5 Z M16,2 L6,2 C5,2 4,3 4,4 C4,5 4,20 4,20 C4,20 4,22 6,22 C8,22 18,22 18,22 C18,22 20,22 20,20 C20,18 20,6 20,6 L20,5.6 L19.7,5.3 L16.7,2.3 L16.4,2 L16,2 Z" id="Shape" fill="#000000"></path>
        <path d="M5,9 L17,9 L17,17 L5,17 L5,9 Z M8.46892655,12.2542373 C8.46892655,12.016948 8.43220376,11.8173266 8.35875706,11.6553672 C8.28531037,11.4934079 8.18926613,11.3644073 8.07062147,11.2683616 C7.95197681,11.1723159 7.82015138,11.1035784 7.67514124,11.0621469 C7.5301311,11.0207154 7.38606475,11 7.24293785,11 L6,11 L6,15 L6.88700565,15 L6.88700565,13.5423729 L7.27683616,13.5423729 C7.42372955,13.5423729 7.56873751,13.5169494 7.71186441,13.4661017 C7.8549913,13.415254 7.98305028,13.3371003 8.0960452,13.2316384 C8.20904011,13.1261765 8.29943469,12.9924679 8.36723164,12.8305085 C8.43502859,12.6685491 8.46892655,12.4764606 8.46892655,12.2542373 Z M7.62146893,12.2711864 C7.62146893,12.4444453 7.57815486,12.5772123 7.49152542,12.6694915 C7.40489599,12.7617707 7.29943565,12.8079096 7.17514124,12.8079096 L6.88700565,12.8079096 L6.88700565,11.7627119 L7.17514124,11.7627119 C7.29943565,11.7627119 7.40489599,11.8022595 7.49152542,11.8813559 C7.57815486,11.9604524 7.62146893,12.0903946 7.62146893,12.2711864 Z M12.2052731,13.0112994 C12.2052731,12.7024467 12.1723167,12.4246717 12.106403,12.1779661 C12.0404893,11.9312605 11.939737,11.7203399 11.8041431,11.5451977 C11.6685492,11.3700556 11.4962346,11.2354054 11.287194,11.1412429 C11.0781534,11.0470805 10.8305099,11 10.5442561,11 L9.41996234,11 L9.41996234,15 L10.5442561,15 C10.8305099,15 11.0781534,14.9529195 11.287194,14.8587571 C11.4962346,14.7645946 11.6685492,14.630886 11.8041431,14.4576271 C11.939737,14.2843682 12.0404893,14.0753308 12.106403,13.8305085 C12.1723167,13.5856862 12.2052731,13.3126192 12.2052731,13.0112994 Z M11.2956685,13.0112994 C11.2956685,13.3992486 11.226931,13.6958558 11.0894539,13.9011299 C10.9519767,14.106404 10.7740124,14.2090395 10.5555556,14.2090395 L10.3352166,14.2090395 L10.3352166,11.7909605 L10.5555556,11.7909605 C10.7740124,11.7909605 10.9519767,11.893596 11.0894539,12.0988701 C11.226931,12.3041442 11.2956685,12.6082842 11.2956685,13.0112994 Z M14.13371,11.819209 L15.173258,11.819209 L15.173258,11 L13.2241055,11 L13.2241055,15 L14.1393597,15 L14.1393597,13.4067797 L15.0885122,13.4067797 L15.0885122,12.6327684 L14.13371,12.6327684 L14.13371,11.819209 Z" id="Combined-Shape" fill="#000000"></path>
    </g>
</svg>