<?xml version="1.0" encoding="UTF-8"?>
<svg width="24px" height="24px" viewBox="0 0 24 24" version="1.1" xmlns="http://www.w3.org/2000/svg" xmlns:xlink="http://www.w3.org/1999/xlink">
    <!-- Generator: Sketch 42 (36781) - http://www.bohemiancoding.com/sketch -->
    <title>icon_doi_24px</title>
    <desc>Created with Sketch.</desc>
    <defs></defs>
    <g id="Page-1" stroke="none" stroke-width="1" fill="none" fill-rule="evenodd">
        <g id="DOI_logo" transform="translate(2.000000, 2.000000)" fill="#000000">
            <path d="M10,20 C4.4771525,20 0,15.5228475 0,10 C0,4.4771525 4.4771525,0 10,0 C15.5228475,0 20,4.4771525 20,10 C20,15.5228475 15.5228475,20 10,20 Z M7.62798859,13.0561169 L7.62798859,3.80836156 L5.77575359,3.80836156 L5.77575359,7.78026422 C5.56368422,7.56019266 5.20552578,7.33423641 5.00546109,7.238205 C4.65734687,7.07015031 4.16881937,7.03462484 3.77268953,7.03462484 C3.09246828,7.03462484 2.45146922,7.39650766 1.92729813,7.84865531 C1.26708356,8.41683953 0.936975547,9.17708797 0.936975547,10.1293991 C0.936975547,11.0657042 1.23967853,11.9343559 1.88388891,12.5025417 C2.42406578,12.9786956 3.04026563,13.1973736 3.73249156,13.1973736 C4.16063141,13.1973736 4.61703219,13.0749298 4.95314172,12.8868697 C5.14520438,12.7788337 5.58769203,12.5381839 5.77575359,12.3021067 L5.77575359,13.0561169 L7.62798859,13.0561169 Z M16.3168187,3.84654969 C16.0087187,3.84654969 15.7466328,3.95458406 15.5305625,4.17065453 C15.3184927,4.38272406 15.2124587,4.6428075 15.2124587,4.95090969 C15.2124587,5.25900891 15.3184927,5.52109609 15.5305625,5.737165 C15.7466328,5.95323703 16.0087187,6.06127141 16.3168187,6.06127141 C16.6289188,6.06127141 16.8910047,5.95523594 17.1030734,5.74316812 C17.3191438,5.52709609 17.4271797,5.26301 17.4271797,4.95090969 C17.4271797,4.6428075 17.3191438,4.38272406 17.1030734,4.17065453 C16.8870031,3.95458406 16.6249172,3.84654969 16.3168187,3.84654969 L16.3168187,3.84654969 Z M11.4405286,6.95436266 C10.2961548,6.95436266 9.41386844,7.31108281 8.79366594,8.02451094 C8.28149781,8.61551687 8.02541547,9.29298781 8.02541547,10.0570744 C8.02541547,10.905587 8.27949734,11.6211109 8.78766281,12.2036737 C9.40386422,12.9128797 10.2681461,13.2675209 11.3805081,13.2675209 C12.4888694,13.2675209 13.3511522,12.9128797 13.967352,12.2036737 C14.4755175,11.6211109 14.7296009,10.9225331 14.7296009,10.1077912 C14.7296009,9.30149078 14.4735169,8.60707219 13.9613505,8.02451094 C13.3331459,7.31108281 12.4928719,6.95436266 11.4405286,6.95436266 Z M15.3324978,7.17103234 L15.3324978,13.0514505 L17.3011391,13.0514505 L17.3011391,7.17103234 L15.3324978,7.17103234 L15.3324978,7.17103234 Z" id="Combined-Shape" fill-rule="nonzero"></path>
            <path d="M5.73425422,10.1354006 C5.73425422,9.78328531 5.63765141,9.36172016 5.38957094,9.11764078 C5.14148906,8.86955891 4.69048453,8.64948734 4.33836922,8.64948734 C3.94624187,8.64948734 3.58298234,8.93472344 3.33089937,9.23082094 C3.12683203,9.47089922 3.02479922,9.84101922 3.02479922,10.14912 C3.02479922,10.4572192 3.14055156,10.7999019 3.34461734,11.0399802 C3.59269766,11.3360778 3.8599275,11.5390019 4.25605734,11.5390019 C4.61217375,11.5390019 5.03573937,11.3895234 5.27982031,11.1454441 C5.52790062,10.9013647 5.73425422,10.4915169 5.73425422,10.1354006 L5.73425422,10.1354006 Z" id="Shape"></path>
            <path d="M11.3805081,8.74624703 C11.7406256,8.74624703 12.0467258,8.87942469 12.2988087,9.14537609 C12.5548912,9.40710672 12.6829341,9.7278575 12.6829341,10.1077912 C12.6829341,10.4919441 12.5568917,10.8168572 12.3048103,11.0828086 C12.0527273,11.3445408 11.7446267,11.4756366 11.3805081,11.4756366 C10.9723752,11.4756366 10.6402666,11.3151106 10.3841841,10.99428 C10.1761158,10.7367717 10.0720823,10.4412872 10.0720823,10.1077912 C10.0720823,9.77851594 10.1761158,9.48511344 10.3841841,9.22760359 C10.6402666,8.90677297 10.9723752,8.74624703 11.3805081,8.74624703 L11.3805081,8.74624703 Z" id="Shape"></path>
        </g>
    </g>
</svg>