<?xml version="1.0" encoding="UTF-8" standalone="no"?>
<svg width="24px" height="24px" viewBox="0 0 24 24" version="1.1" xmlns="http://www.w3.org/2000/svg" xmlns:xlink="http://www.w3.org/1999/xlink">
    <!-- Generator: Sketch 42 (36781) - http://www.bohemiancoding.com/sketch -->
    <title>icon_role_author_24px</title>
    <desc>Created with Sketch.</desc>
    <defs></defs>
    <g id="Page-1" stroke="none" stroke-width="1" fill="none" fill-rule="evenodd">
        <g id="Group" transform="translate(3.000000, 1.000000)" fill="#000000">
            <path d="M0,4 L9,0 L18,4 L18,10 C18,15.55 14.16,20.74 9,22 C3.84,20.74 0,15.55 0,10 L0,4 Z M4,13.6777778 L4,16 L6.32222222,16 L13.0444444,9.21666667 L10.7222222,6.89444444 L4,13.6777778 Z M14.8166667,7.44444444 C15.0611111,7.2 15.0611111,6.83333333 14.8166667,6.58888889 L13.4111111,5.18333333 C13.1666667,4.93888889 12.8,4.93888889 12.5555556,5.18333333 L11.4555556,6.28333333 L13.7777778,8.60555556 L14.8166667,7.44444444 Z" id="Combined-Shape"></path>
            <path d="M1.5,10 C1.5,14.7662497 4.72464787,19.2111911 9,20.4479342 C13.2753521,19.2111911 16.5,14.7662497 16.5,10 L16.5,4.97480963 L9,1.6414763 L1.5,4.97480963 L1.5,10 Z M0,4 L9,0 L18,4 L18,10 C18,15.55 14.16,20.74 9,22 C3.84,20.74 0,15.55 0,10 L0,4 Z" id="Combined-Shape" fill-rule="nonzero"></path>
        </g>
    </g>
</svg>