<?xml version="1.0" encoding="UTF-8"?>
<svg width="24px" height="24px" viewBox="0 0 24 24" version="1.1" xmlns="http://www.w3.org/2000/svg" xmlns:xlink="http://www.w3.org/1999/xlink">
    <!-- Generator: Sketch 42 (36781) - http://www.bohemiancoding.com/sketch -->
    <title>icon_ms3_24px</title>
    <desc>Created with Sketch.</desc>
    <defs></defs>
    <g id="Page-1" stroke="none" stroke-width="1" fill="none" fill-rule="evenodd">
        <polyline id="Path" stroke="#000000" stroke-width="1.5" points="4 8 4 4 8 4"></polyline>
        <path d="M1.95812356,7.31163919 L3.17687356,7.31163919 L5.62609231,12.8780454 L8.02843606,7.31163919 L9.25304544,7.31163919 L9.25304544,15.8546079 L7.95812356,15.8546079 L7.95812356,10.5284361 L7.92882669,10.5284361 L6.14171731,14.6299986 L5.06359231,14.6299986 L3.27648294,10.5284361 L3.25304544,10.5284361 L3.25304544,15.8546079 L1.95812356,15.8546079 L1.95812356,7.31163919 Z M11.6573423,13.7803892 C12.3370332,14.3389857 13.1456189,14.622186 14.0831236,14.6299986 C15.1925041,14.6143735 15.7549985,14.2178931 15.7706236,13.4405454 C15.7784361,12.8038235 15.4073461,12.4210148 14.6573423,12.2921079 C14.3135906,12.2452327 13.9366412,12.1924989 13.5264829,12.1339048 C12.7921043,12.0128105 12.2335161,11.7413288 11.8507017,11.3194517 C11.4561685,10.8858558 11.2589048,10.3585173 11.2589048,9.73742044 C11.2589048,8.99132296 11.5069492,8.38976647 12.0030454,7.93273294 C12.4835166,7.47960567 13.1651504,7.24913923 14.0479673,7.24132669 C15.1104726,7.26476431 16.0342915,7.55968323 16.8194517,8.12609231 L16.0987486,9.19249856 C15.4581204,8.77062145 14.7530493,8.55187364 13.9835142,8.53624856 C13.5850747,8.53624856 13.2530468,8.63585694 12.9874204,8.83507669 C12.7100753,9.04210897 12.5674986,9.35069964 12.5596861,9.76085794 C12.5596861,10.0069529 12.6553882,10.2296069 12.8467954,10.4288267 C13.0382026,10.6319527 13.3448402,10.7725763 13.7667173,10.8507017 C14.0010935,10.8897644 14.3214028,10.9346858 14.7276548,10.9854673 C15.5284401,11.0948429 16.120231,11.3819494 16.5030454,11.8467954 C16.8819536,12.303829 17.0714048,12.8350737 17.0714048,13.4405454 C17.0284358,15.0733661 16.0284458,15.9014828 14.0714048,15.9249204 C12.8057735,15.9249204 11.7178937,15.5342993 10.8077329,14.7530454 L11.6573423,13.7803892 Z M20.1436704,10.9092954 L20.5655454,10.9092954 C20.9835163,10.9092954 21.3077318,10.7940622 21.5382017,10.5635923 C21.7686716,10.3409349 21.8839048,10.0518753 21.8839048,9.69640481 C21.8760923,9.33702802 21.7569528,9.04210909 21.5264829,8.81163919 C21.296013,8.58898182 20.999141,8.4737486 20.6358579,8.46593606 C20.3741379,8.46593606 20.135859,8.5499196 19.9210142,8.71788919 C19.6944506,8.88585878 19.5421083,9.14562181 19.4639829,9.49718606 L18.2393736,9.49718606 C18.3018739,8.8643704 18.5577307,8.33117261 19.0069517,7.89757669 C19.4483601,7.46788704 19.9756986,7.24913923 20.5889829,7.24132669 C21.3663306,7.24913923 21.9835119,7.49718362 22.4405454,7.98546731 C22.8780476,8.4620322 23.1007016,9.02452657 23.1085142,9.67296731 C23.1085142,10.001094 23.049921,10.317497 22.9327329,10.6221861 C22.7960135,10.9268751 22.5518753,11.1983567 22.2003111,11.4366392 C22.5596879,11.6710154 22.8194509,11.9522625 22.9796079,12.2803892 C23.1319524,12.6085158 23.2081236,12.9522624 23.2081236,13.3116392 C23.200311,14.1124244 22.9522666,14.7432775 22.4639829,15.2042173 C21.9835118,15.6768759 21.3663305,15.9171079 20.6124204,15.9249204 C20.0303863,15.9249204 19.5147664,15.7374223 19.0655454,15.3624204 C18.6163244,14.9874186 18.3253117,14.4444552 18.1924986,13.7335142 L19.4171079,13.7335142 C19.5264835,14.0186719 19.6807788,14.2491383 19.8799986,14.4249204 C20.0831246,14.6085151 20.3526531,14.7003111 20.6885923,14.7003111 C21.0479691,14.7003111 21.3507005,14.5772654 21.5967954,14.3311704 C21.8467967,14.1007005 21.9757016,13.7725788 21.9835142,13.3467954 C21.9757016,12.9131995 21.8467967,12.5772654 21.5967954,12.3389829 C21.3507005,12.108513 21.0382036,11.9932798 20.6592954,11.9932798 L20.1436704,11.9932798 L20.1436704,10.9092954 Z" id="MS3-Copy" fill="#000000" transform="translate(12.583124, 11.583124) rotate(-45.000000) translate(-12.583124, -11.583124) "></path>
        <polyline id="Path" stroke="#000000" stroke-width="1.5" transform="translate(18.250000, 18.250000) rotate(-180.000000) translate(-18.250000, -18.250000) " points="16.25 20.25 16.25 16.25 20.25 16.25"></polyline>
    </g>
</svg>