<?xml version="1.0" encoding="UTF-8"?>
<svg width="24px" height="24px" viewBox="0 0 24 24" version="1.1" xmlns="http://www.w3.org/2000/svg" xmlns:xlink="http://www.w3.org/1999/xlink">
    <!-- Generator: Sketch 42 (36781) - http://www.bohemiancoding.com/sketch -->
    <title>icon_rfa_24px</title>
    <desc>Created with Sketch.</desc>
    <defs></defs>
    <g id="Page-1" stroke="none" stroke-width="1" fill="none" fill-rule="evenodd">
        <g id="Group-2" transform="translate(2.000000, 2.000000)" fill="#000000">
            <path d="M10.5882353,0.000770945641 L10.5882353,1.41144292 C10.5526756,1.41103037 10.5170673,1.41082353 10.4814118,1.41082353 C5.48023529,1.41082353 1.41082353,5.48023529 1.41082353,10.4814118 C1.41082353,10.5170674 1.41103028,10.5526756 1.41144263,10.5882353 L0.000770944299,10.5882353 C0.000414127469,10.552669 0.000235294118,10.5170609 0.000235294118,10.4814118 C0.000235294118,4.70141176 4.70141176,0.000235294118 10.4814118,0.000235294118 C10.5170609,0.000235294118 10.5526691,0.000414127917 10.5882353,0.000770945641 Z M10.5882353,2.9303772 L10.5882353,4.34107955 C10.5591848,4.34067402 10.5300863,4.34047059 10.5009412,4.34047059 C7.10447059,4.34047059 4.34094118,7.10517647 4.34094118,10.5016471 C4.34094118,10.530556 4.34114138,10.5594192 4.34154048,10.5882353 L2.92966378,10.5882353 C2.9293392,10.5594104 2.92917647,10.5305474 2.92917647,10.5016471 C2.92917647,6.32517647 6.32564706,2.92988235 10.5009412,2.92988235 C10.5300775,2.92988235 10.5591758,2.9300476 10.5882353,2.9303772 Z M10.5882353,5.89416548 L10.5882353,7.30529897 C10.5527697,7.30412237 10.5171587,7.30352941 10.4814118,7.30352941 C8.72847059,7.30352941 7.30258824,8.72941176 7.30258824,10.4811765 C7.30258824,10.5170025 7.30318382,10.5526919 7.30436562,10.5882353 L5.89322927,10.5882353 C5.89241125,10.5526465 5.892,10.5169587 5.892,10.4811765 C5.892,7.95058824 7.95082353,5.89294118 10.4814118,5.89294118 C10.517115,5.89294118 10.5527243,5.89335076 10.5882353,5.89416548 Z" id="Combined-Shape"></path>
            <g id="Group" transform="translate(2.352941, 8.235294)">
                <path d="M0.587764706,3.48350588 L2.02894118,3.48350588 L2.02894118,4.24232941 L2.056,4.24232941 C2.52894118,3.67644706 3.15011765,3.39409412 3.91717647,3.39409412 C4.49129412,3.40350588 4.99247059,3.58703529 5.41952941,3.94585882 L4.37247059,5.19291765 C4.06894118,4.95409412 3.75364706,4.83409412 3.42776471,4.83409412 C3.06070588,4.83409412 2.74541176,4.95409412 2.48305882,5.19291765 C2.18894118,5.42703529 2.03717647,5.80703529 2.02894118,6.33056471 L2.02894118,10.6388 L0.587764706,10.6388 L0.587764706,3.48350588 Z" id="Fill-1"></path>
                <path d="M6.60117647,4.57950588 L5.87764706,4.57950588 L5.87764706,3.48303529 L6.60117647,3.48303529 L6.60117647,2.53950588 C6.60117647,1.85832941 6.78941176,1.35832941 7.16588235,1.03597647 C7.53411765,0.737152941 7.99647059,0.587741176 8.55176471,0.587741176 L9.48235294,0.587741176 L9.48235294,1.94656471 L8.66235294,1.94656471 C8.23058824,1.93244706 8.02352941,2.13009412 8.04235294,2.53950588 L8.04235294,3.48303529 L9.48235294,3.48303529 L9.48235294,4.57950588 L8.04235294,4.57950588 L8.04235294,10.6383294 L6.60117647,10.6383294 L6.60117647,4.57950588 Z" id="Fill-4"></path>
                <path d="M14.0528235,7.60574118 L12.3292941,7.60574118 C11.4928235,7.62456471 11.0798824,7.91162353 11.0881176,8.46691765 C11.0881176,8.71044706 11.1963529,8.91750588 11.4128235,9.08809412 C11.6198824,9.27632941 11.9622353,9.37044706 12.4398824,9.37044706 C13.0422353,9.37985882 13.4669412,9.30809412 13.7151765,9.15632941 C13.9398824,9.00456471 14.0528235,8.65985882 14.0528235,8.12221176 L14.0528235,7.60574118 Z M14.0528235,10.0045647 L14.0257647,10.0045647 C13.8916471,10.2480941 13.6857647,10.4269176 13.4045882,10.5422118 C13.1292941,10.6622118 12.7481176,10.7210353 12.2610588,10.7210353 C11.4610588,10.7128 10.8445882,10.5010353 10.4128235,10.0869176 C9.95870588,9.68338824 9.73047059,9.16574118 9.73047059,8.53632941 C9.73047059,7.93397647 9.92811765,7.43515294 10.3234118,7.04103529 C10.7187059,6.63632941 11.2975294,6.42927059 12.0610588,6.41985882 L14.0528235,6.41985882 L14.0528235,5.66927059 C14.0622353,5.03868235 13.5728235,4.73397647 12.5845882,4.75162353 C12.2257647,4.75162353 11.9434118,4.78809412 11.7363529,4.86221176 C11.5210588,4.94927059 11.3504706,5.09632941 11.2269412,5.30338824 L10.0963529,4.44221176 C10.6434118,3.72456471 11.4492941,3.37515294 12.5151765,3.39397647 C13.4163529,3.38456471 14.1351765,3.55515294 14.6728235,3.90456471 C15.2104706,4.26221176 15.4845882,4.87868235 15.494,5.75162353 L15.494,10.6386824 L14.0528235,10.6386824 L14.0528235,10.0045647 Z" id="Fill-7"></path>
            </g>
        </g>
    </g>
</svg>