<?xml version="1.0" encoding="UTF-8"?>
<svg width="24px" height="24px" viewBox="0 0 24 24" version="1.1" xmlns="http://www.w3.org/2000/svg" xmlns:xlink="http://www.w3.org/1999/xlink">
    <!-- Generator: Sketch 42 (36781) - http://www.bohemiancoding.com/sketch -->
    <title>icon_orcid_24px.svg</title>
    <desc>Created with Sketch.</desc>
    <defs></defs>
    <g id="Page-1" stroke="none" stroke-width="1" fill="none" fill-rule="evenodd">
        <g id="Group" transform="translate(2.000000, 2.000000)" fill="#000000">
            <path d="M10,20 C4.4771525,20 0,15.5228475 0,10 C0,4.4771525 4.4771525,0 10,0 C15.5228475,0 20,4.4771525 20,10 C20,15.5228475 15.5228475,20 10,20 Z M5.83310131,3.125 C5.26036222,3.125 4.79166667,3.59387354 4.79166667,4.1664326 C4.79166667,4.73929289 5.26036222,5.20833333 5.83310131,5.20833333 C6.40551067,5.20833333 6.875,4.73929289 6.875,4.1664326 C6.875,3.59387354 6.40551067,3.125 5.83310131,3.125 Z M5,6.25 L5,14.7916667 L6.66666667,14.7916667 L6.66666667,6.25 L5,6.25 Z M9.79166667,7.5 L9.79166667,7.5 L9.79166667,13.3333333 L11.5337123,13.3333333 C14.0131054,13.3333333 14.5833333,11.3848823 14.5833333,10.416501 C14.5833333,8.83694049 13.6111299,7.5 11.4782003,7.5 L9.79166667,7.5 Z M8.33333333,6.04166667 L8.33333333,14.7916667 L11.6860919,14.7916667 C14.5233352,14.7916651 16.25,12.6618556 16.25,10.4166659 C16.25,8.35110679 14.8506916,6.04166667 11.6741392,6.04166667 L8.33333333,6.04166667 L8.33333333,6.04166667 Z" id="Combined-Shape"></path>
        </g>
    </g>
</svg>