<?xml version="1.0" encoding="UTF-8" standalone="no"?>
<svg width="24px" height="24px" viewBox="0 0 24 24" version="1.1" xmlns="http://www.w3.org/2000/svg" xmlns:xlink="http://www.w3.org/1999/xlink">
    <!-- Generator: Sketch 42 (36781) - http://www.bohemiancoding.com/sketch -->
    <title>icon_person_unassigned_24px</title>
    <desc>Created with Sketch.</desc>
    <defs></defs>
    <g id="Page-1" stroke="none" stroke-width="1" fill="none" fill-rule="evenodd">
        <g id="Layer_1">
            <g id="Group" transform="translate(3.000000, 1.000000)"></g>
            <path d="M12,1 C15.3333333,1 18,3.66666667 18,7 C18,10.3333333 15.3333333,13 12,13 C8.66666667,13 6,10.3333333 6,7 C6,3.66666667 8.66666667,1 12,1 Z M12,23 C8.25,23 4.875,21.3223684 3,18.6381579 C3,15.9539474 9,14.5 12,14.5 C15,14.5 21,15.9539474 21,18.6381579 C19.125,21.3223684 15.75,23 12,23 Z M11,10.0046844 L11,10.9953156 C11,11.285965 11.2259549,11.5 11.5046844,11.5 L12.4953156,11.5 C12.785965,11.5 13,11.2740451 13,10.9953156 L13,10.0046844 C13,9.71403503 12.7740451,9.5 12.4953156,9.5 L11.5046844,9.5 C11.214035,9.5 11,9.72595492 11,10.0046844 Z M11.1052381,8.5161874 L12.8004397,8.5161874 C12.8083427,8.21587047 12.8498333,7.96791515 12.9249125,7.77231399 C12.9999917,7.57671283 13.134342,7.38605395 13.3279674,7.20033164 L14.0096044,6.56611287 C14.2980667,6.28555363 14.5074951,6.01092582 14.6378959,5.74222119 C14.7682967,5.47351657 14.8334961,5.17517988 14.8334961,4.84720218 C14.8334961,4.09640985 14.591468,3.51751813 14.1074045,3.11050966 C13.623341,2.70350118 12.940723,2.5 12.0595299,2.5 C11.1743852,2.5 10.4868278,2.72029497 9.99683706,3.16089152 C9.50684627,3.60148807 9.25790308,4.21693098 9.25,5.00723869 L11.25342,5.00723869 C11.2613231,4.7108733 11.338377,4.47576028 11.4845839,4.30189258 C11.6307908,4.12802488 11.8224376,4.04109234 12.0595299,4.04109234 C12.5732299,4.04109234 12.8300761,4.33942903 12.8300761,4.93611135 C12.8300761,5.18110674 12.7540101,5.4053532 12.6018758,5.60885743 C12.4497416,5.81236167 12.2274709,6.03660812 11.935057,6.28160351 C11.6426432,6.5265989 11.431239,6.81604476 11.3008383,7.14994977 C11.1704375,7.48385478 11.1052381,7.93926277 11.1052381,8.5161874 Z" id="Combined-Shape" fill="#000000"></path>
        </g>
    </g>
</svg>