<?xml version="1.0" encoding="UTF-8" standalone="no"?>
<svg width="24px" height="24px" viewBox="0 0 24 24" version="1.1" xmlns="http://www.w3.org/2000/svg" xmlns:xlink="http://www.w3.org/1999/xlink">
    <!-- Generator: Sketch 42 (36781) - http://www.bohemiancoding.com/sketch -->
    <title>icon_file_code_24px</title>
    <desc>Created with Sketch.</desc>
    <defs></defs>
    <g id="Page-1" stroke="none" stroke-width="1" fill="none" fill-rule="evenodd">
        <g id="icon_file_code_24px" transform="translate(3.000000, 1.000000)" fill="#000000">
            <path d="M6,9 L13,9 L13,10 L6,10 L6,9 Z M5,6 L12,6 L12,7 L5,7 L5,6 Z M6,12 L13,12 L13,13 L6,13 L6,12 Z M5,15 L12,15 L12,16 L5,16 L5,15 Z" id="Shape"></path>
            <path d="M15,5.5 L15,19 L3,19 L3,3 L12.5,3 L15,5.5 Z M13,1 L3,1 C2,1 1,2 1,3 C1,4 1,19 1,19 C1,19 1,21 3,21 C5,21 15,21 15,21 C15,21 17,21 17,19 C17,17 17,5 17,5 L17,4.6 L16.7,4.3 L13.7,1.3 L13.4,1 L13,1 Z" id="Shape"></path>
        </g>
    </g>
</svg>