<?xml version="1.0" encoding="UTF-8" standalone="no"?>
<svg width="24px" height="24px" viewBox="0 0 24 24" version="1.1" xmlns="http://www.w3.org/2000/svg" xmlns:xlink="http://www.w3.org/1999/xlink">
    <!-- Generator: Sketch 39.1 (31720) - http://www.bohemiancoding.com/sketch -->
    <title>icon_price_tag_24px</title>
    <desc>Created with Sketch.</desc>
    <defs></defs>
    <g id="Page-1" stroke="none" stroke-width="1" fill="none" fill-rule="evenodd">
        <g id="icon_price_tag_24px" transform="translate(2.000000, 2.000000)" fill="#000000">
            <path d="M0.94645194,9.6628903 C0.840385923,10.2780732 1.03130475,10.9356825 1.5050663,11.409444 L9.29031196,19.1805476 C10.0681294,19.958365 11.3338506,19.9654361 12.111668,19.1876186 L19.1827358,12.1165508 C19.9605533,11.3387334 19.9534822,10.0730122 19.1756648,9.29519477 L11.4045612,1.50994911 C10.9307997,1.03618757 10.2731904,0.845268736 9.65800748,0.951334753 L2.21217308,2.21705589 L0.94645194,9.6628903 Z M4.80330086,5.82411614 C5.35558561,5.82411614 5.80330086,5.37640089 5.80330086,4.82411614 C5.80330086,4.27183139 5.35558561,3.82411614 4.80330086,3.82411614 C4.25101611,3.82411614 3.80330086,4.27183139 3.80330086,4.82411614 C3.80330086,5.37640089 4.25101611,5.82411614 4.80330086,5.82411614 Z M11.2698662,11.3017162 C11.0854681,11.1438378 10.7724013,10.9981687 10.3306565,10.8647045 C9.88891162,10.7312403 9.50796305,10.5985919 9.18779934,10.4667553 C8.86763563,10.3349187 8.59306897,10.183553 8.36409113,10.0126537 C8.13511329,9.84175444 7.95679694,9.64074734 7.82913673,9.40962639 C7.70147651,9.17850545 7.63764736,8.90344309 7.63764736,8.58443108 C7.63764736,8.03429812 7.85649016,7.58345628 8.29418232,7.23189202 C8.73187448,6.88032776 9.05894566,6.68990012 9.78437989,6.63130608 L9.78437989,5.82411614 L11.2364316,5.82411614 L11.2364316,6.63130608 C11.9537604,6.7126867 12.2901276,6.95275591 12.6953981,7.35152092 C13.1006686,7.75028594 13.3033009,8.26704509 13.3033009,8.90181389 L11.546462,8.90181389 C11.546462,8.51118694 11.446159,8.21903491 11.2455501,8.02534905 C11.0449412,7.83166318 10.7764535,7.73482171 10.440079,7.73482171 C10.1077572,7.73482171 9.85041423,7.81050454 9.6680425,7.96187249 C9.48567077,8.11324043 9.39448627,8.32238548 9.39448627,8.58931389 C9.39448627,8.83671096 9.48364445,9.03527669 9.66196347,9.18501702 C9.8402825,9.33475735 10.1715862,9.48775061 10.6558844,9.64400139 C11.1401827,9.80025217 11.538355,9.94754888 11.8504133,10.0858959 C12.1624716,10.224243 12.4258935,10.3804914 12.6406869,10.5546459 C12.8554803,10.7288004 13.0196123,10.9273662 13.1330881,11.150349 C13.2465638,11.3733319 13.3033009,11.6329322 13.3033009,11.9291576 C13.3033009,12.4825458 13.0885107,12.9317601 12.658924,13.2768139 C12.2293372,13.6218677 11.9902347,13.8253162 11.2364316,13.8871655 L11.2364316,14.7035717 L9.78437989,14.7035717 L9.78437989,13.8871655 C8.95357533,13.8155505 8.44312077,13.5836193 7.98719144,13.181599 C7.53126211,12.7795788 7.30330086,12.2449162 7.30330086,11.5775951 L9.06013976,11.5775951 C9.06013976,11.9649669 9.17462697,12.2620017 9.40360481,12.4687084 C9.63258265,12.6754152 9.96186001,12.778767 10.3914468,12.778767 C10.7480848,12.778767 11.0297436,12.7030842 11.2364316,12.5517162 C11.4431195,12.4003483 11.546462,12.196086 11.546462,11.9389233 C11.546462,11.6719949 11.4542643,11.4595946 11.2698662,11.3017162 Z" id="Combined-Shape"></path>
        </g>
    </g>
</svg>