<?xml version="1.0" encoding="UTF-8" standalone="no"?>
<svg width="24px" height="24px" viewBox="0 0 24 24" version="1.1" xmlns="http://www.w3.org/2000/svg" xmlns:xlink="http://www.w3.org/1999/xlink">
    <!-- Generator: Sketch 42 (36781) - http://www.bohemiancoding.com/sketch -->
    <title>icon_file_formula_24px</title>
    <desc>Created with Sketch.</desc>
    <defs></defs>
    <g id="Page-1" stroke="none" stroke-width="1" fill="none" fill-rule="evenodd">
        <g id="icon_file_formula_24px" transform="translate(4.000000, 2.000000)" fill="#000000">
            <polygon id="Shape" points="12 4 4 4 4 6 8.5 10 4 14 4 16 12 16 12 14 6.5 14 11.0649414 10 6.5 6 12 6"></polygon>
            <path d="M14,4.5 L14,18 L2,18 L2,2 L11.5,2 L14,4.5 Z M12,0 L2,0 C1,0 4.08700851e-15,1 4.4408921e-15,2 C4.67681449e-15,3 4.4408921e-15,18 4.4408921e-15,18 C4.4408921e-15,18 4.20496971e-15,20 2,20 C4,20 14,20 14,20 C14,20 16,20 16,18 C16,16 16,4 16,4 L16,3.6 L15.7,3.3 L12.7,0.3 L12.4,0 L12,0 Z" id="Shape"></path>
        </g>
    </g>
</svg>