<?xml version="1.0" encoding="UTF-8" standalone="no"?>
<svg width="16px" height="16px" viewBox="0 0 16 16" version="1.1" xmlns="http://www.w3.org/2000/svg" xmlns:xlink="http://www.w3.org/1999/xlink">
    <!-- Generator: Sketch 39.1 (31720) - http://www.bohemiancoding.com/sketch -->
    <title>icon_view_grid_16px</title>
    <desc>Created with Sketch.</desc>
    <defs></defs>
    <g id="Page-1" stroke="none" stroke-width="1" fill="none" fill-rule="evenodd">
        <g id="icon_view_grid_16px" transform="translate(3.000000, 3.000000)" fill="#000000">
            <path d="M2,10 L2,6 L0,6 L0,10 L2,10 Z M4,10 L6,10 L6,6 L4,6 L4,10 L4,10 Z M8,6 L8,10 L10,10 L10,6 L8,6 L8,6 Z" id="Shape-Copy"></path>
            <path d="M2,4 L2,0 L0,0 L0,4 L2,4 Z M4,4 L6,4 L6,0 L4,0 L4,4 L4,4 Z M8,0 L8,4 L10,4 L10,0 L8,0 L8,0 Z" id="Shape-Copy-2"></path>
        </g>
    </g>
</svg>