<?xml version="1.0" encoding="UTF-8" standalone="no"?>
<svg width="16px" height="16px" viewBox="0 0 16 16" version="1.1" xmlns="http://www.w3.org/2000/svg" xmlns:xlink="http://www.w3.org/1999/xlink">
    <!-- Generator: Sketch 3.6.1 (26313) - http://www.bohemiancoding.com/sketch -->
    <title>icon_more_vert_16px</title>
    <desc>Created with Sketch.</desc>
    <defs></defs>
    <g id="Page-1" stroke="none" stroke-width="1" fill="none" fill-rule="evenodd">
        <g id="icon_more_vert_16px">
            <path d="M0,0 L16,0 L16,16 L0,16 L0,0 L0,0 Z" id="Shape"></path>
            <path d="M8,5 C8.8,5 9.5,4.3 9.5,3.5 C9.5,2.7 8.8,2 8,2 C7.2,2 6.5,2.7 6.5,3.5 C6.5,4.3 7.2,5 8,5 L8,5 Z M8,6.5 C7.2,6.5 6.5,7.2 6.5,8 C6.5,8.8 7.2,9.5 8,9.5 C8.8,9.5 9.5,8.8 9.5,8 C9.5,7.2 8.8,6.5 8,6.5 L8,6.5 Z M8,11 C7.2,11 6.5,11.7 6.5,12.5 C6.5,13.3 7.2,14 8,14 C8.8,14 9.5,13.3 9.5,12.5 C9.5,11.7 8.8,11 8,11 L8,11 Z" id="Shape" fill="#000000"></path>
        </g>
    </g>
</svg>