<?xml version="1.0" encoding="UTF-8" standalone="no"?>
<svg width="24px" height="24px" viewBox="0 0 24 24" version="1.1" xmlns="http://www.w3.org/2000/svg" xmlns:xlink="http://www.w3.org/1999/xlink">
    <!-- Generator: Sketch 42 (36781) - http://www.bohemiancoding.com/sketch -->
    <title>icon_hypermedia_24px</title>
    <desc>Created with Sketch.</desc>
    <defs></defs>
    <g id="Page-1" stroke="none" stroke-width="1" fill="none" fill-rule="evenodd">
        <g id="Group" transform="translate(2.000000, -0.710938)" fill-rule="nonzero" fill="#000000">
            <polygon id="Path-3" points="0.885871817 18.8540572 5.88587182 15.8540572 5.11412818 14.5678178 0.114128183 17.5678178"></polygon>
            <polygon id="Path-4" points="14.1141282 15.8540572 19.1141282 18.8540572 19.8858718 17.5678178 14.8858718 14.5678178"></polygon>
            <path d="M1.5,17.5002647 L10,22.5000926 L18.5,17.5002647 L18.5,7.45139698 L10,2.45122492 L1.5,7.45139698 L1.5,17.5002647 Z M0,6.59349287 L10,0.7109375 L20,6.59349287 L20,18.3581988 L10,24.2403493 L0,18.3581988 L0,6.59349287 Z" id="Stroke-1"></path>
            <path d="M5.75,15.0007291 L10,17.3248679 L14.25,15.0007291 L14.25,10.4213194 L10,8.09702066 L5.75,10.4213194 L5.75,15.0007291 Z M10,6.38735434 L15.75,9.5319938 L15.75,15.8900841 L10,19.0345071 L4.25,15.8900841 L4.25,9.5319938 L10,6.38735434 Z" id="Stroke-1"></path>
            <polygon id="Line" points="9.25 1.671875 9.25 7.4609375 10.75 7.4609375 10.75 1.671875"></polygon>
            <polygon id="Line" points="10.75 23.4609375 10.75 12.671875 9.25 12.671875 9.25 23.4609375"></polygon>
            <polygon id="Path-2" points="0.124222797 7.86000721 9.6242228 13.3600072 10.3757772 12.0618678 0.875777203 6.56186779"></polygon>
            <polygon id="Path-5" points="10.3757772 13.3600072 19.8757772 7.86000721 19.1242228 6.56186779 9.6242228 12.0618678"></polygon>
        </g>
    </g>
</svg>