<?xml version="1.0" encoding="UTF-8" standalone="no"?>
<svg width="16px" height="16px" viewBox="0 0 16 16" version="1.1" xmlns="http://www.w3.org/2000/svg" xmlns:xlink="http://www.w3.org/1999/xlink">
    <!-- Generator: Sketch 3.6.1 (26313) - http://www.bohemiancoding.com/sketch -->
    <title>icon_person_add_16px</title>
    <desc>Created with Sketch.</desc>
    <defs></defs>
    <g id="Page-1" stroke="none" stroke-width="1" fill="none" fill-rule="evenodd">
        <g id="icon_person_add_16px">
            <rect id="Rectangle-path" fill="#000000" x="2" y="5" width="1" height="5"></rect>
            <rect id="Rectangle-path" fill="#000000" x="0" y="7" width="5" height="1"></rect>
            <rect id="Rectangle-path" x="0" y="0" width="16" height="16"></rect>
            <path d="M9,8 C10.7,8 12,6.7 12,5 C12,3.3 10.7,2 9,2 C7.3,2 6,3.3 6,5 C6,6.7 7.3,8 9,8 L9,8 Z M9,9.5 C7,9.5 3,10.5 3,12.5 L3,14 L15,14 L15,12.5 C15,10.5 11,9.5 9,9.5 L9,9.5 Z" id="Shape" fill="#000000"></path>
        </g>
    </g>
</svg>