<?xml version="1.0" encoding="UTF-8" standalone="no"?>
<svg width="24px" height="24px" viewBox="0 0 24 24" version="1.1" xmlns="http://www.w3.org/2000/svg" xmlns:xlink="http://www.w3.org/1999/xlink">
    <!-- Generator: Sketch 42 (36781) - http://www.bohemiancoding.com/sketch -->
    <title>icon_file_reload_24px</title>
    <desc>Created with Sketch.</desc>
    <defs></defs>
    <g id="Page-1" stroke="none" stroke-width="1" fill="none" fill-rule="evenodd">
        <g id="icon_file_reload_24px" transform="translate(4.000000, 2.000000)">
            <g id="Group" transform="translate(4.000000, 7.000000)">
                <path d="M6.94858005,2.95381197 C7.28353715,4.84037766 5.94370873,6.61596889 4.04561847,6.94889225 C2.14752821,7.28181561 0.361090311,5.95012218 0.0261332061,4.06355649 C-0.197171531,2.06601635 1.03100452,0.290425113 2.92909478,0.0684762084 C4.04561847,-0.153472696 5.05048978,0.179450661 5.83205636,0.845297374" id="Shape" stroke="#000000" stroke-width="1.3"></path>
                <polygon id="Shape" fill="#000000" fill-rule="nonzero" points="4.75 4 7 1 9.25 4"></polygon>
            </g>
            <path d="M14,4.5 L14,18 L2,18 L2,2 L11.5,2 L14,4.5 Z M12,0 L2,0 C1,0 4.97518693e-15,1 5.32907052e-15,2 C5.56499291e-15,3 5.32907052e-15,18 5.32907052e-15,18 C5.32907052e-15,18 5.09314813e-15,20 2,20 C4,20 14,20 14,20 C14,20 16,20 16,18 C16,16 16,4 16,4 L16,3.6 L15.7,3.3 L12.7,0.3 L12.4,0 L12,0 Z" id="Shape" fill="#000000"></path>
        </g>
    </g>
</svg>