<?xml version="1.0" encoding="UTF-8" standalone="no"?>
<svg width="24px" height="24px" viewBox="0 0 24 24" version="1.1" xmlns="http://www.w3.org/2000/svg" xmlns:xlink="http://www.w3.org/1999/xlink">
    <!-- Generator: Sketch 3.7 (28169) - http://www.bohemiancoding.com/sketch -->
    <title>icon_reader_24px</title>
    <desc>Created with Sketch.</desc>
    <defs></defs>
    <g id="Page-1" stroke="none" stroke-width="1" fill="none" fill-rule="evenodd">
        <g id="icon_reader_24px">
            <g id="Group">
                <path d="M22.2101695,18.0954545 C22.2101695,18.0818182 22.2101695,18.0818182 22.2101695,18.0954545 C22.3186441,17.9181818 22.4135593,17.7545455 22.4949153,17.5772727 C22.4949153,17.5772727 22.4949153,17.5636364 22.5084746,17.5636364 C22.6033898,17.3863636 22.6847458,17.2227273 22.7661017,17.0454545 C22.7661017,17.0318182 22.7661017,17.0318182 22.779661,17.0181818 C22.8610169,16.8409091 22.9423729,16.6636364 23.0101695,16.4863636 C23.0101695,16.4727273 23.0101695,16.4727273 23.0237288,16.4590909 C23.0915254,16.2818182 23.159322,16.1045455 23.2271186,15.9136364 C23.2271186,15.9 23.2271186,15.9 23.240678,15.8863636 C23.3084746,15.6954545 23.3627119,15.5181818 23.4169492,15.3272727 L23.4169492,15.3136364 C23.4711864,15.1227273 23.5254237,14.9318182 23.5661017,14.7272727 L23.5661017,14.7272727 L23.5661017,14.7272727 C23.7694915,13.8545455 23.8779661,12.9409091 23.8779661,12 C23.8779661,11.0590909 23.7694915,10.1454545 23.5661017,9.27272727 L23.5661017,9.27272727 L23.5661017,9.27272727 C23.5254237,9.08181818 23.4711864,8.87727273 23.4169492,8.68636364 L23.4169492,8.67272727 C23.3627119,8.48181818 23.3084746,8.29090909 23.240678,8.11363636 C23.240678,8.1 23.240678,8.1 23.2271186,8.08636364 C23.159322,7.90909091 23.0915254,7.71818182 23.0237288,7.54090909 C23.0237288,7.52727273 23.0237288,7.52727273 23.0101695,7.51363636 C22.9423729,7.33636364 22.8610169,7.15909091 22.779661,6.98181818 C22.779661,6.96818182 22.779661,6.96818182 22.7661017,6.95454545 C22.6847458,6.77727273 22.6033898,6.6 22.5084746,6.43636364 C22.5084746,6.43636364 22.5084746,6.42272727 22.4949153,6.42272727 C22.4,6.24545455 22.3050847,6.08181818 22.2101695,5.91818182 C22.2101695,5.91818182 22.2101695,5.91818182 22.2101695,5.90454545 C22.1152542,5.74090909 22.0067797,5.56363636 21.8983051,5.4 L21.8983051,5.4 C19.7559322,2.15454545 16.0949153,0 11.9322034,0 C7.76949153,0 4.10847458,2.15454545 1.96610169,5.4 L1.96610169,5.4 C1.85762712,5.56363636 1.74915254,5.72727273 1.65423729,5.90454545 C1.65423729,5.90454545 1.65423729,5.90454545 1.65423729,5.91818182 C1.55932203,6.08181818 1.46440678,6.25909091 1.36949153,6.42272727 C1.36949153,6.42272727 1.36949153,6.43636364 1.3559322,6.43636364 C1.26101695,6.61363636 1.17966102,6.77727273 1.09830508,6.95454545 C1.09830508,6.96818182 1.09830508,6.96818182 1.08474576,6.98181818 C1.00338983,7.15909091 0.922033898,7.33636364 0.854237288,7.51363636 C0.854237288,7.52727273 0.854237288,7.52727273 0.840677966,7.54090909 C0.772881356,7.71818182 0.705084746,7.89545455 0.637288136,8.08636364 C0.637288136,8.1 0.637288136,8.1 0.623728814,8.11363636 C0.555932203,8.30454545 0.501694915,8.48181818 0.447457627,8.67272727 L0.447457627,8.68636364 C0.406779661,8.87727273 0.352542373,9.06818182 0.311864407,9.27272727 L0.311864407,9.27272727 L0.311864407,9.27272727 C0.108474576,10.1454545 0,11.0590909 0,12 C0,12.9409091 0.108474576,13.8545455 0.311864407,14.7272727 L0.311864407,14.7272727 L0.311864407,14.7272727 C0.352542373,14.9181818 0.406779661,15.1227273 0.461016949,15.3136364 L0.461016949,15.3272727 C0.515254237,15.5181818 0.569491525,15.7090909 0.637288136,15.8863636 C0.637288136,15.9 0.637288136,15.9 0.650847458,15.9136364 C0.718644068,16.0909091 0.786440678,16.2818182 0.854237288,16.4590909 C0.854237288,16.4727273 0.854237288,16.4727273 0.86779661,16.4863636 C0.93559322,16.6636364 1.01694915,16.8409091 1.09830508,17.0181818 C1.09830508,17.0318182 1.09830508,17.0318182 1.11186441,17.0454545 C1.19322034,17.2227273 1.27457627,17.4 1.36949153,17.5636364 C1.36949153,17.5636364 1.36949153,17.5772727 1.38305085,17.5772727 C1.4779661,17.7545455 1.57288136,17.9181818 1.66779661,18.0818182 C1.66779661,18.0818182 1.66779661,18.0818182 1.66779661,18.0954545 C1.76271186,18.2590909 1.87118644,18.4363636 1.97966102,18.6 L1.97966102,18.6 C4.10847458,21.8454545 7.76949153,24 11.9322034,24 C16.0949153,24 19.7559322,21.8454545 21.8983051,18.6 L21.8983051,18.6 C22.0067797,18.4227273 22.1152542,18.2590909 22.2101695,18.0954545 L22.2101695,18.0954545 Z M2.54915254,9.27272727 C3.72881356,5.18181818 7.48474576,2.18181818 11.9322034,2.18181818 C16.379661,2.18181818 20.1355932,5.18181818 21.3152542,9.27272727 C21.2610169,9.46363636 21.2067797,9.64090909 21.1389831,9.81818182 C18.9423729,7.15909091 15.6338983,5.45454545 11.9322034,5.45454545 C8.23050847,5.45454545 4.9220339,7.15909091 2.73898305,9.81818182 C2.67118644,9.64090909 2.60338983,9.46363636 2.54915254,9.27272727 L2.54915254,9.27272727 Z M20.040678,12 C18.2915254,14.6318182 15.3084746,16.3636364 11.9322034,16.3636364 C8.5559322,16.3636364 5.57288136,14.6318182 3.82372881,12 C5.57288136,9.36818182 8.5559322,7.63636364 11.9322034,7.63636364 C15.3084746,7.63636364 18.2915254,9.36818182 20.040678,12 L20.040678,12 Z M11.9322034,21.8181818 C7.48474576,21.8181818 3.72881356,18.8181818 2.56271186,14.7272727 C2.61694915,14.5363636 2.67118644,14.3590909 2.73898305,14.1818182 C4.9220339,16.8409091 8.23050847,18.5454545 11.9322034,18.5454545 C15.6338983,18.5454545 18.9423729,16.8409091 21.1389831,14.1681818 C21.2067797,14.3454545 21.2610169,14.5363636 21.3152542,14.7136364 C20.1355932,18.8181818 16.379661,21.8181818 11.9322034,21.8181818 L11.9322034,21.8181818 Z" id="Shape" fill="#B3B3B3"></path>
                <ellipse id="Oval" fill="#B3B3B3" cx="11.9322034" cy="12" rx="2.16949153" ry="2.18181818"></ellipse>
                <g opacity="0.2" transform="translate(2.169492, 12.000000)" id="Shape" fill="#000000">
                    <path d="M0.393220339,2.72727273 C0.13559322,3.61363636 0.013559322,4.52727273 0.013559322,5.46818182 L0.0271186441,6.91363636 C0.637288136,7.78636364 1.36949153,8.57727273 2.18305085,9.24545455 L2.18305085,6.16363636 C1.36949153,5.16818182 0.759322034,3.99545455 0.393220339,2.72727273 L0.393220339,2.72727273 Z"></path>
                    <path d="M1.65423729,0 C1.19322034,0.681818182 0.827118644,1.40454545 0.569491525,2.18181818 C1.09830508,2.82272727 1.69491525,3.40909091 2.33220339,3.92727273 C2.48135593,3.16363636 2.75254237,2.42727273 3.13220339,1.74545455 C2.57627119,1.21363636 2.07457627,0.640909091 1.65423729,0 L1.65423729,0 Z"></path>
                </g>
            </g>
        </g>
    </g>
</svg>