<?xml version="1.0" encoding="UTF-8" standalone="no"?>
<svg width="24px" height="24px" viewBox="0 0 24 24" version="1.1" xmlns="http://www.w3.org/2000/svg" xmlns:xlink="http://www.w3.org/1999/xlink">
    <!-- Generator: Sketch 42 (36781) - http://www.bohemiancoding.com/sketch -->
    <title>icon_file_media_24px</title>
    <desc>Created with Sketch.</desc>
    <defs></defs>
    <g id="Page-1" stroke="none" stroke-width="1" fill="none" fill-rule="evenodd">
        <g id="icon_file_media_24px" transform="translate(9.000000, 8.000000)" fill="#000000">
            <g id="Group">
                <polygon id="Shape" points="1.77635684e-15 0 6.7 4 1.77635684e-15 8"></polygon>
            </g>
        </g>
        <path d="M18,6.5 L18,20 L6,20 L6,4 L15.5,4 L18,6.5 Z M16,2 L6,2 C5,2 4,3 4,4 C4,5 4,20 4,20 C4,20 4,22 6,22 C8,22 18,22 18,22 C18,22 20,22 20,20 C20,18 20,6 20,6 L20,5.6 L19.7,5.3 L16.7,2.3 L16.4,2 L16,2 Z" id="Shape" fill="#000000"></path>
    </g>
</svg>