<?xml version="1.0" encoding="UTF-8" standalone="no"?>
<svg width="24px" height="24px" viewBox="0 0 24 24" version="1.1" xmlns="http://www.w3.org/2000/svg" xmlns:xlink="http://www.w3.org/1999/xlink">
    <!-- Generator: Sketch 3.6.1 (26313) - http://www.bohemiancoding.com/sketch -->
    <title>icon_zoom-reset_24px</title>
    <desc>Created with Sketch.</desc>
    <defs></defs>
    <g id="Page-1" stroke="none" stroke-width="1" fill="none" fill-rule="evenodd">
        <g id="icon_zoom-reset_24px">
            <path d="M15.5,14 L14.7,14 L14.4,13.7 C15.4,12.6 16,11.1 16,9.5 C16,5.9 13.1,3 9.5,3 C5.9,3 3,5.9 3,9.5 C3,13.1 5.9,16 9.5,16 C11.1,16 12.6,15.4 13.7,14.4 L14,14.7 L14,15.5 L19,20.5 L20.5,19 L15.5,14 L15.5,14 Z M9.5,14 C7,14 5,12 5,9.5 C5,7 7,5 9.5,5 C12,5 14,7 14,9.5 C14,12 12,14 9.5,14 L9.5,14 Z" id="Shape" fill="#000000"></path>
            <path d="M0,0 L24,0 L24,24 L0,24 L0,0 L0,0 Z" id="Shape"></path>
            <path d="M11.6,8.1 L10.2,9.5 L11.6,10.9 L10.9,11.6 L9.5,10.2 L8.1,11.6 L7.4,10.9 L8.8,9.5 L7.4,8.1 L8.1,7.4 L9.5,8.8 L10.9,7.4 L11.6,8.1 L11.6,8.1 Z" id="Shape" fill="#000000"></path>
        </g>
    </g>
</svg>