<?xml version="1.0" encoding="UTF-8" standalone="no"?>
<svg width="24px" height="24px" viewBox="0 0 24 24" version="1.1" xmlns="http://www.w3.org/2000/svg" xmlns:xlink="http://www.w3.org/1999/xlink">
    <!-- Generator: Sketch 42 (36781) - http://www.bohemiancoding.com/sketch -->
    <title>icon_isbn_24px.svg</title>
    <desc>Created with Sketch.</desc>
    <defs></defs>
    <g id="Page-1" stroke="none" stroke-width="1" fill="none" fill-rule="evenodd">
        <path d="M12,24 C5.372583,24 0,18.627417 0,12 C0,5.372583 5.372583,0 12,0 C18.627417,0 24,5.372583 24,12 C24,18.627417 18.627417,24 12,24 Z M3,16.0300325 L4.15999997,16.0300325 L4.15999997,8.03003252 L3,8.03003252 L3,16.0300325 Z M4.78820801,13.3544763 C4.96588763,15.1228876 5.84005826,16.0070801 7.41074611,16.0070801 C8.29914422,16.0070801 8.95210703,15.7785612 9.36965414,15.3215165 C9.78720126,14.8644718 9.99597168,14.3002058 9.99597168,13.6287017 C9.99597168,13.1646255 9.91957059,12.769991 9.76676611,12.4447861 C9.61396164,12.1195812 9.39275383,11.8541477 9.10313605,11.6484776 C8.81351826,11.4428075 8.34356271,11.2468085 7.6932553,11.0604749 C7.07848381,10.8882042 6.68581773,10.7299988 6.5152453,10.585854 C6.34467286,10.4417091 6.25938792,10.2641675 6.25938792,10.0532238 C6.25938792,9.83876435 6.35355671,9.65946489 6.54189711,9.51532003 C6.7302375,9.37117516 6.99852971,9.29910381 7.34678177,9.29910381 C7.69503383,9.29910381 7.96332603,9.38172219 8.15166643,9.54696142 C8.34000683,9.71220066 8.46260393,10.0022439 8.51946141,10.4170999 L9.81473937,10.3485435 C9.78986422,9.59617761 9.56599126,9.01784896 9.14311376,8.6135402 C8.72023626,8.20923143 8.13212553,8.00708008 7.37876394,8.00708008 C6.87770741,8.00708008 6.45661302,8.09321413 6.11546815,8.26548482 C5.77432327,8.43775552 5.50691945,8.692642 5.31324866,9.03015193 C5.11957788,9.36766186 5.02274394,9.74735483 5.02274394,10.1692422 C5.02274394,10.5313623 5.09825664,10.8697461 5.24928432,11.1844037 C5.400312,11.4990614 5.60375211,11.753069 5.85961077,11.9464341 C6.11546942,12.1397991 6.51879612,12.3190986 7.06960294,12.4843378 C7.68437443,12.6706714 8.0717102,12.8033882 8.23162186,12.8824921 C8.39153352,12.961596 8.51057708,13.0626716 8.58875611,13.1857221 C8.66693515,13.3087726 8.70602408,13.4581888 8.70602408,13.6339753 C8.70602408,13.9328122 8.59408759,14.1833041 8.37021127,14.3854585 C8.14633495,14.5876128 7.83895381,14.6886885 7.44805864,14.6886885 C6.65916112,14.6886885 6.1936475,14.1947361 6.0515038,13.2068164 L4.78820801,13.3544763 Z M10.6558838,8.03003252 L10.6558838,16.0300325 L12.5279637,16.0300325 C13.3396601,16.0300325 13.8568799,15.9972907 14.0796387,15.931806 C14.4000452,15.8372171 14.6777266,15.5889249 14.9126914,15.186922 C15.1476561,14.7849191 15.2651367,14.2928822 15.2651367,13.7107965 C15.2651367,13.2305758 15.1728305,12.823122 14.9882154,12.4884227 C14.8036002,12.1537234 14.5480417,11.9172547 14.2215323,11.7790093 C14.450394,11.6298499 14.6365322,11.3997476 14.7799522,11.0886955 C14.9233722,10.7776435 14.9950812,10.4293068 14.9950812,10.0436751 C14.9950812,9.625301 14.9111665,9.25058897 14.7433345,8.91952774 C14.5755025,8.58846651 14.36953,8.35745473 14.1254108,8.22648545 C13.8812916,8.09551617 13.4586665,8.03003252 12.857523,8.03003252 L10.6558838,8.03003252 Z M11.7635692,9.31678268 L12.4043789,9.31678268 C12.9902651,9.31678268 13.3449955,9.33436106 13.4685808,9.36951834 C13.5921662,9.40467563 13.697441,9.49344644 13.7844085,9.63583344 C13.871376,9.77822044 13.914859,9.96367233 13.914859,10.1921947 C13.914859,10.4488429 13.8614588,10.6518731 13.7546566,10.8012916 C13.6478545,10.95071 13.4998594,11.0429965 13.310667,11.0781538 C13.2069163,11.0957324 12.9353378,11.1045216 12.4959232,11.1045216 L11.7635692,11.1045216 L11.7635692,9.31678268 Z M11.7635692,12.3912718 L12.6607028,12.3912718 C13.1367353,12.3912718 13.451797,12.422034 13.6058972,12.4835592 C13.7599975,12.5450845 13.883581,12.6575861 13.9766514,12.8210675 C14.0697219,12.9845488 14.1162564,13.1928526 14.1162564,13.4459851 C14.1162564,13.692086 14.0727733,13.8951163 13.9858058,14.055082 C13.8988384,14.2150476 13.791275,14.3222757 13.6631124,14.3767695 C13.5349498,14.4312633 13.2450626,14.4585098 12.793442,14.4585098 L11.7635692,14.4585098 L11.7635692,12.3912718 Z M16.0112305,16.0300325 L17.1930564,16.0300325 L17.1930564,10.8131157 L19.7240464,16.0300325 L21,16.0300325 L21,8.03003252 L19.8181741,8.03003252 L19.8181741,13.3724609 L17.2453496,8.03003252 L16.0112305,8.03003252 L16.0112305,16.0300325 Z" id="Combined-Shape" fill="#000000"></path>
    </g>
</svg>