<?xml version="1.0" encoding="UTF-8" standalone="no"?>
<svg width="16px" height="16px" viewBox="0 0 16 16" version="1.1" xmlns="http://www.w3.org/2000/svg" xmlns:xlink="http://www.w3.org/1999/xlink">
    <!-- Generator: Sketch 39.1 (31720) - http://www.bohemiancoding.com/sketch -->
    <title>icon_view_list_16px</title>
    <desc>Created with Sketch.</desc>
    <defs></defs>
    <g id="Page-1" stroke="none" stroke-width="1" fill="none" fill-rule="evenodd">
        <g id="icon_view_list_16px" transform="translate(2.000000, 4.000000)" fill="#000000">
            <path d="M0,2 L3,2 L3,8.8817842e-16 L0,8.8817842e-16 L0,2 L0,2 Z M4,-8.8817842e-16 L4,2 L12,2 L12,-8.8817842e-16 L4,-8.8817842e-16 L4,-8.8817842e-16 Z" id="Shape-Copy-2" transform="translate(6.000000, 1.000000) rotate(180.000000) translate(-6.000000, -1.000000) "></path>
            <path d="M0,5 L3,5 L3,3 L0,3 L0,5 L0,5 Z M4,3 L4,5 L12,5 L12,3 L4,3 L4,3 Z" id="Shape-Copy-3" transform="translate(6.000000, 4.000000) rotate(180.000000) translate(-6.000000, -4.000000) "></path>
            <path d="M0,8 L3,8 L3,6 L0,6 L0,8 L0,8 Z M4,6 L4,8 L12,8 L12,6 L4,6 L4,6 Z" id="Shape-Copy-4" transform="translate(6.000000, 7.000000) rotate(180.000000) translate(-6.000000, -7.000000) "></path>
        </g>
    </g>
</svg>