<?xml version="1.0" encoding="UTF-8" standalone="no"?>
<svg width="24px" height="24px" viewBox="0 0 24 24" version="1.1" xmlns="http://www.w3.org/2000/svg" xmlns:xlink="http://www.w3.org/1999/xlink">
    <!-- Generator: Sketch 42 (36781) - http://www.bohemiancoding.com/sketch -->
    <title>icon_role_reviewer_24px</title>
    <desc>Created with Sketch.</desc>
    <defs></defs>
    <g id="Page-1" stroke="none" stroke-width="1" fill="none" fill-rule="evenodd">
        <g id="Group" transform="translate(3.000000, 1.000000)" fill="#000000">
            <path d="M16.4448484,16.0306349 C17.4340936,14.2081241 18,12.1305889 18,10 L18,4 L9,0 L0,4 L0,10 C0,15.55 3.84,20.74 9,22 C11.5249411,21.3834446 13.7338168,19.8258761 15.3313666,17.7455802 L10.8957385,13.3099521 C10.202014,13.7470915 9.38054196,14 8.5,14 C6.01471863,14 4,11.9852814 4,9.5 C4,7.01471863 6.01471863,5 8.5,5 C10.9852814,5 13,7.01471863 13,9.5 C13,10.380542 12.7470915,11.202014 12.3099521,11.8957385 L12.3099521,11.8957385 L16.4448484,16.0306349 Z M8.5,12 C9.88071187,12 11,10.8807119 11,9.5 C11,8.11928813 9.88071187,7 8.5,7 C7.11928813,7 6,8.11928813 6,9.5 C6,10.8807119 7.11928813,12 8.5,12 Z" id="Combined-Shape"></path>
            <path d="M1.5,4.97480963 L1.5,10 C1.5,14.7662497 4.72464787,19.2111911 9,20.4479342 C13.2753521,19.2111911 16.5,14.7662497 16.5,10 L16.5,4.97480963 L9,1.6414763 L1.5,4.97480963 Z M0,4 L9,0 L18,4 L18,10 C18,15.55 14.16,20.74 9,22 C3.84,20.74 0,15.55 0,10 L0,4 Z" id="shield" fill-rule="nonzero"></path>
        </g>
    </g>
</svg>