<?xml version="1.0" encoding="UTF-8" standalone="no"?>
<svg width="16px" height="16px" viewBox="0 0 16 16" version="1.1" xmlns="http://www.w3.org/2000/svg" xmlns:xlink="http://www.w3.org/1999/xlink">
    <!-- Generator: Sketch 3.7 (28169) - http://www.bohemiancoding.com/sketch -->
    <title>icon_reader_16px</title>
    <desc>Created with Sketch.</desc>
    <defs></defs>
    <g id="Page-1" stroke="none" stroke-width="1" fill="none" fill-rule="evenodd">
        <g id="icon_reader_16px">
            <g id="Group">
                <path d="M14.8067797,12.0636364 C14.8067797,12.0545455 14.8067797,12.0545455 14.8067797,12.0636364 C14.879096,11.9454545 14.9423729,11.8363636 14.9966102,11.7181818 C14.9966102,11.7181818 14.9966102,11.7090909 15.0056497,11.7090909 C15.0689266,11.5909091 15.1231638,11.4818182 15.1774011,11.3636364 C15.1774011,11.3545455 15.1774011,11.3545455 15.1864407,11.3454545 C15.240678,11.2272727 15.2949153,11.1090909 15.340113,10.9909091 C15.340113,10.9818182 15.340113,10.9818182 15.3491525,10.9727273 C15.3943503,10.8545455 15.439548,10.7363636 15.4847458,10.6090909 C15.4847458,10.6 15.4847458,10.6 15.4937853,10.5909091 C15.5389831,10.4636364 15.5751412,10.3454545 15.6112994,10.2181818 L15.6112994,10.2090909 C15.6474576,10.0818182 15.6836158,9.95454545 15.7107345,9.81818182 L15.7107345,9.81818182 L15.7107345,9.81818182 C15.8463277,9.23636364 15.9186441,8.62727273 15.9186441,8 C15.9186441,7.37272727 15.8463277,6.76363636 15.7107345,6.18181818 L15.7107345,6.18181818 L15.7107345,6.18181818 C15.6836158,6.05454545 15.6474576,5.91818182 15.6112994,5.79090909 L15.6112994,5.78181818 C15.5751412,5.65454545 15.5389831,5.52727273 15.4937853,5.40909091 C15.4937853,5.4 15.4937853,5.4 15.4847458,5.39090909 C15.439548,5.27272727 15.3943503,5.14545455 15.3491525,5.02727273 C15.3491525,5.01818182 15.3491525,5.01818182 15.340113,5.00909091 C15.2949153,4.89090909 15.240678,4.77272727 15.1864407,4.65454545 C15.1864407,4.64545455 15.1864407,4.64545455 15.1774011,4.63636364 C15.1231638,4.51818182 15.0689266,4.4 15.0056497,4.29090909 C15.0056497,4.29090909 15.0056497,4.28181818 14.9966102,4.28181818 C14.9333333,4.16363636 14.8700565,4.05454545 14.8067797,3.94545455 C14.8067797,3.94545455 14.8067797,3.94545455 14.8067797,3.93636364 C14.7435028,3.82727273 14.6711864,3.70909091 14.5988701,3.6 L14.5988701,3.6 C13.1706215,1.43636364 10.7299435,0 7.95480226,0 C5.17966102,0 2.73898305,1.43636364 1.31073446,3.6 L1.31073446,3.6 C1.23841808,3.70909091 1.16610169,3.81818182 1.10282486,3.93636364 C1.10282486,3.93636364 1.10282486,3.93636364 1.10282486,3.94545455 C1.03954802,4.05454545 0.976271186,4.17272727 0.91299435,4.28181818 C0.91299435,4.28181818 0.91299435,4.29090909 0.903954802,4.29090909 C0.840677966,4.40909091 0.786440678,4.51818182 0.73220339,4.63636364 C0.73220339,4.64545455 0.73220339,4.64545455 0.723163842,4.65454545 C0.668926554,4.77272727 0.614689266,4.89090909 0.569491525,5.00909091 C0.569491525,5.01818182 0.569491525,5.01818182 0.560451977,5.02727273 C0.515254237,5.14545455 0.470056497,5.26363636 0.424858757,5.39090909 C0.424858757,5.4 0.424858757,5.4 0.415819209,5.40909091 C0.370621469,5.53636364 0.334463277,5.65454545 0.298305085,5.78181818 L0.298305085,5.79090909 C0.271186441,5.91818182 0.235028249,6.04545455 0.207909605,6.18181818 L0.207909605,6.18181818 L0.207909605,6.18181818 C0.0723163842,6.76363636 0,7.37272727 0,8 C0,8.62727273 0.0723163842,9.23636364 0.207909605,9.81818182 L0.207909605,9.81818182 L0.207909605,9.81818182 C0.235028249,9.94545455 0.271186441,10.0818182 0.307344633,10.2090909 L0.307344633,10.2181818 C0.343502825,10.3454545 0.379661017,10.4727273 0.424858757,10.5909091 C0.424858757,10.6 0.424858757,10.6 0.433898305,10.6090909 C0.479096045,10.7272727 0.524293785,10.8545455 0.569491525,10.9727273 C0.569491525,10.9818182 0.569491525,10.9818182 0.578531073,10.9909091 C0.623728814,11.1090909 0.677966102,11.2272727 0.73220339,11.3454545 C0.73220339,11.3545455 0.73220339,11.3545455 0.741242938,11.3636364 C0.795480226,11.4818182 0.849717514,11.6 0.91299435,11.7090909 C0.91299435,11.7090909 0.91299435,11.7181818 0.922033898,11.7181818 C0.985310734,11.8363636 1.04858757,11.9454545 1.11186441,12.0545455 C1.11186441,12.0545455 1.11186441,12.0545455 1.11186441,12.0636364 C1.17514124,12.1727273 1.24745763,12.2909091 1.31977401,12.4 L1.31977401,12.4 C2.73898305,14.5636364 5.17966102,16 7.95480226,16 C10.7299435,16 13.1706215,14.5636364 14.5988701,12.4 L14.5988701,12.4 C14.6711864,12.2818182 14.7435028,12.1727273 14.8067797,12.0636364 L14.8067797,12.0636364 Z M1.69943503,6.18181818 C2.48587571,3.45454545 4.98983051,1.45454545 7.95480226,1.45454545 C10.919774,1.45454545 13.4237288,3.45454545 14.2101695,6.18181818 C14.1740113,6.30909091 14.1378531,6.42727273 14.0926554,6.54545455 C12.6282486,4.77272727 10.4225989,3.63636364 7.95480226,3.63636364 C5.48700565,3.63636364 3.28135593,4.77272727 1.8259887,6.54545455 C1.78079096,6.42727273 1.73559322,6.30909091 1.69943503,6.18181818 L1.69943503,6.18181818 Z M13.360452,8 C12.1943503,9.75454545 10.2056497,10.9090909 7.95480226,10.9090909 C5.7039548,10.9090909 3.71525424,9.75454545 2.54915254,8 C3.71525424,6.24545455 5.7039548,5.09090909 7.95480226,5.09090909 C10.2056497,5.09090909 12.1943503,6.24545455 13.360452,8 L13.360452,8 Z M7.95480226,14.5454545 C4.98983051,14.5454545 2.48587571,12.5454545 1.70847458,9.81818182 C1.74463277,9.69090909 1.78079096,9.57272727 1.8259887,9.45454545 C3.28135593,11.2272727 5.48700565,12.3636364 7.95480226,12.3636364 C10.4225989,12.3636364 12.6282486,11.2272727 14.0926554,9.44545455 C14.1378531,9.56363636 14.1740113,9.69090909 14.2101695,9.80909091 C13.4237288,12.5454545 10.919774,14.5454545 7.95480226,14.5454545 L7.95480226,14.5454545 Z" id="Shape" fill="#B3B3B3"></path>
                <ellipse id="Oval" fill="#B3B3B3" cx="7.95480226" cy="8" rx="1.44632768" ry="1.45454545"></ellipse>
                <g opacity="0.2" transform="translate(1.446328, 8.000000)" id="Shape" fill="#000000">
                    <path d="M0.262146893,1.81818182 C0.0903954802,2.40909091 0.00903954802,3.01818182 0.00903954802,3.64545455 L0.018079096,4.60909091 C0.424858757,5.19090909 0.91299435,5.71818182 1.45536723,6.16363636 L1.45536723,4.10909091 C0.91299435,3.44545455 0.506214689,2.66363636 0.262146893,1.81818182 L0.262146893,1.81818182 Z"></path>
                    <path d="M1.10282486,0 C0.795480226,0.454545455 0.551412429,0.936363636 0.379661017,1.45454545 C0.73220339,1.88181818 1.1299435,2.27272727 1.55480226,2.61818182 C1.65423729,2.10909091 1.83502825,1.61818182 2.08813559,1.16363636 C1.71751412,0.809090909 1.38305085,0.427272727 1.10282486,0 L1.10282486,0 Z"></path>
                </g>
            </g>
        </g>
    </g>
</svg>