<?xml version="1.0" encoding="UTF-8"?>
<svg width="24px" height="24px" viewBox="0 0 24 24" version="1.1" xmlns="http://www.w3.org/2000/svg" xmlns:xlink="http://www.w3.org/1999/xlink">
    <!-- Generator: Sketch 42 (36781) - http://www.bohemiancoding.com/sketch -->
    <title>icon_declaration_24px</title>
    <desc>Created with Sketch.</desc>
    <defs></defs>
    <g id="Page-1" stroke="none" stroke-width="1" fill="none" fill-rule="evenodd">
        <g id="Group" transform="translate(3.000000, 0.000000)" fill-rule="nonzero" fill="#000000">
            <path d="M0,10.2432039 L0,13.7567961 C0,14.4462891 0.559644063,15 1.25,15 C1.94516897,15 2.5,14.4433987 2.5,13.7567961 L2.5,10.2432039 C2.5,9.55371094 1.94035594,9 1.25,9 C0.554831028,9 0,9.55660134 0,10.2432039 Z" id="Combined-Shape"></path>
            <path d="M15,12.412335 C15.0012992,12.4129621 15.0025981,12.4135894 15.0038967,12.4142168 C14.9823966,10.8637728 15.0372665,8.64301073 15.4917625,7.97913042 C16.2125955,6.92621294 18,7.00116411 18,7.00116411 L18,15.6826172 L17.9859686,15.6746051 C17.8052016,20.5758519 13.8551813,24.0123462 9,24.0123462 C4.05841425,24.0123462 0.752710108,21.0539323 0.113290284,15.6937257 C0.446924553,15.8884965 0.835419269,16 1.25,16 C1.95789378,16 2.58810927,15.6761361 3.00017273,15.1685885 C3.4123001,15.6769989 4.0424365,16 4.75,16 C5.99638849,16 7,14.9937121 7,13.75 L7,11.2749131 L7,1.4912653 C7,0.667662216 7.66579723,0 8.5,0 C9.32842712,0 10,0.66254437 10,1.4912653 L10,11.1134121 C10.3394011,11.1374294 10.6730914,11.1732018 11,11.2194666 L11,2.4912653 C11,1.66766222 11.6657972,1 12.5,1 C13.3284271,1 14,1.66254437 14,2.4912653 L14,11.4822973 L14,14.2583951 C13.9062809,14.2815612 13.8031714,14.3090585 13.6919945,14.3412746 C13.1553355,14.4967837 12.6183007,14.7118149 12.1132963,14.9978255 C11.8981599,15.1196686 11.6930518,15.2523325 11.4995037,15.3964332 C11.1033512,15.6913774 10.7612178,16.0655178 10.4674091,16.4992233 C10.2134049,16.8741714 10.008971,17.2728284 9.84832117,17.6714116 C9.75118458,17.9124141 9.68921512,18.1032913 9.65814295,18.2201658 L10.6245719,18.4770998 C10.6456407,18.3978518 10.6950979,18.2455146 10.7758185,18.0452414 C10.9115972,17.7083652 11.0843117,17.3715627 11.2953206,17.0600821 C11.5298766,16.7138423 11.797194,16.421517 12.0966877,16.1985375 C12.2558959,16.0800035 12.4261753,15.9698668 12.606102,15.8679648 C13.0374793,15.6236532 13.5037104,15.4369721 13.9703175,15.3017621 C14.2486896,15.2210975 14.4616356,15.1762191 14.574887,15.1590635 L15,15.0946662 L15,12.412335 Z M3.5,8.25 C3.5,7.55964406 4.05483103,7 4.75,7 C5.44035594,7 6,7.5498724 6,8.25 L6,13.75 C6,14.4403559 5.44516897,15 4.75,15 C4.05964406,15 3.5,14.4501276 3.5,13.75 L3.5,8.25 Z M0,10.2432039 C0,9.55660134 0.554831028,9 1.25,9 C1.94035594,9 2.5,9.55371094 2.5,10.2432039 L2.5,13.7567961 C2.5,14.4433987 1.94516897,15 1.25,15 C0.559644063,15 0,14.4462891 0,13.7567961 L0,10.2432039 Z" id="Combined-Shape"></path>
        </g>
    </g>
</svg>