<?xml version="1.0" encoding="UTF-8" standalone="no"?>
<svg width="24px" height="24px" viewBox="0 0 24 24" version="1.1" xmlns="http://www.w3.org/2000/svg" xmlns:xlink="http://www.w3.org/1999/xlink">
    <!-- Generator: Sketch 3.7 (28169) - http://www.bohemiancoding.com/sketch -->
    <title>icon_feedback_write_24px</title>
    <desc>Created with Sketch.</desc>
    <defs></defs>
    <g id="Page-1" stroke="none" stroke-width="1" fill="none" fill-rule="evenodd">
        <g id="ic_rate_review_black_24px" transform="translate(2.000000, 2.000000)" fill="#000000">
            <path d="M18,0 L2,0 C0.9,0 0.01,0.9 0.01,2 L0,20 L4,16 L18,16 C19.1,16 20,15.1 20,14 L20,2 C20,0.9 19.1,0 18,0 Z M10.891329,4.63867099 L6,9.53 L6,12 L8.47,12 L13.3940504,7.09024291 L10.891329,4.63867099 L10.891329,4.63867099 Z M11.5984735,3.93152653 L12.88,2.65 C13.08,2.45 13.39,2.45 13.59,2.65 L15.36,4.42 C15.56,4.62 15.56,4.93 15.36,5.13 L14.1022333,6.38411568 L11.5984735,3.93152653 L11.5984735,3.93152653 Z" id="Shape"></path>
        </g>
    </g>
</svg>