<?xml version="1.0" encoding="UTF-8" standalone="no"?>
<svg width="24px" height="24px" viewBox="0 0 24 24" version="1.1" xmlns="http://www.w3.org/2000/svg" xmlns:xlink="http://www.w3.org/1999/xlink">
    <!-- Generator: Sketch 39.1 (31720) - http://www.bohemiancoding.com/sketch -->
    <title>icon_view_list_24px</title>
    <desc>Created with Sketch.</desc>
    <defs></defs>
    <g id="Page-1" stroke="none" stroke-width="1" fill="none" fill-rule="evenodd">
        <g id="icon_view_list_24px">
            <polygon id="Shape" points="0 0 24 0 24 24 0 24"></polygon>
            <path d="M4,19 L8,19 L8,15 L4,15 L4,19 L4,19 Z M9,15 L9,19 L20,19 L20,15 L9,15 L9,15 Z" id="Shape" fill="#000000" transform="translate(12.000000, 17.000000) rotate(180.000000) translate(-12.000000, -17.000000) "></path>
            <path d="M4,14 L8,14 L8,10 L4,10 L4,14 L4,14 Z M9,10 L9,14 L20,14 L20,10 L9,10 L9,10 Z" id="Shape-Copy" fill="#000000" transform="translate(12.000000, 12.000000) rotate(180.000000) translate(-12.000000, -12.000000) "></path>
            <path d="M4,9 L8,9 L8,5 L4,5 L4,9 L4,9 Z M9,5 L9,9 L20,9 L20,5 L9,5 L9,5 Z" id="Shape-Copy-2" fill="#000000" transform="translate(12.000000, 7.000000) rotate(180.000000) translate(-12.000000, -7.000000) "></path>
        </g>
    </g>
</svg>