<?xml version="1.0" encoding="utf-8"?>
<!-- Generator: Adobe Illustrator 18.1.1, SVG Export Plug-In . SVG Version: 6.00 Build 0)  -->
<svg version="1.1" id="Layer_1" xmlns="http://www.w3.org/2000/svg" xmlns:xlink="http://www.w3.org/1999/xlink" x="0px" y="0px"
	 viewBox="2 0 16 16" enable-background="new 2 0 16 16" xml:space="preserve">
<path d="M12.6,9.5H12l-0.2-0.2c0.7-0.9,1.2-2,1.2-3.2c0-2.7-2.2-4.9-4.9-4.9S3.2,3.4,3.2,6.1S5.4,11,8.1,11c1.2,0,2.3-0.4,3.2-1.2
	l0.2,0.2v0.6l3.8,3.7l1.1-1.1L12.6,9.5z M8.1,9.5C6.3,9.5,4.8,8,4.8,6.1s1.5-3.4,3.4-3.4s3.4,1.5,3.4,3.4S10,9.5,8.1,9.5z"/>
<path fill="none" d="M2,0h16v16H2V0z"/>
</svg>
