<?xml version="1.0" encoding="UTF-8"?>
<svg width="24px" height="24px" viewBox="0 0 24 24" version="1.1" xmlns="http://www.w3.org/2000/svg" xmlns:xlink="http://www.w3.org/1999/xlink">
    <!-- Generator: Sketch 42 (36781) - http://www.bohemiancoding.com/sketch -->
    <title>icon_creative_commons_24px</title>
    <desc>Created with Sketch.</desc>
    <defs></defs>
    <g id="Page-1" stroke="none" stroke-width="1" fill="none" fill-rule="evenodd">
        <g id="icon_creative_commons" transform="translate(2.000000, 2.000000)" fill-rule="nonzero" fill="#000000">
            <g id="Group">
                <path d="M9.98184615,0.153846154 C12.736,0.153846154 15.0809231,1.11538462 17.0147692,3.03753846 C17.9403077,3.96338462 18.644,5.02153846 19.1246154,6.21107692 C19.6049231,7.40092308 19.8458462,8.66369231 19.8458462,10 C19.8458462,11.348 19.608,12.6110769 19.1338462,13.7886154 C18.6590769,14.9664615 17.9584615,16.0070769 17.0329231,16.9095385 C16.072,17.8587692 14.9818462,18.5858462 13.7624615,19.0898462 C12.5436923,19.5938462 11.2833846,19.8458462 9.98246154,19.8458462 C8.68153846,19.8458462 7.436,19.5972308 6.24615385,19.0984615 C5.05661538,18.6006154 3.98984615,17.8796923 3.04615385,16.9363077 C2.10246154,15.9929231 1.38461538,14.9289231 0.892307692,13.7449231 C0.4,12.5609231 0.153846154,11.3129231 0.153846154,10 C0.153846154,8.69876923 0.402769231,7.44769231 0.900923077,6.24615385 C1.39907692,5.04461538 2.12307692,3.96923077 3.07230769,3.01969231 C4.94769231,1.10953846 7.25076923,0.153846154 9.98184615,0.153846154 Z M10.0175385,1.92984615 C7.76707692,1.92984615 5.87384615,2.71538462 4.33815385,4.28584615 C3.56430769,5.07138462 2.96953846,5.95323077 2.55353846,6.932 C2.13692308,7.91076923 1.92923077,8.93353846 1.92923077,10.0003077 C1.92923077,11.0553846 2.13692308,12.0723077 2.55353846,13.0504615 C2.96984615,14.0298462 3.56430769,14.9030769 4.33815385,15.6707692 C5.11169231,16.4387692 5.98461538,17.0243077 6.95815385,17.4292308 C7.93076923,17.8335385 8.95076923,18.0356923 10.0175385,18.0356923 C11.0723077,18.0356923 12.0944615,17.8310769 13.0861538,17.4206154 C14.0766154,17.0098462 14.9695385,16.4184615 15.7670769,15.6449231 C17.3024615,14.1446154 18.0698462,12.2633846 18.0698462,10.0006154 C18.0698462,8.91046154 17.8704615,7.87907692 17.472,6.90615385 C17.0741538,5.93323077 16.4935385,5.06615385 15.7323077,4.30369231 C14.1489231,2.72123077 12.2446154,1.92984615 10.0175385,1.92984615 Z M9.89415385,8.36523077 L8.57507692,9.05107692 C8.43415385,8.75846154 8.26153846,8.55292308 8.05661538,8.43569231 C7.85138462,8.31876923 7.66092308,8.26 7.48492308,8.26 C6.60615385,8.26 6.16615385,8.84 6.16615385,10.0006154 C6.16615385,10.528 6.27753846,10.9495385 6.5,11.2661538 C6.72276923,11.5827692 7.05107692,11.7412308 7.48492308,11.7412308 C8.05938462,11.7412308 8.46369231,11.4596923 8.69846154,10.8972308 L9.91138462,11.5126154 C9.65353846,11.9935385 9.296,12.3713846 8.83876923,12.6467692 C8.38215385,12.9224615 7.87784615,13.06 7.32676923,13.06 C6.44769231,13.06 5.73815385,12.7907692 5.19907692,12.2510769 C4.66,11.712 4.39046154,10.9618462 4.39046154,10.0009231 C4.39046154,9.06307692 4.66307692,8.31907692 5.208,7.768 C5.75292308,7.21723077 6.44153846,6.94153846 7.27415385,6.94153846 C8.49353846,6.94092308 9.36646154,7.41569231 9.89415385,8.36523077 Z M15.5732308,8.36523077 L14.272,9.05107692 C14.1313846,8.75846154 13.9581538,8.55292308 13.7532308,8.43569231 C13.5476923,8.31876923 13.3510769,8.26 13.1643077,8.26 C12.2852308,8.26 11.8452308,8.84 11.8452308,10.0006154 C11.8452308,10.528 11.9569231,10.9495385 12.1793846,11.2661538 C12.4018462,11.5827692 12.7298462,11.7412308 13.1643077,11.7412308 C13.7381538,11.7412308 14.1427692,11.4596923 14.3769231,10.8972308 L15.6076923,11.5126154 C15.3384615,11.9935385 14.9747692,12.3713846 14.5181538,12.6467692 C14.0609231,12.9224615 13.5627692,13.06 13.0236923,13.06 C12.1326154,13.06 11.4209231,12.7907692 10.888,12.2510769 C10.3538462,11.712 10.0873846,10.9618462 10.0873846,10.0009231 C10.0873846,9.06307692 10.3596923,8.31907692 10.9052308,7.768 C11.4498462,7.21723077 12.1384615,6.94153846 12.9707692,6.94153846 C14.1898462,6.94092308 15.0578462,7.41569231 15.5732308,8.36523077 Z" id="Shape"></path>
            </g>
        </g>
    </g>
</svg>