<?xml version="1.0" encoding="UTF-8" standalone="no"?>
<svg width="14px" height="14px" viewBox="0 0 14 14" version="1.1" xmlns="http://www.w3.org/2000/svg" xmlns:xlink="http://www.w3.org/1999/xlink">
    <!-- Generator: Sketch 42 (36781) - http://www.bohemiancoding.com/sketch -->
    <title>icon_phone_24px</title>
    <desc>Created with Sketch.</desc>
    <defs></defs>
    <g id="Page-1" stroke="none" stroke-width="1" fill="none" fill-rule="evenodd">
        <g id="icon_phone_24px" transform="translate(-5.000000, -5.000000)">
            <polygon id="Shape" points="0 0 24 0 24 24 0 24"></polygon>
            <path d="M7.81555556,11.0588889 C8.93555556,13.26 10.74,15.0566667 12.9411111,16.1844444 L14.6522222,14.4733333 C14.8622222,14.2633333 15.1733333,14.1933333 15.4455556,14.2866667 C16.3166667,14.5744444 17.2577778,14.73 18.2222222,14.73 C18.65,14.73 19,15.08 19,15.5077778 L19,18.2222222 C19,18.65 18.65,19 18.2222222,19 C10.9188889,19 5,13.0811111 5,5.77777778 C5,5.35 5.35,5 5.77777778,5 L8.5,5 C8.92777778,5 9.27777778,5.35 9.27777778,5.77777778 C9.27777778,6.75 9.43333333,7.68333333 9.72111111,8.55444444 C9.80666667,8.82666667 9.74444444,9.13 9.52666667,9.34777778 L7.81555556,11.0588889 Z" id="Shape" fill="#000000" fill-rule="nonzero"></path>
        </g>
    </g>
</svg>