<?xml version="1.0" encoding="utf-8"?>
<!-- Generator: Adobe Illustrator 18.1.1, SVG Export Plug-In . SVG Version: 6.00 Build 0)  -->
<svg version="1.1" id="Layer_4" xmlns="http://www.w3.org/2000/svg" xmlns:xlink="http://www.w3.org/1999/xlink" x="0px" y="0px"
	 viewBox="0 0 180 180" enable-background="new 0 0 180 180" xml:space="preserve">
<g>
	<path fill="#B3B3B3" d="M85.8,177.9c1.4,0.1,2.8,0.2,4.2,0.2s2.8-0.1,4.2-0.2c46.6-2.2,83.8-40.8,83.8-87.9c0-48.5-39.5-88-88-88
		S2,41.4,2,90C2,137.1,39.2,175.6,85.8,177.9z M143.7,137.8c1.5-5,2.3-10.3,2.3-15.8c0-30.9-25.1-56-56-56s-56,25.1-56,56
		c0,5.5,0.8,10.8,2.3,15.8C24.9,125.1,18,108.3,18,90c0-39.7,32.3-72,72-72s72,32.3,72,72C162,108.3,155.1,125.1,143.7,137.8z
		 M90,161.9c-3.9,0-7.3-2.9-7.9-6.7c-0.7-4.4,2.3-8.5,6.6-9.2c0.4-0.1,0.9-0.1,1.3-0.1c3.9,0,7.3,2.9,7.9,6.7c0.3,2.1-0.2,4.2-1.4,6
		c-1.3,1.7-3.1,2.9-5.2,3.2C90.8,161.9,90.4,161.9,90,161.9z M50,122c0-22.1,17.9-40,40-40s40,17.9,40,40c0,13.1-6.3,24.7-16,32
		c0-1.3-0.1-2.6-0.3-3.9c-1.9-11.7-11.8-20.2-23.7-20.2c-1.3,0-2.5,0.1-3.8,0.3C74.4,132.1,65.9,142.4,66,154
		C56.3,146.7,50,135.1,50,122z"/>
	<g opacity="0.2">
		<path d="M40.1,96.6c-0.5,3.1-0.8,6.2-0.8,9.4c0,19.4,9.8,36.5,24.8,46.5c0.6,0.5,1.2,1,1.9,1.5c0-4.6,1.3-8.9,3.6-12.7
			c1.3,9.5,8.2,17.2,17.1,19.9c1,0.4,2,0.7,3.1,0.7c0.1,0,0.2,0,0.3,0c-0.1,0-0.1,0-0.2,0c-21.3,0-40.5-9.3-53.7-24.1
			c-1.5-5-2.3-10.3-2.3-15.8C34,112.9,36.2,104.2,40.1,96.6z"/>
		<path opacity="0.5" fill="#4D4D4D" d="M94.2,177.9c-0.3,0-0.6,0.1-0.9,0.1c-0.1,0-0.3,0-0.4,0C93.3,177.9,93.8,177.9,94.2,177.9z"
			/>
	</g>
</g>
</svg>
