<?xml version="1.0" encoding="utf-8"?>
<!-- Generator: Adobe Illustrator 18.1.1, SVG Export Plug-In . SVG Version: 6.00 Build 0)  -->
<svg version="1.1" id="Layer_4" xmlns="http://www.w3.org/2000/svg" xmlns:xlink="http://www.w3.org/1999/xlink" x="0px" y="0px"
	 viewBox="0 0 180 180" enable-background="new 0 0 180 180" xml:space="preserve">
<g>
	<path fill="#B3B3B3" d="M165.8,134.7C165.8,134.6,165.8,134.6,165.8,134.7c0.8-1.3,1.5-2.5,2.1-3.8c0,0,0-0.1,0.1-0.1
		c0.7-1.3,1.3-2.5,1.9-3.8c0-0.1,0-0.1,0.1-0.2c0.6-1.3,1.2-2.6,1.7-3.9c0-0.1,0-0.1,0.1-0.2c0.5-1.3,1-2.6,1.5-4
		c0-0.1,0-0.1,0.1-0.2c0.5-1.4,0.9-2.7,1.3-4.1c0,0,0-0.1,0-0.1c0.4-1.4,0.8-2.8,1.1-4.3c0,0,0,0,0,0v0c1.5-6.4,2.3-13.1,2.3-20
		s-0.8-13.6-2.3-20v0c0,0,0,0,0,0c-0.3-1.4-0.7-2.9-1.1-4.3c0,0,0-0.1,0-0.1c-0.4-1.4-0.8-2.8-1.3-4.1c0-0.1,0-0.1-0.1-0.2
		c-0.5-1.3-1-2.7-1.5-4c0-0.1,0-0.1-0.1-0.2c-0.5-1.3-1.1-2.6-1.7-3.9c0-0.1,0-0.1-0.1-0.2c-0.6-1.3-1.2-2.6-1.9-3.8
		c0,0,0-0.1-0.1-0.1c-0.7-1.3-1.4-2.5-2.1-3.7c0,0,0,0,0-0.1c-0.7-1.2-1.5-2.5-2.3-3.7c0,0,0,0,0,0C147.7,17.8,120.7,2,90,2
		S32.3,17.8,16.5,41.6c0,0,0,0,0,0c-0.8,1.2-1.6,2.4-2.3,3.7c0,0,0,0,0,0.1c-0.7,1.2-1.4,2.5-2.1,3.7c0,0,0,0.1-0.1,0.1
		c-0.7,1.3-1.3,2.5-1.9,3.8c0,0.1,0,0.1-0.1,0.2c-0.6,1.3-1.2,2.6-1.7,3.9c0,0.1,0,0.1-0.1,0.2c-0.5,1.3-1,2.6-1.5,4
		c0,0.1,0,0.1-0.1,0.2c-0.5,1.4-0.9,2.7-1.3,4.1c0,0,0,0.1,0,0.1C5,67.1,4.6,68.5,4.3,70c0,0,0,0,0,0v0C2.8,76.4,2,83.1,2,90
		s0.8,13.6,2.3,20v0c0,0,0,0,0,0c0.3,1.4,0.7,2.9,1.1,4.3c0,0,0,0.1,0,0.1c0.4,1.4,0.8,2.8,1.3,4.1c0,0.1,0,0.1,0.1,0.2
		c0.5,1.3,1,2.7,1.5,4c0,0.1,0,0.1,0.1,0.2c0.5,1.3,1.1,2.6,1.7,3.9c0,0.1,0,0.1,0.1,0.2c0.6,1.3,1.2,2.6,1.9,3.8c0,0,0,0.1,0.1,0.1
		c0.7,1.3,1.4,2.5,2.1,3.7c0,0,0,0,0,0.1c0.7,1.2,1.5,2.5,2.3,3.7c0,0,0,0,0,0C32.3,162.2,59.3,178,90,178s57.7-15.8,73.5-39.6
		c0,0,0,0,0,0C164.3,137.1,165.1,135.9,165.8,134.7z M20.8,70C29.5,40,57.2,18,90,18s60.5,22,69.2,52c-0.4,1.4-0.8,2.7-1.3,4
		C141.7,54.5,117.3,42,90,42S38.3,54.5,22.2,74C21.7,72.7,21.2,71.4,20.8,70z M149.8,90c-12.9,19.3-34.9,32-59.8,32
		s-46.9-12.7-59.8-32C43.1,70.7,65.1,58,90,58S136.9,70.7,149.8,90z M90,162c-32.8,0-60.5-22-69.1-52c0.4-1.4,0.8-2.7,1.3-4
		C38.3,125.5,62.7,138,90,138s51.7-12.5,67.9-32.1c0.5,1.3,0.9,2.7,1.3,4C150.5,140,122.8,162,90,162z"/>
	<circle fill="#B3B3B3" cx="90" cy="90" r="16"/>
	<g opacity="0.2">
		<path d="M20.9,110c-1.9,6.5-2.8,13.2-2.8,20.1l0.1,10.6c4.5,6.4,9.9,12.2,15.9,17.1l0-22.6C28.1,127.9,23.6,119.3,20.9,110z"/>
		<path d="M30.2,90c-3.4,5-6.1,10.3-8,16c3.9,4.7,8.3,9,13,12.8c1.1-5.6,3.1-11,5.9-16C37,98.9,33.3,94.7,30.2,90z"/>
		<path opacity="0.5" fill="#4D4D4D" d="M31.7,87.7C31.8,87.7,31.8,87.7,31.7,87.7C31.8,87.7,31.8,87.7,31.7,87.7z"/>
		<path opacity="0.5" fill="#4D4D4D" d="M21,109.5c0-0.1,0-0.1,0.1-0.2C21.1,109.3,21,109.4,21,109.5z"/>
	</g>
</g>
</svg>
